<svg xmlns="http://www.w3.org/2000/svg" viewBox="0 0 800 800" width="800" height="800" role="img" aria-hidden="true">
<defs><filter id="blur" x="-20%" y="-50%" width="140%" height="200%"><feGaussianBlur stdDeviation="9"/></filter><linearGradient id="g11" x1="0" x2="1"><stop offset="0" stop-color="#75816f"/><stop offset=".28" stop-color="#9cab98"/><stop offset=".55" stop-color="#8FA08A"/><stop offset="1" stop-color="#6c7665"/></linearGradient>
<linearGradient id="v11" x1="0" y1="0" x2="0" y2="1"><stop offset="0" stop-color="#9aaa96"/><stop offset="1" stop-color="#7a8774"/></linearGradient><clipPath id="c11"><path d="M250,330 L550,330 L532,610 Q528,650 488,650 L312,650 Q272,650 268,610 Z"/></clipPath></defs>
<rect width="800" height="800" fill="#EFE8DD"/><rect y="610" width="800" height="190" fill="#E3D9CB"/><rect y="609" width="800" height="2" fill="#d6cab8"/>
<ellipse cx="380" cy="656" rx="217" ry="26" fill="#5b4a38" opacity=".22" filter="url(#blur)"/><g transform="translate(380 650) scale(1.12) translate(-400 -650)"><path d="M544,400.4 C660,394 660,573.2 528,560.4" fill="none" stroke="#818f7b" stroke-width="36" stroke-linecap="round"/><path d="M544,400.4 C660,394 660,573.2 528,560.4" fill="none" stroke="#8FA08A" stroke-width="24" stroke-linecap="round" opacity=".9"/>
<path d="M250,330 L550,330 L532,610 Q528,650 488,650 L312,650 Q272,650 268,610 Z" fill="url(#g11)"/><g clip-path="url(#c11)"><circle cx="250.1" cy="380.2" r="1.2" fill="#5a6153" opacity="0.15"/><circle cx="485.9" cy="411.6" r="1.2" fill="#5a6153" opacity="0.25"/><circle cx="340.9" cy="468.4" r="1.3" fill="#5a6153" opacity="0.31"/><circle cx="533.0" cy="595.5" r="1.5" fill="#5a6153" opacity="0.40"/><circle cx="282.3" cy="389.1" r="1.3" fill="#5a6153" opacity="0.36"/><circle cx="255.9" cy="484.4" r="1.2" fill="#5a6153" opacity="0.27"/><circle cx="342.4" cy="536.8" r="1.3" fill="#5a6153" opacity="0.39"/><circle cx="545.2" cy="595.1" r="2.7" fill="#5a6153" opacity="0.25"/><circle cx="339.7" cy="374.5" r="2.3" fill="#5a6153" opacity="0.46"/><circle cx="305.0" cy="379.2" r="2.6" fill="#5a6153" opacity="0.42"/><circle cx="528.7" cy="516.0" r="1.6" fill="#5a6153" opacity="0.18"/><circle cx="440.9" cy="568.2" r="1.2" fill="#5a6153" opacity="0.23"/><circle cx="413.5" cy="481.6" r="1.8" fill="#5a6153" opacity="0.31"/><circle cx="462.0" cy="521.3" r="2.2" fill="#5a6153" opacity="0.50"/><circle cx="452.9" cy="504.0" r="2.7" fill="#5a6153" opacity="0.31"/><circle cx="463.5" cy="364.7" r="1.7" fill="#5a6153" opacity="0.38"/><circle cx="453.8" cy="603.7" r="1.7" fill="#5a6153" opacity="0.21"/><circle cx="473.9" cy="576.4" r="0.9" fill="#5a6153" opacity="0.23"/><circle cx="445.0" cy="628.1" r="2.5" fill="#5a6153" opacity="0.20"/><circle cx="425.1" cy="394.6" r="1.5" fill="#5a6153" opacity="0.32"/><circle cx="510.3" cy="332.8" r="1.7" fill="#5a6153" opacity="0.33"/><circle cx="501.4" cy="364.9" r="2.4" fill="#5a6153" opacity="0.29"/><circle cx="546.1" cy="434.2" r="2.2" fill="#5a6153" opacity="0.27"/><circle cx="377.3" cy="431.9" r="1.3" fill="#5a6153" opacity="0.26"/><circle cx="517.0" cy="392.8" r="1.9" fill="#5a6153" opacity="0.49"/><circle cx="518.6" cy="403.6" r="2.8" fill="#5a6153" opacity="0.25"/><circle cx="456.8" cy="560.3" r="1.4" fill="#5a6153" opacity="0.43"/><circle cx="498.0" cy="638.3" r="2.9" fill="#5a6153" opacity="0.49"/><circle cx="343.0" cy="450.9" r="3.1" fill="#5a6153" opacity="0.22"/><circle cx="500.3" cy="363.9" r="1.2" fill="#5a6153" opacity="0.20"/><circle cx="305.1" cy="518.8" r="1.0" fill="#5a6153" opacity="0.48"/><circle cx="443.5" cy="341.4" r="2.0" fill="#5a6153" opacity="0.42"/><circle cx="352.5" cy="528.7" r="1.5" fill="#5a6153" opacity="0.38"/><circle cx="432.4" cy="442.7" r="1.5" fill="#5a6153" opacity="0.26"/><circle cx="548.1" cy="503.1" r="1.1" fill="#5a6153" opacity="0.25"/><circle cx="298.8" cy="627.5" r="1.6" fill="#5a6153" opacity="0.34"/><circle cx="429.8" cy="589.3" r="1.8" fill="#5a6153" opacity="0.35"/><circle cx="265.3" cy="561.8" r="1.2" fill="#5a6153" opacity="0.17"/><circle cx="257.4" cy="584.1" r="2.3" fill="#5a6153" opacity="0.19"/><circle cx="262.3" cy="531.6" r="2.9" fill="#5a6153" opacity="0.25"/><circle cx="534.5" cy="469.0" r="1.6" fill="#5a6153" opacity="0.46"/><circle cx="454.3" cy="534.9" r="1.4" fill="#5a6153" opacity="0.29"/><circle cx="471.9" cy="601.2" r="1.2" fill="#5a6153" opacity="0.24"/><circle cx="313.7" cy="615.7" r="2.4" fill="#5a6153" opacity="0.42"/><circle cx="272.0" cy="407.6" r="2.6" fill="#5a6153" opacity="0.47"/><circle cx="366.6" cy="603.7" r="1.8" fill="#5a6153" opacity="0.28"/><circle cx="441.9" cy="383.1" r="1.6" fill="#5a6153" opacity="0.43"/><circle cx="250.9" cy="541.4" r="1.6" fill="#5a6153" opacity="0.20"/><circle cx="372.8" cy="528.9" r="1.2" fill="#5a6153" opacity="0.18"/><circle cx="499.8" cy="389.4" r="2.1" fill="#5a6153" opacity="0.43"/><circle cx="410.7" cy="602.9" r="2.4" fill="#5a6153" opacity="0.47"/><circle cx="379.1" cy="631.9" r="2.9" fill="#5a6153" opacity="0.27"/><circle cx="394.7" cy="629.7" r="2.7" fill="#5a6153" opacity="0.16"/><circle cx="418.3" cy="494.5" r="2.8" fill="#5a6153" opacity="0.21"/><circle cx="315.2" cy="636.2" r="2.6" fill="#5a6153" opacity="0.31"/><circle cx="329.4" cy="521.9" r="1.1" fill="#5a6153" opacity="0.35"/><circle cx="286.6" cy="565.1" r="0.9" fill="#5a6153" opacity="0.28"/><circle cx="486.8" cy="649.7" r="2.6" fill="#5a6153" opacity="0.28"/><circle cx="266.4" cy="439.0" r="2.7" fill="#5a6153" opacity="0.41"/><circle cx="301.8" cy="555.5" r="2.2" fill="#5a6153" opacity="0.27"/><circle cx="296.8" cy="507.1" r="1.4" fill="#5a6153" opacity="0.28"/><circle cx="479.1" cy="354.5" r="3.0" fill="#5a6153" opacity="0.39"/><circle cx="289.5" cy="583.6" r="0.9" fill="#5a6153" opacity="0.16"/><circle cx="418.1" cy="475.9" r="2.3" fill="#5a6153" opacity="0.16"/><circle cx="364.0" cy="436.7" r="2.9" fill="#5a6153" opacity="0.18"/><circle cx="254.2" cy="614.5" r="1.5" fill="#5a6153" opacity="0.49"/><circle cx="350.8" cy="365.1" r="1.2" fill="#5a6153" opacity="0.19"/><circle cx="533.6" cy="436.2" r="2.8" fill="#5a6153" opacity="0.41"/><circle cx="356.9" cy="477.6" r="2.2" fill="#5a6153" opacity="0.44"/><circle cx="443.4" cy="590.1" r="1.2" fill="#5a6153" opacity="0.42"/></g>
<ellipse cx="400" cy="330" rx="150" ry="26" fill="#a3b19f"/><ellipse cx="400" cy="333" rx="136" ry="19" fill="#555a4d"/>
<path d="M276,390 Q270,490 286,586" fill="none" stroke="#fff" stroke-width="10" stroke-linecap="round" opacity=".16"/></g>
</svg>