<svg xmlns="http://www.w3.org/2000/svg" viewBox="140 220 520 520" width="800" height="800" role="img" aria-hidden="true">
<defs><filter id="blur" x="-20%" y="-50%" width="140%" height="200%"><feGaussianBlur stdDeviation="9"/></filter><linearGradient id="g101" x1="0" x2="1"><stop offset="0" stop-color="#ad997a"/><stop offset=".28" stop-color="#dbc6a4"/><stop offset=".55" stop-color="#D6BE98"/><stop offset="1" stop-color="#9e8b6f"/></linearGradient>
<linearGradient id="v101" x1="0" y1="0" x2="0" y2="1"><stop offset="0" stop-color="#dac5a2"/><stop offset="1" stop-color="#b49f80"/></linearGradient><clipPath id="c101"><path d="M330,330 L470,330 C470,385 640,400 640,505 C640,595 530,650 400,650 C270,650 160,595 160,505 C160,400 330,385 330,330 Z"/></clipPath></defs>
<rect x="0" y="0" width="800" height="800" fill="#EFE8DD"/><rect y="610" width="800" height="190" fill="#E3D9CB"/>
<ellipse cx="400" cy="656" rx="318" ry="37" fill="#5b4a38" opacity=".22" filter="url(#blur)"/><g transform="translate(400 650) scale(1.2) translate(-400 -650)"><path d="M330,330 L470,330 C470,385 640,400 640,505 C640,595 530,650 400,650 C270,650 160,595 160,505 C160,400 330,385 330,330 Z" fill="url(#g101)"/><g clip-path="url(#c101)"><circle cx="160.3" cy="472.0" r="3.0" fill="#81725b" opacity="0.47"/><circle cx="328.4" cy="345.8" r="1.3" fill="#81725b" opacity="0.17"/><circle cx="207.4" cy="431.9" r="2.0" fill="#81725b" opacity="0.22"/><circle cx="301.1" cy="332.5" r="2.7" fill="#81725b" opacity="0.18"/><circle cx="347.2" cy="544.3" r="2.0" fill="#81725b" opacity="0.44"/><circle cx="314.2" cy="569.8" r="1.7" fill="#81725b" opacity="0.48"/><circle cx="455.9" cy="599.7" r="1.0" fill="#81725b" opacity="0.46"/><circle cx="252.1" cy="331.1" r="1.6" fill="#81725b" opacity="0.26"/><circle cx="560.0" cy="371.4" r="1.1" fill="#81725b" opacity="0.34"/><circle cx="179.0" cy="588.5" r="1.6" fill="#81725b" opacity="0.42"/><circle cx="396.3" cy="484.2" r="3.3" fill="#81725b" opacity="0.34"/><circle cx="487.4" cy="433.6" r="3.5" fill="#81725b" opacity="0.49"/><circle cx="508.4" cy="639.7" r="2.8" fill="#81725b" opacity="0.35"/><circle cx="489.5" cy="623.4" r="1.7" fill="#81725b" opacity="0.32"/><circle cx="317.0" cy="360.8" r="1.3" fill="#81725b" opacity="0.24"/><circle cx="498.3" cy="615.9" r="3.4" fill="#81725b" opacity="0.41"/><circle cx="562.2" cy="642.3" r="1.4" fill="#81725b" opacity="0.46"/><circle cx="378.6" cy="463.2" r="2.5" fill="#81725b" opacity="0.30"/><circle cx="210.9" cy="490.7" r="1.3" fill="#81725b" opacity="0.29"/><circle cx="575.3" cy="444.3" r="1.7" fill="#81725b" opacity="0.15"/><circle cx="169.7" cy="620.2" r="2.0" fill="#81725b" opacity="0.46"/><circle cx="418.0" cy="576.5" r="1.2" fill="#81725b" opacity="0.19"/><circle cx="617.4" cy="427.9" r="1.8" fill="#81725b" opacity="0.38"/><circle cx="418.4" cy="539.5" r="2.1" fill="#81725b" opacity="0.36"/><circle cx="568.5" cy="397.7" r="2.2" fill="#81725b" opacity="0.20"/><circle cx="517.8" cy="556.8" r="3.6" fill="#81725b" opacity="0.33"/><circle cx="339.3" cy="564.9" r="3.1" fill="#81725b" opacity="0.46"/><circle cx="398.6" cy="447.7" r="1.3" fill="#81725b" opacity="0.19"/><circle cx="279.4" cy="488.1" r="2.0" fill="#81725b" opacity="0.24"/><circle cx="591.9" cy="493.0" r="1.5" fill="#81725b" opacity="0.27"/><circle cx="599.8" cy="614.5" r="1.7" fill="#81725b" opacity="0.17"/><circle cx="322.4" cy="571.4" r="2.6" fill="#81725b" opacity="0.46"/><circle cx="514.2" cy="530.3" r="1.5" fill="#81725b" opacity="0.41"/><circle cx="198.0" cy="418.7" r="2.5" fill="#81725b" opacity="0.41"/><circle cx="389.2" cy="597.3" r="1.3" fill="#81725b" opacity="0.35"/><circle cx="322.9" cy="368.6" r="2.0" fill="#81725b" opacity="0.46"/><circle cx="422.8" cy="510.1" r="1.9" fill="#81725b" opacity="0.20"/><circle cx="608.8" cy="490.2" r="2.0" fill="#81725b" opacity="0.37"/><circle cx="623.0" cy="451.2" r="3.1" fill="#81725b" opacity="0.41"/><circle cx="171.5" cy="540.9" r="1.3" fill="#81725b" opacity="0.45"/><circle cx="429.9" cy="473.9" r="3.3" fill="#81725b" opacity="0.39"/><circle cx="384.9" cy="472.6" r="1.3" fill="#81725b" opacity="0.27"/><circle cx="367.0" cy="553.1" r="2.1" fill="#81725b" opacity="0.17"/><circle cx="169.2" cy="365.6" r="1.5" fill="#81725b" opacity="0.42"/><circle cx="167.7" cy="571.4" r="1.4" fill="#81725b" opacity="0.36"/><circle cx="356.1" cy="442.0" r="2.0" fill="#81725b" opacity="0.17"/><circle cx="492.7" cy="562.5" r="1.4" fill="#81725b" opacity="0.18"/><circle cx="525.2" cy="616.3" r="3.6" fill="#81725b" opacity="0.16"/><circle cx="272.4" cy="370.9" r="3.0" fill="#81725b" opacity="0.23"/><circle cx="529.1" cy="345.4" r="1.6" fill="#81725b" opacity="0.41"/><circle cx="611.8" cy="359.4" r="3.3" fill="#81725b" opacity="0.16"/><circle cx="189.0" cy="384.6" r="3.0" fill="#81725b" opacity="0.41"/><circle cx="639.4" cy="336.6" r="1.5" fill="#81725b" opacity="0.24"/><circle cx="296.0" cy="486.2" r="2.7" fill="#81725b" opacity="0.24"/><circle cx="478.1" cy="479.9" r="2.4" fill="#81725b" opacity="0.38"/><circle cx="200.7" cy="545.6" r="1.8" fill="#81725b" opacity="0.39"/><circle cx="192.5" cy="502.2" r="1.3" fill="#81725b" opacity="0.27"/><circle cx="333.4" cy="569.1" r="1.9" fill="#81725b" opacity="0.30"/><circle cx="315.3" cy="365.2" r="1.5" fill="#81725b" opacity="0.18"/><circle cx="520.6" cy="587.3" r="2.3" fill="#81725b" opacity="0.42"/><circle cx="491.6" cy="412.0" r="2.8" fill="#81725b" opacity="0.21"/><circle cx="529.0" cy="458.7" r="3.4" fill="#81725b" opacity="0.28"/><circle cx="569.2" cy="529.2" r="1.2" fill="#81725b" opacity="0.18"/><circle cx="295.2" cy="419.0" r="3.0" fill="#81725b" opacity="0.27"/><circle cx="341.0" cy="396.8" r="3.3" fill="#81725b" opacity="0.42"/><circle cx="484.5" cy="361.2" r="1.6" fill="#81725b" opacity="0.19"/><circle cx="384.8" cy="577.3" r="2.6" fill="#81725b" opacity="0.35"/><circle cx="185.1" cy="594.8" r="3.2" fill="#81725b" opacity="0.30"/><circle cx="600.3" cy="464.9" r="1.6" fill="#81725b" opacity="0.40"/><circle cx="441.9" cy="392.8" r="3.0" fill="#81725b" opacity="0.34"/><circle cx="580.1" cy="645.0" r="2.8" fill="#81725b" opacity="0.34"/><circle cx="271.7" cy="431.2" r="3.3" fill="#81725b" opacity="0.37"/><circle cx="298.2" cy="454.3" r="1.2" fill="#81725b" opacity="0.40"/><circle cx="616.2" cy="449.6" r="1.9" fill="#81725b" opacity="0.44"/><circle cx="202.6" cy="400.5" r="2.5" fill="#81725b" opacity="0.20"/><circle cx="435.1" cy="491.9" r="1.7" fill="#81725b" opacity="0.19"/><circle cx="597.0" cy="344.4" r="3.0" fill="#81725b" opacity="0.41"/><circle cx="585.1" cy="399.4" r="1.9" fill="#81725b" opacity="0.42"/><circle cx="251.3" cy="379.6" r="2.8" fill="#81725b" opacity="0.21"/><circle cx="373.6" cy="351.4" r="1.6" fill="#81725b" opacity="0.44"/><circle cx="522.0" cy="472.3" r="1.8" fill="#81725b" opacity="0.32"/><circle cx="531.5" cy="644.8" r="1.1" fill="#81725b" opacity="0.21"/><circle cx="195.2" cy="484.8" r="2.4" fill="#81725b" opacity="0.22"/><circle cx="252.4" cy="610.7" r="2.1" fill="#81725b" opacity="0.41"/><circle cx="303.3" cy="588.8" r="1.5" fill="#81725b" opacity="0.18"/><circle cx="373.7" cy="596.4" r="2.9" fill="#81725b" opacity="0.29"/><circle cx="499.3" cy="391.9" r="1.2" fill="#81725b" opacity="0.43"/><circle cx="628.3" cy="348.5" r="3.6" fill="#81725b" opacity="0.34"/><circle cx="620.5" cy="551.0" r="3.2" fill="#81725b" opacity="0.18"/><circle cx="303.3" cy="621.9" r="1.4" fill="#81725b" opacity="0.32"/><circle cx="229.0" cy="426.2" r="3.3" fill="#81725b" opacity="0.48"/><circle cx="406.7" cy="602.9" r="1.5" fill="#81725b" opacity="0.29"/><circle cx="383.6" cy="466.3" r="2.0" fill="#81725b" opacity="0.38"/><circle cx="202.2" cy="624.8" r="3.6" fill="#81725b" opacity="0.33"/><circle cx="438.8" cy="646.0" r="2.8" fill="#81725b" opacity="0.29"/><circle cx="286.4" cy="497.7" r="1.9" fill="#81725b" opacity="0.36"/><circle cx="588.4" cy="448.4" r="1.4" fill="#81725b" opacity="0.48"/><circle cx="250.3" cy="517.9" r="1.4" fill="#81725b" opacity="0.49"/><circle cx="625.1" cy="506.6" r="3.3" fill="#81725b" opacity="0.19"/><circle cx="551.6" cy="435.6" r="3.4" fill="#81725b" opacity="0.42"/><circle cx="429.7" cy="501.8" r="1.9" fill="#81725b" opacity="0.40"/><circle cx="574.5" cy="453.2" r="3.6" fill="#81725b" opacity="0.27"/><circle cx="491.6" cy="645.1" r="3.2" fill="#81725b" opacity="0.16"/><circle cx="315.3" cy="490.5" r="1.6" fill="#81725b" opacity="0.43"/><circle cx="229.7" cy="632.0" r="3.6" fill="#81725b" opacity="0.44"/><circle cx="353.2" cy="512.1" r="3.1" fill="#81725b" opacity="0.23"/><circle cx="565.4" cy="354.7" r="3.3" fill="#81725b" opacity="0.34"/><circle cx="409.8" cy="415.3" r="1.7" fill="#81725b" opacity="0.43"/><circle cx="160.2" cy="604.8" r="1.5" fill="#81725b" opacity="0.20"/><circle cx="394.6" cy="507.3" r="3.2" fill="#81725b" opacity="0.36"/><circle cx="221.0" cy="422.6" r="1.3" fill="#81725b" opacity="0.38"/><circle cx="206.1" cy="540.6" r="2.8" fill="#81725b" opacity="0.28"/><circle cx="431.1" cy="467.3" r="3.3" fill="#81725b" opacity="0.48"/><circle cx="207.5" cy="330.2" r="1.2" fill="#81725b" opacity="0.47"/><circle cx="524.8" cy="501.0" r="3.3" fill="#81725b" opacity="0.47"/><circle cx="512.9" cy="367.9" r="1.8" fill="#81725b" opacity="0.21"/><circle cx="377.2" cy="429.5" r="3.5" fill="#81725b" opacity="0.46"/><circle cx="228.0" cy="404.2" r="3.4" fill="#81725b" opacity="0.36"/><circle cx="413.9" cy="429.1" r="1.4" fill="#81725b" opacity="0.35"/><circle cx="245.5" cy="587.6" r="2.7" fill="#81725b" opacity="0.41"/></g>
<ellipse cx="400" cy="330" rx="70" ry="18.2" fill="#decbad"/><ellipse cx="400" cy="332" rx="63" ry="13.3" fill="#6f604d"/>
<path d="M210,506 Q202,579.6 242,618" fill="none" stroke="#fff" stroke-width="12" stroke-linecap="round" opacity=".17"/></g>
</svg>