<svg xmlns="http://www.w3.org/2000/svg" viewBox="0 0 800 800" width="800" height="800" role="img" aria-hidden="true">
<defs><filter id="blur" x="-20%" y="-50%" width="140%" height="200%"><feGaussianBlur stdDeviation="9"/></filter><linearGradient id="g121" x1="0" x2="1"><stop offset="0" stop-color="#c6c1ba"/><stop offset=".28" stop-color="#f7f4ed"/><stop offset=".55" stop-color="#F6F2EA"/><stop offset="1" stop-color="#b4afa9"/></linearGradient>
<linearGradient id="v121" x1="0" y1="0" x2="0" y2="1"><stop offset="0" stop-color="#f7f3ec"/><stop offset="1" stop-color="#cecac3"/></linearGradient><clipPath id="c121"><circle cx="400" cy="400" r="190"/></clipPath><linearGradient id="g122" x1="0" x2="1"><stop offset="0" stop-color="#c6c1ba"/><stop offset=".28" stop-color="#f7f4ed"/><stop offset=".55" stop-color="#F6F2EA"/><stop offset="1" stop-color="#b4afa9"/></linearGradient>
<linearGradient id="v122" x1="0" y1="0" x2="0" y2="1"><stop offset="0" stop-color="#f7f3ec"/><stop offset="1" stop-color="#cecac3"/></linearGradient><clipPath id="c122"><circle cx="400" cy="400" r="190"/></clipPath><linearGradient id="g123" x1="0" x2="1"><stop offset="0" stop-color="#c6c1ba"/><stop offset=".28" stop-color="#f7f4ed"/><stop offset=".55" stop-color="#F6F2EA"/><stop offset="1" stop-color="#b4afa9"/></linearGradient>
<linearGradient id="v123" x1="0" y1="0" x2="0" y2="1"><stop offset="0" stop-color="#f7f3ec"/><stop offset="1" stop-color="#cecac3"/></linearGradient><clipPath id="c123"><circle cx="360" cy="400" r="105"/></clipPath><linearGradient id="g124" x1="0" x2="1"><stop offset="0" stop-color="#c6c1ba"/><stop offset=".28" stop-color="#f7f4ed"/><stop offset=".55" stop-color="#F6F2EA"/><stop offset="1" stop-color="#b4afa9"/></linearGradient>
<linearGradient id="v124" x1="0" y1="0" x2="0" y2="1"><stop offset="0" stop-color="#f7f3ec"/><stop offset="1" stop-color="#cecac3"/></linearGradient><clipPath id="c124"><circle cx="360" cy="400" r="105"/></clipPath></defs>
<rect width="800" height="800" fill="#EFE8DD"/>
<ellipse cx="258" cy="327" rx="137" ry="137" fill="#6b5a48" opacity=".16" filter="url(#blur)"/><ellipse cx="558" cy="527" rx="137" ry="137" fill="#6b5a48" opacity=".16" filter="url(#blur)"/><ellipse cx="258" cy="567" rx="95" ry="95" fill="#6b5a48" opacity=".16" filter="url(#blur)"/><ellipse cx="558" cy="287" rx="95" ry="95" fill="#6b5a48" opacity=".16" filter="url(#blur)"/><g transform="translate(250 310) scale(0.7) translate(-400 -400)"><circle cx="400" cy="400" r="190" fill="url(#g121)"/><g clip-path="url(#c121)"><circle cx="210.3" cy="368.4" r="1.0" fill="#938e88" opacity="0.42"/><circle cx="340.1" cy="336.9" r="2.6" fill="#938e88" opacity="0.24"/><circle cx="319.5" cy="338.7" r="1.1" fill="#938e88" opacity="0.49"/><circle cx="498.2" cy="410.0" r="1.9" fill="#938e88" opacity="0.16"/><circle cx="383.8" cy="508.4" r="1.1" fill="#938e88" opacity="0.44"/><circle cx="431.8" cy="229.3" r="1.0" fill="#938e88" opacity="0.47"/><circle cx="327.4" cy="493.8" r="1.7" fill="#938e88" opacity="0.39"/><circle cx="374.1" cy="408.1" r="2.8" fill="#938e88" opacity="0.41"/><circle cx="502.7" cy="529.7" r="1.1" fill="#938e88" opacity="0.32"/><circle cx="411.1" cy="268.5" r="1.1" fill="#938e88" opacity="0.24"/><circle cx="285.2" cy="293.6" r="2.4" fill="#938e88" opacity="0.44"/><circle cx="382.9" cy="367.3" r="1.8" fill="#938e88" opacity="0.23"/><circle cx="520.2" cy="405.3" r="1.3" fill="#938e88" opacity="0.41"/><circle cx="306.1" cy="225.4" r="2.3" fill="#938e88" opacity="0.49"/><circle cx="447.4" cy="423.2" r="2.5" fill="#938e88" opacity="0.21"/><circle cx="314.4" cy="385.3" r="2.3" fill="#938e88" opacity="0.34"/><circle cx="452.2" cy="356.5" r="1.2" fill="#938e88" opacity="0.24"/><circle cx="465.3" cy="408.5" r="1.0" fill="#938e88" opacity="0.21"/><circle cx="309.7" cy="289.6" r="1.0" fill="#938e88" opacity="0.28"/><circle cx="582.4" cy="251.3" r="2.4" fill="#938e88" opacity="0.35"/><circle cx="376.2" cy="509.2" r="2.2" fill="#938e88" opacity="0.23"/><circle cx="423.3" cy="291.1" r="1.1" fill="#938e88" opacity="0.50"/><circle cx="569.0" cy="451.1" r="2.6" fill="#938e88" opacity="0.24"/><circle cx="515.4" cy="344.5" r="1.5" fill="#938e88" opacity="0.25"/><circle cx="222.3" cy="527.0" r="1.9" fill="#938e88" opacity="0.28"/><circle cx="515.9" cy="486.5" r="1.5" fill="#938e88" opacity="0.22"/><circle cx="468.2" cy="327.3" r="2.7" fill="#938e88" opacity="0.28"/><circle cx="405.3" cy="531.1" r="1.9" fill="#938e88" opacity="0.26"/><circle cx="425.7" cy="535.0" r="2.5" fill="#938e88" opacity="0.46"/><circle cx="322.6" cy="476.2" r="2.9" fill="#938e88" opacity="0.26"/><circle cx="316.8" cy="213.0" r="1.6" fill="#938e88" opacity="0.24"/><circle cx="491.7" cy="362.6" r="2.3" fill="#938e88" opacity="0.31"/><circle cx="381.5" cy="357.8" r="1.9" fill="#938e88" opacity="0.33"/><circle cx="337.0" cy="399.0" r="1.7" fill="#938e88" opacity="0.34"/><circle cx="580.0" cy="228.4" r="2.8" fill="#938e88" opacity="0.24"/><circle cx="282.6" cy="381.6" r="2.5" fill="#938e88" opacity="0.19"/><circle cx="322.9" cy="473.8" r="1.9" fill="#938e88" opacity="0.37"/><circle cx="482.4" cy="524.8" r="1.6" fill="#938e88" opacity="0.16"/><circle cx="535.0" cy="352.6" r="2.1" fill="#938e88" opacity="0.21"/><circle cx="561.4" cy="372.6" r="1.8" fill="#938e88" opacity="0.47"/><circle cx="316.3" cy="436.5" r="2.4" fill="#938e88" opacity="0.41"/><circle cx="549.8" cy="578.9" r="2.0" fill="#938e88" opacity="0.32"/><circle cx="454.6" cy="533.7" r="1.7" fill="#938e88" opacity="0.27"/><circle cx="362.6" cy="416.8" r="1.4" fill="#938e88" opacity="0.24"/><circle cx="518.5" cy="506.8" r="2.8" fill="#938e88" opacity="0.30"/><circle cx="457.6" cy="261.2" r="2.0" fill="#938e88" opacity="0.16"/><circle cx="387.8" cy="573.0" r="1.6" fill="#938e88" opacity="0.40"/><circle cx="404.9" cy="516.9" r="1.0" fill="#938e88" opacity="0.36"/><circle cx="301.3" cy="358.7" r="1.1" fill="#938e88" opacity="0.20"/><circle cx="225.0" cy="415.0" r="2.7" fill="#938e88" opacity="0.19"/><circle cx="314.9" cy="447.5" r="2.4" fill="#938e88" opacity="0.27"/><circle cx="525.2" cy="403.9" r="2.7" fill="#938e88" opacity="0.32"/><circle cx="419.1" cy="297.7" r="2.7" fill="#938e88" opacity="0.29"/><circle cx="545.9" cy="375.0" r="2.3" fill="#938e88" opacity="0.50"/><circle cx="465.9" cy="235.3" r="2.3" fill="#938e88" opacity="0.48"/><circle cx="352.6" cy="418.5" r="1.4" fill="#938e88" opacity="0.38"/><circle cx="502.2" cy="541.4" r="1.1" fill="#938e88" opacity="0.35"/><circle cx="344.7" cy="398.7" r="1.6" fill="#938e88" opacity="0.42"/><circle cx="393.4" cy="285.2" r="2.9" fill="#938e88" opacity="0.47"/><circle cx="584.0" cy="397.9" r="1.3" fill="#938e88" opacity="0.32"/><circle cx="557.1" cy="533.8" r="2.4" fill="#938e88" opacity="0.25"/><circle cx="303.5" cy="428.5" r="2.9" fill="#938e88" opacity="0.38"/><circle cx="327.7" cy="539.7" r="1.0" fill="#938e88" opacity="0.18"/><circle cx="545.1" cy="281.5" r="2.1" fill="#938e88" opacity="0.36"/><circle cx="443.5" cy="368.6" r="2.9" fill="#938e88" opacity="0.26"/><circle cx="327.8" cy="410.7" r="2.3" fill="#938e88" opacity="0.27"/><circle cx="562.8" cy="292.2" r="2.7" fill="#938e88" opacity="0.42"/><circle cx="311.9" cy="460.8" r="1.1" fill="#938e88" opacity="0.38"/><circle cx="500.7" cy="384.8" r="2.2" fill="#938e88" opacity="0.49"/><circle cx="301.3" cy="572.6" r="1.1" fill="#938e88" opacity="0.42"/><circle cx="508.2" cy="268.6" r="2.1" fill="#938e88" opacity="0.25"/><circle cx="549.5" cy="442.6" r="2.9" fill="#938e88" opacity="0.36"/><circle cx="325.2" cy="225.9" r="2.0" fill="#938e88" opacity="0.18"/><circle cx="502.4" cy="297.9" r="2.7" fill="#938e88" opacity="0.28"/><circle cx="354.4" cy="491.6" r="3.1" fill="#938e88" opacity="0.17"/><circle cx="216.4" cy="514.0" r="1.5" fill="#938e88" opacity="0.36"/><circle cx="497.6" cy="216.9" r="1.2" fill="#938e88" opacity="0.33"/><circle cx="355.6" cy="581.9" r="2.6" fill="#938e88" opacity="0.38"/><circle cx="399.6" cy="580.5" r="2.3" fill="#938e88" opacity="0.40"/><circle cx="434.4" cy="397.0" r="2.0" fill="#938e88" opacity="0.41"/><circle cx="572.2" cy="513.0" r="1.7" fill="#938e88" opacity="0.23"/><circle cx="515.5" cy="556.5" r="2.4" fill="#938e88" opacity="0.50"/><circle cx="530.9" cy="569.7" r="1.8" fill="#938e88" opacity="0.42"/><circle cx="243.4" cy="430.5" r="2.1" fill="#938e88" opacity="0.35"/><circle cx="395.4" cy="583.5" r="2.5" fill="#938e88" opacity="0.47"/><circle cx="408.4" cy="580.9" r="1.8" fill="#938e88" opacity="0.26"/><circle cx="407.0" cy="348.6" r="3.1" fill="#938e88" opacity="0.46"/><circle cx="513.7" cy="576.4" r="2.5" fill="#938e88" opacity="0.31"/><circle cx="585.0" cy="504.6" r="2.3" fill="#938e88" opacity="0.27"/><circle cx="343.0" cy="236.4" r="1.4" fill="#938e88" opacity="0.26"/><circle cx="431.3" cy="409.5" r="3.0" fill="#938e88" opacity="0.35"/><circle cx="478.3" cy="445.8" r="1.3" fill="#938e88" opacity="0.48"/><circle cx="273.4" cy="242.5" r="2.6" fill="#938e88" opacity="0.32"/><circle cx="340.8" cy="306.0" r="1.8" fill="#938e88" opacity="0.19"/><circle cx="285.3" cy="414.1" r="1.8" fill="#938e88" opacity="0.39"/><circle cx="261.8" cy="574.5" r="2.0" fill="#938e88" opacity="0.46"/><circle cx="384.9" cy="374.9" r="2.1" fill="#938e88" opacity="0.20"/><circle cx="451.0" cy="262.0" r="2.8" fill="#938e88" opacity="0.21"/><circle cx="405.9" cy="455.8" r="2.3" fill="#938e88" opacity="0.46"/><circle cx="521.1" cy="396.3" r="2.5" fill="#938e88" opacity="0.15"/><circle cx="342.4" cy="567.1" r="1.4" fill="#938e88" opacity="0.27"/><circle cx="568.5" cy="434.0" r="1.4" fill="#938e88" opacity="0.48"/><circle cx="583.3" cy="452.1" r="3.0" fill="#938e88" opacity="0.36"/><circle cx="262.4" cy="263.1" r="2.0" fill="#938e88" opacity="0.37"/><circle cx="287.8" cy="342.2" r="2.7" fill="#938e88" opacity="0.25"/><circle cx="271.4" cy="489.7" r="2.3" fill="#938e88" opacity="0.16"/><circle cx="415.9" cy="336.1" r="1.2" fill="#938e88" opacity="0.16"/><circle cx="572.9" cy="564.6" r="1.9" fill="#938e88" opacity="0.42"/><circle cx="537.7" cy="461.6" r="1.6" fill="#938e88" opacity="0.21"/><circle cx="336.0" cy="587.8" r="2.0" fill="#938e88" opacity="0.48"/><circle cx="502.5" cy="352.0" r="1.5" fill="#938e88" opacity="0.39"/><circle cx="449.4" cy="398.4" r="1.5" fill="#938e88" opacity="0.22"/><circle cx="527.1" cy="453.5" r="3.0" fill="#938e88" opacity="0.45"/><circle cx="358.9" cy="328.1" r="1.8" fill="#938e88" opacity="0.32"/><circle cx="352.0" cy="369.4" r="2.3" fill="#938e88" opacity="0.25"/><circle cx="563.7" cy="433.2" r="3.0" fill="#938e88" opacity="0.35"/><circle cx="542.6" cy="243.8" r="2.8" fill="#938e88" opacity="0.46"/><circle cx="548.3" cy="352.6" r="2.2" fill="#938e88" opacity="0.43"/><circle cx="445.6" cy="570.8" r="1.2" fill="#938e88" opacity="0.17"/><circle cx="368.0" cy="254.2" r="1.5" fill="#938e88" opacity="0.25"/></g><circle cx="400" cy="400" r="136.79999999999998" fill="#e0dcd4" opacity=".6"/><circle cx="400" cy="400" r="125.4" fill="#f7f3eb"/></g><g transform="translate(550 510) scale(0.7) translate(-400 -400)"><circle cx="400" cy="400" r="190" fill="url(#g122)"/><g clip-path="url(#c122)"><circle cx="210.3" cy="258.2" r="2.8" fill="#938e88" opacity="0.41"/><circle cx="311.9" cy="278.5" r="1.8" fill="#938e88" opacity="0.17"/><circle cx="255.3" cy="396.1" r="1.1" fill="#938e88" opacity="0.41"/><circle cx="423.2" cy="580.8" r="1.2" fill="#938e88" opacity="0.47"/><circle cx="279.2" cy="546.4" r="1.1" fill="#938e88" opacity="0.39"/><circle cx="214.1" cy="582.0" r="2.5" fill="#938e88" opacity="0.15"/><circle cx="327.5" cy="436.8" r="2.1" fill="#938e88" opacity="0.22"/><circle cx="529.2" cy="452.0" r="2.4" fill="#938e88" opacity="0.38"/><circle cx="279.2" cy="384.2" r="2.3" fill="#938e88" opacity="0.41"/><circle cx="496.3" cy="585.1" r="3.0" fill="#938e88" opacity="0.15"/><circle cx="365.6" cy="587.4" r="1.1" fill="#938e88" opacity="0.37"/><circle cx="561.4" cy="346.4" r="2.3" fill="#938e88" opacity="0.41"/><circle cx="347.4" cy="281.2" r="1.2" fill="#938e88" opacity="0.48"/><circle cx="340.7" cy="443.4" r="1.6" fill="#938e88" opacity="0.20"/><circle cx="570.8" cy="297.6" r="2.1" fill="#938e88" opacity="0.49"/><circle cx="223.3" cy="217.7" r="1.7" fill="#938e88" opacity="0.39"/><circle cx="386.3" cy="516.8" r="2.2" fill="#938e88" opacity="0.30"/><circle cx="587.3" cy="392.8" r="2.2" fill="#938e88" opacity="0.21"/><circle cx="538.5" cy="243.8" r="2.9" fill="#938e88" opacity="0.29"/><circle cx="290.8" cy="498.7" r="2.1" fill="#938e88" opacity="0.35"/><circle cx="285.6" cy="368.5" r="2.7" fill="#938e88" opacity="0.21"/><circle cx="532.4" cy="361.0" r="2.3" fill="#938e88" opacity="0.30"/><circle cx="566.3" cy="280.6" r="2.7" fill="#938e88" opacity="0.23"/><circle cx="349.4" cy="220.1" r="3.0" fill="#938e88" opacity="0.25"/><circle cx="357.9" cy="504.0" r="3.0" fill="#938e88" opacity="0.42"/><circle cx="510.2" cy="518.0" r="0.9" fill="#938e88" opacity="0.33"/><circle cx="467.6" cy="491.3" r="1.5" fill="#938e88" opacity="0.43"/><circle cx="385.5" cy="333.6" r="2.8" fill="#938e88" opacity="0.17"/><circle cx="505.3" cy="375.2" r="2.8" fill="#938e88" opacity="0.44"/><circle cx="351.8" cy="387.2" r="1.3" fill="#938e88" opacity="0.50"/><circle cx="386.3" cy="429.5" r="1.6" fill="#938e88" opacity="0.38"/><circle cx="244.5" cy="449.1" r="2.8" fill="#938e88" opacity="0.36"/><circle cx="515.2" cy="406.5" r="0.9" fill="#938e88" opacity="0.50"/><circle cx="319.6" cy="344.8" r="1.7" fill="#938e88" opacity="0.36"/><circle cx="388.7" cy="577.2" r="2.0" fill="#938e88" opacity="0.23"/><circle cx="537.7" cy="541.4" r="3.0" fill="#938e88" opacity="0.16"/><circle cx="240.4" cy="213.1" r="1.6" fill="#938e88" opacity="0.49"/><circle cx="587.9" cy="278.1" r="1.7" fill="#938e88" opacity="0.33"/><circle cx="397.5" cy="579.4" r="2.5" fill="#938e88" opacity="0.28"/><circle cx="427.3" cy="549.8" r="2.0" fill="#938e88" opacity="0.27"/><circle cx="400.7" cy="510.1" r="2.6" fill="#938e88" opacity="0.28"/><circle cx="310.0" cy="473.1" r="1.0" fill="#938e88" opacity="0.27"/><circle cx="575.2" cy="280.7" r="1.1" fill="#938e88" opacity="0.45"/><circle cx="438.0" cy="458.1" r="1.3" fill="#938e88" opacity="0.15"/><circle cx="248.6" cy="414.3" r="1.0" fill="#938e88" opacity="0.28"/><circle cx="284.2" cy="215.5" r="0.9" fill="#938e88" opacity="0.20"/><circle cx="566.9" cy="496.4" r="1.2" fill="#938e88" opacity="0.33"/><circle cx="500.5" cy="589.6" r="1.3" fill="#938e88" opacity="0.21"/><circle cx="227.2" cy="217.4" r="2.9" fill="#938e88" opacity="0.21"/><circle cx="364.8" cy="500.7" r="2.0" fill="#938e88" opacity="0.44"/><circle cx="298.5" cy="496.4" r="2.0" fill="#938e88" opacity="0.42"/><circle cx="550.5" cy="313.1" r="2.6" fill="#938e88" opacity="0.21"/><circle cx="550.1" cy="443.0" r="1.6" fill="#938e88" opacity="0.43"/><circle cx="439.7" cy="560.0" r="3.0" fill="#938e88" opacity="0.25"/><circle cx="241.5" cy="305.6" r="1.5" fill="#938e88" opacity="0.22"/><circle cx="549.6" cy="351.9" r="1.5" fill="#938e88" opacity="0.32"/><circle cx="226.6" cy="296.8" r="2.6" fill="#938e88" opacity="0.30"/><circle cx="570.5" cy="366.9" r="2.1" fill="#938e88" opacity="0.27"/><circle cx="420.5" cy="212.8" r="2.6" fill="#938e88" opacity="0.42"/><circle cx="508.7" cy="321.2" r="1.6" fill="#938e88" opacity="0.22"/><circle cx="351.7" cy="426.0" r="2.6" fill="#938e88" opacity="0.42"/><circle cx="587.4" cy="333.4" r="2.9" fill="#938e88" opacity="0.38"/><circle cx="402.3" cy="544.5" r="1.0" fill="#938e88" opacity="0.19"/><circle cx="565.5" cy="454.5" r="2.4" fill="#938e88" opacity="0.16"/><circle cx="395.0" cy="310.6" r="2.2" fill="#938e88" opacity="0.22"/><circle cx="409.8" cy="324.5" r="2.8" fill="#938e88" opacity="0.29"/><circle cx="537.0" cy="362.3" r="2.2" fill="#938e88" opacity="0.35"/><circle cx="332.4" cy="481.6" r="2.0" fill="#938e88" opacity="0.49"/><circle cx="526.6" cy="574.7" r="2.2" fill="#938e88" opacity="0.38"/><circle cx="339.0" cy="264.9" r="2.2" fill="#938e88" opacity="0.31"/><circle cx="326.4" cy="324.5" r="1.0" fill="#938e88" opacity="0.18"/><circle cx="235.2" cy="312.0" r="2.4" fill="#938e88" opacity="0.43"/><circle cx="254.1" cy="339.7" r="1.5" fill="#938e88" opacity="0.20"/><circle cx="442.8" cy="428.3" r="2.8" fill="#938e88" opacity="0.39"/><circle cx="298.2" cy="587.2" r="1.0" fill="#938e88" opacity="0.29"/><circle cx="235.8" cy="433.5" r="3.1" fill="#938e88" opacity="0.45"/><circle cx="396.5" cy="512.1" r="1.1" fill="#938e88" opacity="0.38"/><circle cx="392.8" cy="402.0" r="2.4" fill="#938e88" opacity="0.33"/><circle cx="475.9" cy="445.1" r="2.9" fill="#938e88" opacity="0.45"/><circle cx="381.1" cy="435.8" r="2.7" fill="#938e88" opacity="0.47"/><circle cx="409.7" cy="223.7" r="3.0" fill="#938e88" opacity="0.27"/><circle cx="424.0" cy="507.6" r="2.5" fill="#938e88" opacity="0.37"/><circle cx="430.3" cy="418.0" r="2.6" fill="#938e88" opacity="0.35"/><circle cx="284.9" cy="358.0" r="2.5" fill="#938e88" opacity="0.36"/><circle cx="255.1" cy="210.1" r="2.0" fill="#938e88" opacity="0.22"/><circle cx="307.0" cy="501.6" r="1.1" fill="#938e88" opacity="0.43"/><circle cx="547.6" cy="455.7" r="3.0" fill="#938e88" opacity="0.19"/><circle cx="582.2" cy="571.0" r="1.9" fill="#938e88" opacity="0.17"/><circle cx="290.1" cy="456.5" r="1.9" fill="#938e88" opacity="0.25"/><circle cx="233.3" cy="414.8" r="1.5" fill="#938e88" opacity="0.19"/><circle cx="347.7" cy="483.3" r="2.1" fill="#938e88" opacity="0.48"/><circle cx="516.2" cy="419.9" r="2.3" fill="#938e88" opacity="0.35"/><circle cx="352.2" cy="231.7" r="2.7" fill="#938e88" opacity="0.29"/><circle cx="577.3" cy="415.1" r="1.9" fill="#938e88" opacity="0.25"/><circle cx="362.0" cy="291.1" r="3.0" fill="#938e88" opacity="0.31"/><circle cx="220.0" cy="211.2" r="1.2" fill="#938e88" opacity="0.39"/><circle cx="470.5" cy="395.9" r="0.9" fill="#938e88" opacity="0.22"/><circle cx="496.6" cy="544.3" r="1.0" fill="#938e88" opacity="0.45"/><circle cx="281.8" cy="487.1" r="1.4" fill="#938e88" opacity="0.37"/><circle cx="471.3" cy="423.8" r="2.7" fill="#938e88" opacity="0.44"/><circle cx="348.1" cy="243.8" r="2.6" fill="#938e88" opacity="0.35"/><circle cx="569.5" cy="298.6" r="2.7" fill="#938e88" opacity="0.42"/><circle cx="552.6" cy="464.4" r="1.0" fill="#938e88" opacity="0.48"/><circle cx="556.0" cy="296.0" r="1.7" fill="#938e88" opacity="0.27"/><circle cx="256.7" cy="374.0" r="1.4" fill="#938e88" opacity="0.21"/><circle cx="521.3" cy="570.0" r="2.1" fill="#938e88" opacity="0.43"/><circle cx="341.6" cy="318.6" r="2.8" fill="#938e88" opacity="0.46"/><circle cx="589.4" cy="378.8" r="1.6" fill="#938e88" opacity="0.18"/><circle cx="441.7" cy="396.8" r="1.7" fill="#938e88" opacity="0.22"/><circle cx="385.6" cy="352.8" r="1.8" fill="#938e88" opacity="0.26"/><circle cx="308.8" cy="582.5" r="1.2" fill="#938e88" opacity="0.38"/><circle cx="245.2" cy="243.6" r="2.9" fill="#938e88" opacity="0.38"/><circle cx="362.6" cy="447.3" r="2.8" fill="#938e88" opacity="0.32"/><circle cx="430.1" cy="481.0" r="1.0" fill="#938e88" opacity="0.28"/><circle cx="224.8" cy="508.9" r="2.9" fill="#938e88" opacity="0.43"/><circle cx="400.2" cy="308.9" r="1.2" fill="#938e88" opacity="0.31"/><circle cx="555.2" cy="575.9" r="1.6" fill="#938e88" opacity="0.34"/><circle cx="364.2" cy="247.9" r="1.0" fill="#938e88" opacity="0.47"/><circle cx="475.7" cy="300.1" r="2.9" fill="#938e88" opacity="0.38"/><circle cx="395.5" cy="230.0" r="1.2" fill="#938e88" opacity="0.21"/></g><circle cx="400" cy="400" r="136.79999999999998" fill="#e0dcd4" opacity=".6"/><circle cx="400" cy="400" r="125.4" fill="#f7f3eb"/></g><g transform="translate(250 550) scale(0.7) translate(-400 -400)"><path d="M445,350 C565,330 565,470 435,455" fill="none" stroke="#d5d1c9" stroke-width="40" stroke-linecap="round"/><circle cx="360" cy="400" r="105" fill="url(#g123)"/><g clip-path="url(#c123)"><circle cx="255.2" cy="470.7" r="2.5" fill="#938e88" opacity="0.40"/><circle cx="295.8" cy="300.6" r="0.9" fill="#938e88" opacity="0.46"/><circle cx="454.5" cy="429.5" r="1.1" fill="#938e88" opacity="0.32"/><circle cx="331.3" cy="384.3" r="2.7" fill="#938e88" opacity="0.43"/><circle cx="445.5" cy="501.9" r="1.0" fill="#938e88" opacity="0.34"/><circle cx="347.0" cy="485.5" r="1.7" fill="#938e88" opacity="0.18"/><circle cx="320.0" cy="388.8" r="2.6" fill="#938e88" opacity="0.40"/><circle cx="307.1" cy="453.0" r="2.0" fill="#938e88" opacity="0.35"/><circle cx="379.7" cy="310.8" r="1.4" fill="#938e88" opacity="0.15"/><circle cx="460.3" cy="467.3" r="2.8" fill="#938e88" opacity="0.42"/><circle cx="385.4" cy="456.0" r="2.0" fill="#938e88" opacity="0.30"/><circle cx="337.8" cy="358.8" r="2.7" fill="#938e88" opacity="0.23"/><circle cx="445.4" cy="475.7" r="1.1" fill="#938e88" opacity="0.20"/><circle cx="346.4" cy="334.5" r="3.0" fill="#938e88" opacity="0.26"/><circle cx="312.6" cy="484.0" r="1.7" fill="#938e88" opacity="0.41"/><circle cx="422.1" cy="416.6" r="1.1" fill="#938e88" opacity="0.44"/><circle cx="315.9" cy="343.1" r="1.0" fill="#938e88" opacity="0.36"/><circle cx="320.9" cy="387.4" r="1.1" fill="#938e88" opacity="0.21"/><circle cx="353.0" cy="498.4" r="2.7" fill="#938e88" opacity="0.31"/><circle cx="348.5" cy="381.3" r="1.9" fill="#938e88" opacity="0.36"/><circle cx="456.7" cy="304.8" r="0.9" fill="#938e88" opacity="0.19"/><circle cx="283.5" cy="417.1" r="1.4" fill="#938e88" opacity="0.45"/><circle cx="450.4" cy="449.8" r="2.7" fill="#938e88" opacity="0.22"/><circle cx="450.3" cy="441.8" r="2.3" fill="#938e88" opacity="0.25"/><circle cx="411.7" cy="444.8" r="1.9" fill="#938e88" opacity="0.21"/><circle cx="417.7" cy="482.6" r="2.6" fill="#938e88" opacity="0.44"/><circle cx="397.0" cy="331.1" r="2.4" fill="#938e88" opacity="0.23"/><circle cx="341.0" cy="464.1" r="1.5" fill="#938e88" opacity="0.42"/><circle cx="462.2" cy="298.0" r="3.0" fill="#938e88" opacity="0.42"/><circle cx="349.6" cy="343.8" r="1.9" fill="#938e88" opacity="0.39"/><circle cx="390.8" cy="325.9" r="1.7" fill="#938e88" opacity="0.16"/><circle cx="347.4" cy="475.0" r="1.0" fill="#938e88" opacity="0.40"/><circle cx="287.5" cy="430.5" r="2.1" fill="#938e88" opacity="0.31"/><circle cx="306.0" cy="339.6" r="1.7" fill="#938e88" opacity="0.37"/><circle cx="458.0" cy="480.7" r="1.2" fill="#938e88" opacity="0.23"/><circle cx="367.1" cy="356.4" r="1.3" fill="#938e88" opacity="0.49"/><circle cx="436.2" cy="362.6" r="1.2" fill="#938e88" opacity="0.26"/><circle cx="312.2" cy="406.3" r="1.8" fill="#938e88" opacity="0.16"/><circle cx="282.7" cy="414.5" r="2.8" fill="#938e88" opacity="0.34"/><circle cx="301.0" cy="370.7" r="2.1" fill="#938e88" opacity="0.43"/><circle cx="407.0" cy="501.5" r="2.7" fill="#938e88" opacity="0.16"/><circle cx="387.7" cy="382.0" r="2.2" fill="#938e88" opacity="0.21"/><circle cx="313.4" cy="404.2" r="2.6" fill="#938e88" opacity="0.28"/><circle cx="422.6" cy="454.9" r="1.1" fill="#938e88" opacity="0.42"/><circle cx="337.2" cy="356.7" r="1.4" fill="#938e88" opacity="0.25"/><circle cx="410.2" cy="482.8" r="2.1" fill="#938e88" opacity="0.24"/><circle cx="341.2" cy="410.9" r="3.1" fill="#938e88" opacity="0.27"/><circle cx="258.4" cy="334.9" r="1.6" fill="#938e88" opacity="0.42"/><circle cx="433.6" cy="431.1" r="2.5" fill="#938e88" opacity="0.21"/><circle cx="417.8" cy="503.0" r="1.4" fill="#938e88" opacity="0.35"/><circle cx="294.8" cy="480.3" r="1.7" fill="#938e88" opacity="0.21"/><circle cx="457.1" cy="301.8" r="2.6" fill="#938e88" opacity="0.45"/><circle cx="305.3" cy="504.1" r="2.7" fill="#938e88" opacity="0.22"/><circle cx="323.2" cy="380.6" r="1.5" fill="#938e88" opacity="0.36"/><circle cx="358.4" cy="386.7" r="2.9" fill="#938e88" opacity="0.31"/><circle cx="341.5" cy="336.7" r="1.6" fill="#938e88" opacity="0.27"/><circle cx="321.8" cy="417.8" r="1.9" fill="#938e88" opacity="0.26"/><circle cx="369.0" cy="364.1" r="2.7" fill="#938e88" opacity="0.47"/><circle cx="386.3" cy="466.6" r="2.3" fill="#938e88" opacity="0.37"/><circle cx="378.5" cy="314.1" r="1.8" fill="#938e88" opacity="0.46"/><circle cx="429.8" cy="354.8" r="2.7" fill="#938e88" opacity="0.24"/><circle cx="410.4" cy="310.6" r="2.8" fill="#938e88" opacity="0.38"/><circle cx="402.5" cy="482.5" r="1.0" fill="#938e88" opacity="0.19"/><circle cx="462.7" cy="315.8" r="2.8" fill="#938e88" opacity="0.31"/><circle cx="330.4" cy="318.5" r="1.5" fill="#938e88" opacity="0.17"/><circle cx="410.8" cy="310.7" r="1.1" fill="#938e88" opacity="0.31"/><circle cx="421.5" cy="417.9" r="1.7" fill="#938e88" opacity="0.27"/><circle cx="333.9" cy="456.6" r="2.8" fill="#938e88" opacity="0.25"/><circle cx="444.3" cy="391.5" r="2.2" fill="#938e88" opacity="0.27"/><circle cx="347.2" cy="365.3" r="1.0" fill="#938e88" opacity="0.19"/><circle cx="428.8" cy="389.2" r="2.1" fill="#938e88" opacity="0.45"/><circle cx="305.2" cy="489.2" r="1.9" fill="#938e88" opacity="0.49"/><circle cx="450.2" cy="429.5" r="0.9" fill="#938e88" opacity="0.22"/><circle cx="350.7" cy="487.7" r="2.9" fill="#938e88" opacity="0.15"/><circle cx="272.8" cy="346.2" r="1.1" fill="#938e88" opacity="0.41"/><circle cx="280.0" cy="374.0" r="2.4" fill="#938e88" opacity="0.18"/><circle cx="302.1" cy="415.1" r="1.0" fill="#938e88" opacity="0.43"/><circle cx="376.5" cy="301.7" r="2.2" fill="#938e88" opacity="0.27"/><circle cx="444.1" cy="350.1" r="1.3" fill="#938e88" opacity="0.49"/><circle cx="320.1" cy="441.2" r="1.1" fill="#938e88" opacity="0.19"/></g><circle cx="360" cy="400" r="81" fill="#847f79"/><circle cx="360" cy="404" r="61" fill="#6e6863"/></g><g transform="translate(550 270) scale(0.7) translate(-400 -400)"><path d="M445,350 C565,330 565,470 435,455" fill="none" stroke="#d5d1c9" stroke-width="40" stroke-linecap="round"/><circle cx="360" cy="400" r="105" fill="url(#g124)"/><g clip-path="url(#c124)"><circle cx="255.2" cy="409.8" r="2.1" fill="#938e88" opacity="0.38"/><circle cx="280.2" cy="478.4" r="2.3" fill="#938e88" opacity="0.40"/><circle cx="419.0" cy="461.3" r="1.0" fill="#938e88" opacity="0.23"/><circle cx="289.9" cy="478.7" r="2.1" fill="#938e88" opacity="0.39"/><circle cx="387.7" cy="312.9" r="1.0" fill="#938e88" opacity="0.30"/><circle cx="436.8" cy="470.3" r="1.0" fill="#938e88" opacity="0.22"/><circle cx="320.0" cy="357.4" r="3.0" fill="#938e88" opacity="0.22"/><circle cx="392.7" cy="477.3" r="1.7" fill="#938e88" opacity="0.31"/><circle cx="256.2" cy="440.4" r="2.6" fill="#938e88" opacity="0.25"/><circle cx="297.4" cy="432.3" r="2.5" fill="#938e88" opacity="0.33"/><circle cx="429.8" cy="408.3" r="2.8" fill="#938e88" opacity="0.23"/><circle cx="436.5" cy="347.2" r="1.0" fill="#938e88" opacity="0.41"/><circle cx="349.9" cy="407.1" r="1.0" fill="#938e88" opacity="0.28"/><circle cx="365.5" cy="455.0" r="2.3" fill="#938e88" opacity="0.32"/><circle cx="380.8" cy="414.6" r="1.3" fill="#938e88" opacity="0.34"/><circle cx="371.8" cy="323.9" r="2.6" fill="#938e88" opacity="0.49"/><circle cx="279.5" cy="431.6" r="2.0" fill="#938e88" opacity="0.43"/><circle cx="388.3" cy="378.7" r="2.2" fill="#938e88" opacity="0.21"/><circle cx="269.4" cy="473.1" r="2.4" fill="#938e88" opacity="0.32"/><circle cx="397.4" cy="308.0" r="1.7" fill="#938e88" opacity="0.36"/><circle cx="406.7" cy="437.1" r="1.4" fill="#938e88" opacity="0.18"/><circle cx="343.8" cy="455.8" r="2.7" fill="#938e88" opacity="0.25"/><circle cx="448.9" cy="355.6" r="2.8" fill="#938e88" opacity="0.22"/><circle cx="358.6" cy="373.0" r="1.6" fill="#938e88" opacity="0.25"/><circle cx="276.7" cy="432.1" r="3.0" fill="#938e88" opacity="0.35"/><circle cx="414.6" cy="500.0" r="2.0" fill="#938e88" opacity="0.20"/><circle cx="396.6" cy="421.7" r="1.2" fill="#938e88" opacity="0.38"/><circle cx="330.1" cy="355.0" r="2.4" fill="#938e88" opacity="0.33"/><circle cx="296.2" cy="419.7" r="1.1" fill="#938e88" opacity="0.40"/><circle cx="365.7" cy="504.6" r="2.6" fill="#938e88" opacity="0.29"/><circle cx="429.2" cy="445.6" r="1.8" fill="#938e88" opacity="0.30"/><circle cx="420.8" cy="312.8" r="1.4" fill="#938e88" opacity="0.44"/><circle cx="361.3" cy="457.3" r="1.0" fill="#938e88" opacity="0.48"/><circle cx="296.4" cy="309.7" r="1.8" fill="#938e88" opacity="0.38"/><circle cx="352.3" cy="463.5" r="2.6" fill="#938e88" opacity="0.23"/><circle cx="298.1" cy="444.7" r="1.8" fill="#938e88" opacity="0.46"/><circle cx="390.7" cy="428.6" r="3.1" fill="#938e88" opacity="0.38"/><circle cx="370.5" cy="479.9" r="1.8" fill="#938e88" opacity="0.33"/><circle cx="416.8" cy="329.8" r="0.9" fill="#938e88" opacity="0.40"/><circle cx="436.9" cy="468.6" r="2.3" fill="#938e88" opacity="0.23"/><circle cx="453.6" cy="332.1" r="2.8" fill="#938e88" opacity="0.38"/><circle cx="255.2" cy="323.6" r="1.2" fill="#938e88" opacity="0.16"/><circle cx="380.1" cy="474.4" r="2.0" fill="#938e88" opacity="0.46"/><circle cx="464.3" cy="477.7" r="0.9" fill="#938e88" opacity="0.33"/><circle cx="398.0" cy="305.6" r="1.8" fill="#938e88" opacity="0.22"/><circle cx="314.4" cy="457.6" r="1.0" fill="#938e88" opacity="0.28"/><circle cx="440.2" cy="368.5" r="2.7" fill="#938e88" opacity="0.21"/><circle cx="311.2" cy="375.1" r="1.9" fill="#938e88" opacity="0.27"/><circle cx="392.7" cy="353.0" r="2.1" fill="#938e88" opacity="0.21"/><circle cx="285.0" cy="340.4" r="3.0" fill="#938e88" opacity="0.25"/><circle cx="285.7" cy="297.3" r="1.3" fill="#938e88" opacity="0.35"/><circle cx="261.1" cy="461.7" r="2.6" fill="#938e88" opacity="0.34"/><circle cx="377.7" cy="374.4" r="1.6" fill="#938e88" opacity="0.36"/><circle cx="264.5" cy="482.8" r="2.1" fill="#938e88" opacity="0.47"/><circle cx="444.3" cy="425.5" r="2.2" fill="#938e88" opacity="0.39"/><circle cx="450.4" cy="299.9" r="1.6" fill="#938e88" opacity="0.22"/><circle cx="379.4" cy="492.6" r="1.2" fill="#938e88" opacity="0.21"/><circle cx="283.8" cy="346.5" r="1.1" fill="#938e88" opacity="0.32"/><circle cx="401.3" cy="426.6" r="2.0" fill="#938e88" opacity="0.33"/><circle cx="336.9" cy="481.8" r="2.0" fill="#938e88" opacity="0.35"/><circle cx="316.3" cy="295.3" r="2.9" fill="#938e88" opacity="0.41"/><circle cx="357.3" cy="468.1" r="2.8" fill="#938e88" opacity="0.38"/><circle cx="443.8" cy="485.1" r="1.1" fill="#938e88" opacity="0.19"/><circle cx="264.0" cy="411.4" r="0.9" fill="#938e88" opacity="0.46"/><circle cx="303.7" cy="496.4" r="3.0" fill="#938e88" opacity="0.48"/><circle cx="456.1" cy="473.0" r="1.6" fill="#938e88" opacity="0.33"/><circle cx="407.2" cy="456.6" r="1.2" fill="#938e88" opacity="0.19"/><circle cx="345.2" cy="468.1" r="1.4" fill="#938e88" opacity="0.36"/><circle cx="458.6" cy="496.4" r="2.2" fill="#938e88" opacity="0.17"/><circle cx="368.0" cy="405.2" r="2.1" fill="#938e88" opacity="0.42"/><circle cx="328.4" cy="420.1" r="1.0" fill="#938e88" opacity="0.37"/><circle cx="341.4" cy="417.1" r="1.4" fill="#938e88" opacity="0.20"/><circle cx="410.9" cy="492.4" r="2.6" fill="#938e88" opacity="0.23"/><circle cx="317.8" cy="349.8" r="2.9" fill="#938e88" opacity="0.27"/><circle cx="451.7" cy="399.0" r="1.2" fill="#938e88" opacity="0.17"/><circle cx="290.7" cy="329.6" r="1.8" fill="#938e88" opacity="0.26"/><circle cx="456.2" cy="368.2" r="0.9" fill="#938e88" opacity="0.48"/><circle cx="397.1" cy="412.3" r="2.0" fill="#938e88" opacity="0.21"/><circle cx="276.3" cy="485.4" r="1.9" fill="#938e88" opacity="0.19"/><circle cx="290.6" cy="462.6" r="1.8" fill="#938e88" opacity="0.25"/></g><circle cx="360" cy="400" r="81" fill="#847f79"/><circle cx="360" cy="404" r="61" fill="#6e6863"/></g>
</svg>