<svg xmlns="http://www.w3.org/2000/svg" viewBox="140 220 520 520" width="800" height="800" role="img" aria-hidden="true">
<defs><filter id="blur" x="-20%" y="-50%" width="140%" height="200%"><feGaussianBlur stdDeviation="9"/></filter><linearGradient id="g132" x1="0" x2="1"><stop offset="0" stop-color="#363536"/><stop offset=".28" stop-color="#555558"/><stop offset=".55" stop-color="#3E3E41"/><stop offset="1" stop-color="#333132"/></linearGradient>
<linearGradient id="v132" x1="0" y1="0" x2="0" y2="1"><stop offset="0" stop-color="#515154"/><stop offset="1" stop-color="#383638"/></linearGradient><clipPath id="c132"><path d="M240,430 C254,630 360,650 400,650 C440,650 546,630 560,430 Z"/></clipPath><linearGradient id="g133" x1="0" x2="1"><stop offset="0" stop-color="#363536"/><stop offset=".28" stop-color="#555558"/><stop offset=".55" stop-color="#3E3E41"/><stop offset="1" stop-color="#333132"/></linearGradient>
<linearGradient id="v133" x1="0" y1="0" x2="0" y2="1"><stop offset="0" stop-color="#515154"/><stop offset="1" stop-color="#383638"/></linearGradient><clipPath id="c133"><path d="M240,430 C254,630 360,650 400,650 C440,650 546,630 560,430 Z"/></clipPath><linearGradient id="g131" x1="0" x2="1"><stop offset="0" stop-color="#363536"/><stop offset=".28" stop-color="#555558"/><stop offset=".55" stop-color="#3E3E41"/><stop offset="1" stop-color="#333132"/></linearGradient>
<linearGradient id="v131" x1="0" y1="0" x2="0" y2="1"><stop offset="0" stop-color="#515154"/><stop offset="1" stop-color="#383638"/></linearGradient><clipPath id="c131"><path d="M362,190 L438,190 C438,300 570,330 570,480 C570,590 490,650 400,650 C310,650 230,590 230,480 C230,330 362,300 362,190 Z"/></clipPath></defs>
<rect x="0" y="0" width="800" height="800" fill="#EFE8DD"/><rect y="610" width="800" height="190" fill="#E3D9CB"/>
<ellipse cx="145" cy="656" rx="101" ry="12" fill="#5b4a38" opacity=".22" filter="url(#blur)"/><ellipse cx="655" cy="656" rx="101" ry="12" fill="#5b4a38" opacity=".22" filter="url(#blur)"/><ellipse cx="400" cy="656" rx="165" ry="19" fill="#5b4a38" opacity=".22" filter="url(#blur)"/><g transform="translate(145 650) scale(0.62) translate(-400 -650)"><path d="M240,430 C254,630 360,650 400,650 C440,650 546,630 560,430 Z" fill="url(#g132)"/><g clip-path="url(#c132)"><circle cx="240.3" cy="527.3" r="1.9" fill="#86868A" opacity="0.27"/><circle cx="430.7" cy="511.4" r="2.8" fill="#86868A" opacity="0.45"/><circle cx="531.9" cy="614.1" r="2.9" fill="#86868A" opacity="0.47"/><circle cx="518.6" cy="500.7" r="2.4" fill="#86868A" opacity="0.22"/><circle cx="526.0" cy="641.7" r="2.9" fill="#86868A" opacity="0.27"/><circle cx="299.4" cy="616.2" r="2.2" fill="#86868A" opacity="0.26"/><circle cx="486.7" cy="620.5" r="2.0" fill="#86868A" opacity="0.41"/><circle cx="560.0" cy="572.7" r="2.6" fill="#86868A" opacity="0.25"/><circle cx="498.1" cy="635.3" r="0.9" fill="#86868A" opacity="0.16"/><circle cx="265.5" cy="551.3" r="2.8" fill="#86868A" opacity="0.38"/><circle cx="521.6" cy="610.1" r="1.6" fill="#86868A" opacity="0.21"/><circle cx="380.7" cy="448.9" r="3.0" fill="#86868A" opacity="0.36"/><circle cx="268.4" cy="551.3" r="2.7" fill="#86868A" opacity="0.40"/><circle cx="471.0" cy="509.9" r="2.9" fill="#86868A" opacity="0.43"/><circle cx="500.7" cy="475.5" r="2.3" fill="#86868A" opacity="0.35"/><circle cx="266.1" cy="444.4" r="2.1" fill="#86868A" opacity="0.46"/><circle cx="345.7" cy="594.4" r="1.5" fill="#86868A" opacity="0.27"/><circle cx="390.6" cy="478.1" r="2.2" fill="#86868A" opacity="0.16"/><circle cx="443.3" cy="480.0" r="1.4" fill="#86868A" opacity="0.17"/><circle cx="439.2" cy="487.3" r="1.3" fill="#86868A" opacity="0.25"/><circle cx="392.7" cy="577.5" r="3.0" fill="#86868A" opacity="0.17"/><circle cx="409.9" cy="582.4" r="0.9" fill="#86868A" opacity="0.39"/><circle cx="538.3" cy="445.7" r="1.2" fill="#86868A" opacity="0.25"/><circle cx="520.6" cy="465.0" r="2.8" fill="#86868A" opacity="0.41"/><circle cx="403.2" cy="471.5" r="2.3" fill="#86868A" opacity="0.47"/><circle cx="292.2" cy="537.7" r="2.9" fill="#86868A" opacity="0.25"/><circle cx="308.8" cy="530.5" r="1.5" fill="#86868A" opacity="0.20"/><circle cx="498.0" cy="498.2" r="1.8" fill="#86868A" opacity="0.34"/><circle cx="343.4" cy="505.3" r="1.1" fill="#86868A" opacity="0.24"/><circle cx="550.7" cy="560.7" r="1.6" fill="#86868A" opacity="0.26"/><circle cx="359.6" cy="501.2" r="1.7" fill="#86868A" opacity="0.43"/><circle cx="355.1" cy="590.0" r="1.4" fill="#86868A" opacity="0.50"/><circle cx="435.8" cy="582.3" r="2.8" fill="#86868A" opacity="0.33"/><circle cx="493.4" cy="467.0" r="1.4" fill="#86868A" opacity="0.31"/><circle cx="389.6" cy="527.2" r="1.8" fill="#86868A" opacity="0.39"/><circle cx="484.3" cy="523.7" r="2.0" fill="#86868A" opacity="0.33"/><circle cx="532.2" cy="451.1" r="2.5" fill="#86868A" opacity="0.36"/><circle cx="405.1" cy="444.2" r="0.9" fill="#86868A" opacity="0.20"/><circle cx="481.2" cy="643.3" r="2.9" fill="#86868A" opacity="0.38"/><circle cx="508.5" cy="519.5" r="2.4" fill="#86868A" opacity="0.28"/><circle cx="553.7" cy="551.9" r="2.3" fill="#86868A" opacity="0.29"/><circle cx="415.0" cy="586.0" r="1.6" fill="#86868A" opacity="0.41"/><circle cx="379.5" cy="493.6" r="1.8" fill="#86868A" opacity="0.40"/><circle cx="406.9" cy="490.5" r="2.8" fill="#86868A" opacity="0.38"/><circle cx="442.3" cy="625.5" r="2.8" fill="#86868A" opacity="0.47"/><circle cx="461.0" cy="548.3" r="1.1" fill="#86868A" opacity="0.31"/><circle cx="385.8" cy="629.3" r="3.0" fill="#86868A" opacity="0.37"/><circle cx="325.0" cy="563.6" r="2.9" fill="#86868A" opacity="0.24"/><circle cx="255.7" cy="472.9" r="1.9" fill="#86868A" opacity="0.42"/><circle cx="534.7" cy="450.3" r="2.9" fill="#86868A" opacity="0.18"/><circle cx="279.2" cy="600.7" r="1.7" fill="#86868A" opacity="0.26"/><circle cx="370.8" cy="466.2" r="1.3" fill="#86868A" opacity="0.26"/><circle cx="537.4" cy="595.8" r="1.1" fill="#86868A" opacity="0.35"/><circle cx="241.5" cy="478.1" r="2.3" fill="#86868A" opacity="0.31"/><circle cx="268.8" cy="499.7" r="2.5" fill="#86868A" opacity="0.29"/><circle cx="481.2" cy="567.2" r="2.9" fill="#86868A" opacity="0.20"/><circle cx="296.9" cy="455.9" r="1.9" fill="#86868A" opacity="0.24"/><circle cx="542.2" cy="557.4" r="1.4" fill="#86868A" opacity="0.24"/><circle cx="557.9" cy="517.9" r="1.5" fill="#86868A" opacity="0.38"/><circle cx="541.3" cy="595.6" r="1.9" fill="#86868A" opacity="0.27"/><circle cx="300.2" cy="642.5" r="1.9" fill="#86868A" opacity="0.44"/><circle cx="446.3" cy="526.8" r="2.8" fill="#86868A" opacity="0.22"/><circle cx="499.5" cy="439.6" r="1.0" fill="#86868A" opacity="0.19"/><circle cx="454.1" cy="631.7" r="2.9" fill="#86868A" opacity="0.23"/><circle cx="339.8" cy="445.5" r="2.3" fill="#86868A" opacity="0.34"/><circle cx="436.8" cy="559.5" r="2.7" fill="#86868A" opacity="0.23"/><circle cx="400.2" cy="583.2" r="2.5" fill="#86868A" opacity="0.39"/><circle cx="282.4" cy="562.6" r="0.9" fill="#86868A" opacity="0.31"/><circle cx="474.1" cy="573.4" r="2.0" fill="#86868A" opacity="0.33"/><circle cx="274.6" cy="646.3" r="2.7" fill="#86868A" opacity="0.24"/><circle cx="318.7" cy="521.2" r="3.0" fill="#86868A" opacity="0.47"/><circle cx="402.2" cy="532.5" r="1.0" fill="#86868A" opacity="0.42"/><circle cx="280.4" cy="454.2" r="2.1" fill="#86868A" opacity="0.40"/><circle cx="397.5" cy="462.1" r="1.3" fill="#86868A" opacity="0.40"/><circle cx="376.4" cy="504.7" r="0.9" fill="#86868A" opacity="0.27"/><circle cx="249.7" cy="455.9" r="2.4" fill="#86868A" opacity="0.21"/><circle cx="257.6" cy="601.0" r="1.7" fill="#86868A" opacity="0.45"/><circle cx="393.4" cy="579.5" r="1.6" fill="#86868A" opacity="0.42"/><circle cx="316.5" cy="539.7" r="1.3" fill="#86868A" opacity="0.46"/><circle cx="521.8" cy="476.4" r="2.3" fill="#86868A" opacity="0.33"/></g>
<ellipse cx="400" cy="430" rx="160" ry="40" fill="#5d5d5f"/><ellipse cx="400" cy="434" rx="146" ry="31" fill="#302d2d"/>
<path d="M276,500 Q290,580 360,620" fill="none" stroke="#fff" stroke-width="9" stroke-linecap="round" opacity=".18"/></g><g transform="translate(655 650) scale(0.62) translate(-400 -650)"><path d="M240,430 C254,630 360,650 400,650 C440,650 546,630 560,430 Z" fill="url(#g133)"/><g clip-path="url(#c133)"><circle cx="240.3" cy="463.5" r="1.5" fill="#86868A" opacity="0.25"/><circle cx="407.0" cy="477.6" r="2.0" fill="#86868A" opacity="0.39"/><circle cx="477.7" cy="647.3" r="2.9" fill="#86868A" opacity="0.39"/><circle cx="455.4" cy="599.6" r="1.7" fill="#86868A" opacity="0.18"/><circle cx="438.0" cy="443.7" r="2.9" fill="#86868A" opacity="0.23"/><circle cx="436.2" cy="600.4" r="1.5" fill="#86868A" opacity="0.29"/><circle cx="486.7" cy="587.6" r="2.4" fill="#86868A" opacity="0.23"/><circle cx="370.5" cy="598.1" r="2.3" fill="#86868A" opacity="0.21"/><circle cx="309.9" cy="551.0" r="2.2" fill="#86868A" opacity="0.25"/><circle cx="337.3" cy="514.6" r="2.6" fill="#86868A" opacity="0.30"/><circle cx="269.2" cy="560.2" r="2.5" fill="#86868A" opacity="0.49"/><circle cx="531.1" cy="436.7" r="1.2" fill="#86868A" opacity="0.18"/><circle cx="442.9" cy="479.5" r="2.6" fill="#86868A" opacity="0.47"/><circle cx="500.1" cy="636.2" r="2.2" fill="#86868A" opacity="0.49"/><circle cx="284.6" cy="622.8" r="1.9" fill="#86868A" opacity="0.28"/><circle cx="509.5" cy="567.3" r="1.4" fill="#86868A" opacity="0.16"/><circle cx="290.1" cy="467.1" r="2.5" fill="#86868A" opacity="0.33"/><circle cx="493.3" cy="469.0" r="1.1" fill="#86868A" opacity="0.15"/><circle cx="315.9" cy="453.5" r="1.1" fill="#86868A" opacity="0.18"/><circle cx="513.7" cy="630.5" r="1.1" fill="#86868A" opacity="0.25"/><circle cx="316.4" cy="496.1" r="1.3" fill="#86868A" opacity="0.15"/><circle cx="501.8" cy="622.9" r="2.2" fill="#86868A" opacity="0.19"/><circle cx="536.1" cy="567.1" r="1.3" fill="#86868A" opacity="0.25"/><circle cx="380.8" cy="613.0" r="2.1" fill="#86868A" opacity="0.41"/><circle cx="517.5" cy="458.3" r="1.2" fill="#86868A" opacity="0.26"/><circle cx="287.3" cy="556.0" r="2.3" fill="#86868A" opacity="0.36"/><circle cx="308.3" cy="625.4" r="2.5" fill="#86868A" opacity="0.35"/><circle cx="481.3" cy="603.9" r="2.7" fill="#86868A" opacity="0.24"/><circle cx="410.4" cy="632.8" r="1.4" fill="#86868A" opacity="0.22"/><circle cx="255.3" cy="509.1" r="2.3" fill="#86868A" opacity="0.50"/><circle cx="418.1" cy="626.5" r="1.8" fill="#86868A" opacity="0.21"/><circle cx="466.9" cy="640.1" r="1.8" fill="#86868A" opacity="0.19"/><circle cx="548.4" cy="610.5" r="1.8" fill="#86868A" opacity="0.49"/><circle cx="478.8" cy="435.7" r="1.4" fill="#86868A" opacity="0.33"/><circle cx="548.6" cy="509.1" r="0.9" fill="#86868A" opacity="0.39"/><circle cx="379.2" cy="616.2" r="2.5" fill="#86868A" opacity="0.31"/><circle cx="462.8" cy="520.2" r="2.1" fill="#86868A" opacity="0.48"/><circle cx="493.9" cy="521.3" r="1.0" fill="#86868A" opacity="0.37"/><circle cx="365.5" cy="554.6" r="1.0" fill="#86868A" opacity="0.44"/><circle cx="395.6" cy="622.1" r="2.6" fill="#86868A" opacity="0.44"/><circle cx="304.7" cy="594.5" r="2.5" fill="#86868A" opacity="0.17"/><circle cx="533.0" cy="524.8" r="2.8" fill="#86868A" opacity="0.36"/><circle cx="481.0" cy="567.1" r="1.1" fill="#86868A" opacity="0.23"/><circle cx="470.4" cy="514.3" r="2.7" fill="#86868A" opacity="0.30"/><circle cx="535.0" cy="571.9" r="1.0" fill="#86868A" opacity="0.44"/><circle cx="315.0" cy="521.8" r="2.3" fill="#86868A" opacity="0.35"/><circle cx="536.7" cy="584.9" r="2.6" fill="#86868A" opacity="0.30"/><circle cx="405.5" cy="605.7" r="1.0" fill="#86868A" opacity="0.44"/><circle cx="513.4" cy="611.2" r="1.6" fill="#86868A" opacity="0.43"/><circle cx="332.4" cy="499.9" r="2.3" fill="#86868A" opacity="0.43"/><circle cx="265.4" cy="629.0" r="1.4" fill="#86868A" opacity="0.40"/><circle cx="392.1" cy="633.6" r="1.2" fill="#86868A" opacity="0.50"/><circle cx="327.6" cy="459.9" r="2.2" fill="#86868A" opacity="0.49"/><circle cx="472.1" cy="585.1" r="3.0" fill="#86868A" opacity="0.42"/><circle cx="399.8" cy="540.4" r="1.7" fill="#86868A" opacity="0.37"/><circle cx="327.1" cy="528.6" r="2.9" fill="#86868A" opacity="0.50"/><circle cx="384.7" cy="534.3" r="1.2" fill="#86868A" opacity="0.19"/><circle cx="412.3" cy="539.0" r="2.0" fill="#86868A" opacity="0.44"/><circle cx="260.8" cy="476.0" r="1.2" fill="#86868A" opacity="0.34"/><circle cx="477.9" cy="551.3" r="2.1" fill="#86868A" opacity="0.16"/><circle cx="447.2" cy="580.1" r="2.0" fill="#86868A" opacity="0.26"/><circle cx="365.4" cy="471.7" r="2.8" fill="#86868A" opacity="0.22"/><circle cx="242.4" cy="442.4" r="1.1" fill="#86868A" opacity="0.19"/><circle cx="471.2" cy="511.9" r="1.0" fill="#86868A" opacity="0.38"/><circle cx="298.9" cy="631.9" r="1.6" fill="#86868A" opacity="0.30"/><circle cx="505.9" cy="509.6" r="1.0" fill="#86868A" opacity="0.25"/><circle cx="378.5" cy="623.8" r="2.0" fill="#86868A" opacity="0.31"/><circle cx="299.6" cy="574.7" r="1.8" fill="#86868A" opacity="0.42"/><circle cx="495.9" cy="463.4" r="2.0" fill="#86868A" opacity="0.22"/><circle cx="306.4" cy="468.1" r="1.5" fill="#86868A" opacity="0.48"/><circle cx="485.6" cy="553.6" r="1.9" fill="#86868A" opacity="0.39"/><circle cx="457.4" cy="456.9" r="2.7" fill="#86868A" opacity="0.48"/><circle cx="540.6" cy="520.1" r="1.6" fill="#86868A" opacity="0.42"/><circle cx="347.3" cy="537.6" r="1.4" fill="#86868A" opacity="0.16"/><circle cx="329.2" cy="560.0" r="1.0" fill="#86868A" opacity="0.39"/><circle cx="266.1" cy="629.3" r="1.7" fill="#86868A" opacity="0.29"/><circle cx="492.4" cy="551.9" r="1.6" fill="#86868A" opacity="0.50"/><circle cx="424.7" cy="475.4" r="1.4" fill="#86868A" opacity="0.36"/><circle cx="380.7" cy="461.3" r="2.0" fill="#86868A" opacity="0.15"/><circle cx="476.9" cy="498.8" r="3.0" fill="#86868A" opacity="0.40"/></g>
<ellipse cx="400" cy="430" rx="160" ry="40" fill="#5d5d5f"/><ellipse cx="400" cy="434" rx="146" ry="31" fill="#302d2d"/>
<path d="M276,500 Q290,580 360,620" fill="none" stroke="#fff" stroke-width="9" stroke-linecap="round" opacity=".18"/></g><g transform="translate(400 650) scale(0.85) translate(-400 -650)"><path d="M362,190 L438,190 C438,300 570,330 570,480 C570,590 490,650 400,650 C310,650 230,590 230,480 C230,330 362,300 362,190 Z" fill="url(#g131)"/><g clip-path="url(#c131)"><circle cx="230.3" cy="526.8" r="2.7" fill="#86868A" opacity="0.28"/><circle cx="457.8" cy="430.8" r="1.7" fill="#86868A" opacity="0.16"/><circle cx="257.6" cy="505.4" r="3.5" fill="#86868A" opacity="0.21"/><circle cx="253.2" cy="591.2" r="3.6" fill="#86868A" opacity="0.26"/><circle cx="287.4" cy="586.6" r="3.5" fill="#86868A" opacity="0.32"/><circle cx="487.9" cy="612.5" r="3.5" fill="#86868A" opacity="0.22"/><circle cx="492.0" cy="197.4" r="1.8" fill="#86868A" opacity="0.23"/><circle cx="431.3" cy="435.3" r="3.5" fill="#86868A" opacity="0.28"/><circle cx="364.2" cy="335.4" r="2.2" fill="#86868A" opacity="0.42"/><circle cx="520.9" cy="520.3" r="3.6" fill="#86868A" opacity="0.47"/><circle cx="457.2" cy="211.0" r="3.5" fill="#86868A" opacity="0.28"/><circle cx="559.8" cy="254.8" r="3.0" fill="#86868A" opacity="0.18"/><circle cx="414.8" cy="593.9" r="3.2" fill="#86868A" opacity="0.33"/><circle cx="444.5" cy="553.2" r="1.7" fill="#86868A" opacity="0.38"/><circle cx="396.6" cy="437.3" r="3.2" fill="#86868A" opacity="0.42"/><circle cx="339.2" cy="423.0" r="3.2" fill="#86868A" opacity="0.41"/><circle cx="401.3" cy="339.7" r="3.1" fill="#86868A" opacity="0.21"/><circle cx="280.9" cy="309.6" r="1.2" fill="#86868A" opacity="0.16"/><circle cx="241.3" cy="349.9" r="1.9" fill="#86868A" opacity="0.16"/><circle cx="362.5" cy="470.3" r="1.8" fill="#86868A" opacity="0.24"/><circle cx="473.3" cy="208.8" r="3.1" fill="#86868A" opacity="0.19"/><circle cx="312.9" cy="424.1" r="2.2" fill="#86868A" opacity="0.24"/><circle cx="549.4" cy="429.2" r="1.3" fill="#86868A" opacity="0.26"/><circle cx="336.7" cy="413.9" r="1.6" fill="#86868A" opacity="0.41"/><circle cx="282.0" cy="304.6" r="1.5" fill="#86868A" opacity="0.33"/><circle cx="290.5" cy="377.1" r="1.5" fill="#86868A" opacity="0.49"/><circle cx="303.7" cy="201.7" r="3.3" fill="#86868A" opacity="0.40"/><circle cx="521.8" cy="571.7" r="1.0" fill="#86868A" opacity="0.43"/><circle cx="268.6" cy="540.8" r="3.6" fill="#86868A" opacity="0.26"/><circle cx="533.9" cy="571.0" r="1.2" fill="#86868A" opacity="0.36"/><circle cx="294.9" cy="536.8" r="1.9" fill="#86868A" opacity="0.29"/><circle cx="233.4" cy="419.9" r="1.2" fill="#86868A" opacity="0.45"/><circle cx="318.5" cy="449.6" r="1.9" fill="#86868A" opacity="0.16"/><circle cx="514.8" cy="333.0" r="1.6" fill="#86868A" opacity="0.30"/><circle cx="560.1" cy="430.9" r="3.0" fill="#86868A" opacity="0.40"/><circle cx="261.3" cy="192.7" r="1.8" fill="#86868A" opacity="0.36"/><circle cx="274.3" cy="549.7" r="3.3" fill="#86868A" opacity="0.24"/><circle cx="311.0" cy="518.3" r="3.6" fill="#86868A" opacity="0.37"/><circle cx="269.3" cy="361.5" r="3.0" fill="#86868A" opacity="0.32"/><circle cx="295.2" cy="622.6" r="2.7" fill="#86868A" opacity="0.48"/><circle cx="487.8" cy="355.8" r="2.6" fill="#86868A" opacity="0.42"/><circle cx="290.5" cy="644.2" r="3.0" fill="#86868A" opacity="0.47"/><circle cx="270.3" cy="629.3" r="2.8" fill="#86868A" opacity="0.22"/><circle cx="340.0" cy="266.5" r="3.5" fill="#86868A" opacity="0.47"/><circle cx="346.4" cy="250.8" r="2.9" fill="#86868A" opacity="0.50"/><circle cx="279.9" cy="492.5" r="2.6" fill="#86868A" opacity="0.27"/><circle cx="564.7" cy="239.6" r="1.3" fill="#86868A" opacity="0.43"/><circle cx="234.8" cy="381.5" r="3.1" fill="#86868A" opacity="0.38"/><circle cx="313.0" cy="450.8" r="2.7" fill="#86868A" opacity="0.42"/><circle cx="418.1" cy="588.7" r="1.6" fill="#86868A" opacity="0.28"/><circle cx="286.4" cy="487.7" r="2.5" fill="#86868A" opacity="0.46"/><circle cx="346.3" cy="375.6" r="1.5" fill="#86868A" opacity="0.37"/><circle cx="428.8" cy="360.7" r="2.6" fill="#86868A" opacity="0.21"/><circle cx="326.7" cy="526.6" r="2.0" fill="#86868A" opacity="0.20"/><circle cx="461.4" cy="250.7" r="1.2" fill="#86868A" opacity="0.20"/><circle cx="310.1" cy="557.4" r="3.4" fill="#86868A" opacity="0.26"/><circle cx="537.1" cy="540.4" r="3.1" fill="#86868A" opacity="0.29"/><circle cx="349.0" cy="495.0" r="3.6" fill="#86868A" opacity="0.39"/><circle cx="543.6" cy="461.3" r="2.2" fill="#86868A" opacity="0.43"/><circle cx="277.5" cy="629.1" r="2.0" fill="#86868A" opacity="0.37"/><circle cx="477.7" cy="304.7" r="2.0" fill="#86868A" opacity="0.27"/><circle cx="535.2" cy="507.5" r="3.4" fill="#86868A" opacity="0.22"/><circle cx="439.0" cy="204.4" r="1.2" fill="#86868A" opacity="0.18"/><circle cx="439.2" cy="402.3" r="3.0" fill="#86868A" opacity="0.42"/><circle cx="379.4" cy="292.6" r="3.6" fill="#86868A" opacity="0.39"/><circle cx="365.7" cy="565.0" r="2.6" fill="#86868A" opacity="0.20"/><circle cx="423.3" cy="425.5" r="3.5" fill="#86868A" opacity="0.47"/><circle cx="256.8" cy="442.2" r="2.7" fill="#86868A" opacity="0.19"/><circle cx="455.6" cy="259.9" r="2.4" fill="#86868A" opacity="0.43"/><circle cx="233.1" cy="554.7" r="1.9" fill="#86868A" opacity="0.36"/><circle cx="476.3" cy="313.0" r="2.3" fill="#86868A" opacity="0.19"/><circle cx="343.6" cy="562.3" r="1.8" fill="#86868A" opacity="0.36"/><circle cx="336.5" cy="562.9" r="3.1" fill="#86868A" opacity="0.38"/><circle cx="450.6" cy="559.3" r="1.5" fill="#86868A" opacity="0.28"/><circle cx="425.2" cy="230.6" r="3.5" fill="#86868A" opacity="0.15"/><circle cx="562.9" cy="341.5" r="3.6" fill="#86868A" opacity="0.48"/><circle cx="339.3" cy="190.1" r="2.1" fill="#86868A" opacity="0.40"/><circle cx="359.7" cy="260.4" r="2.1" fill="#86868A" opacity="0.47"/><circle cx="242.9" cy="583.2" r="3.4" fill="#86868A" opacity="0.41"/><circle cx="237.2" cy="240.2" r="2.0" fill="#86868A" opacity="0.27"/><circle cx="259.2" cy="358.2" r="3.0" fill="#86868A" opacity="0.29"/><circle cx="283.5" cy="280.8" r="3.1" fill="#86868A" opacity="0.45"/><circle cx="238.6" cy="307.3" r="3.6" fill="#86868A" opacity="0.31"/><circle cx="236.1" cy="212.5" r="1.8" fill="#86868A" opacity="0.30"/><circle cx="325.5" cy="542.1" r="2.1" fill="#86868A" opacity="0.30"/><circle cx="311.5" cy="529.7" r="2.5" fill="#86868A" opacity="0.36"/><circle cx="476.8" cy="563.7" r="2.6" fill="#86868A" opacity="0.25"/><circle cx="235.0" cy="451.6" r="3.4" fill="#86868A" opacity="0.18"/><circle cx="231.8" cy="572.6" r="2.3" fill="#86868A" opacity="0.45"/><circle cx="247.3" cy="423.5" r="2.8" fill="#86868A" opacity="0.34"/><circle cx="527.4" cy="500.3" r="2.9" fill="#86868A" opacity="0.15"/><circle cx="286.9" cy="557.5" r="3.3" fill="#86868A" opacity="0.38"/><circle cx="445.6" cy="431.6" r="2.9" fill="#86868A" opacity="0.17"/><circle cx="405.2" cy="407.8" r="1.1" fill="#86868A" opacity="0.21"/><circle cx="324.0" cy="605.6" r="1.6" fill="#86868A" opacity="0.22"/><circle cx="247.6" cy="611.4" r="1.8" fill="#86868A" opacity="0.30"/><circle cx="288.5" cy="409.2" r="2.4" fill="#86868A" opacity="0.48"/><circle cx="320.1" cy="268.1" r="2.8" fill="#86868A" opacity="0.37"/><circle cx="529.1" cy="516.7" r="2.3" fill="#86868A" opacity="0.17"/><circle cx="395.6" cy="618.1" r="2.7" fill="#86868A" opacity="0.21"/><circle cx="300.1" cy="285.9" r="3.2" fill="#86868A" opacity="0.31"/><circle cx="342.2" cy="370.5" r="2.0" fill="#86868A" opacity="0.38"/><circle cx="516.8" cy="529.9" r="1.2" fill="#86868A" opacity="0.37"/><circle cx="348.2" cy="603.4" r="2.9" fill="#86868A" opacity="0.22"/><circle cx="539.8" cy="627.3" r="1.2" fill="#86868A" opacity="0.24"/><circle cx="456.9" cy="426.5" r="1.6" fill="#86868A" opacity="0.23"/><circle cx="232.3" cy="574.1" r="1.1" fill="#86868A" opacity="0.28"/><circle cx="539.9" cy="517.0" r="1.8" fill="#86868A" opacity="0.18"/><circle cx="378.7" cy="434.2" r="3.0" fill="#86868A" opacity="0.21"/><circle cx="533.8" cy="322.4" r="1.8" fill="#86868A" opacity="0.44"/><circle cx="410.7" cy="541.2" r="1.3" fill="#86868A" opacity="0.17"/><circle cx="565.2" cy="521.6" r="1.1" fill="#86868A" opacity="0.18"/><circle cx="348.2" cy="549.7" r="1.2" fill="#86868A" opacity="0.19"/><circle cx="543.0" cy="581.5" r="3.6" fill="#86868A" opacity="0.45"/><circle cx="269.5" cy="194.4" r="1.5" fill="#86868A" opacity="0.33"/><circle cx="250.9" cy="450.5" r="2.1" fill="#86868A" opacity="0.22"/><circle cx="510.1" cy="469.4" r="2.4" fill="#86868A" opacity="0.34"/><circle cx="249.0" cy="406.7" r="2.9" fill="#86868A" opacity="0.24"/><circle cx="461.5" cy="516.2" r="1.4" fill="#86868A" opacity="0.28"/><circle cx="311.8" cy="645.6" r="1.1" fill="#86868A" opacity="0.38"/></g>
<ellipse cx="400" cy="190" rx="38" ry="9.88" fill="#656567"/><ellipse cx="400" cy="192" rx="31" ry="7.22" fill="#2a2726"/>
<path d="M280,443 Q272,548.8 312,604" fill="none" stroke="#fff" stroke-width="12" stroke-linecap="round" opacity=".17"/></g>
</svg>