<svg xmlns="http://www.w3.org/2000/svg" viewBox="0 0 800 800" width="800" height="800" role="img" aria-hidden="true">
<defs><filter id="blur" x="-20%" y="-50%" width="140%" height="200%"><feGaussianBlur stdDeviation="9"/></filter><linearGradient id="g141" x1="0" x2="1"><stop offset="0" stop-color="#75816f"/><stop offset=".28" stop-color="#9cab98"/><stop offset=".55" stop-color="#8FA08A"/><stop offset="1" stop-color="#6c7665"/></linearGradient>
<linearGradient id="v141" x1="0" y1="0" x2="0" y2="1"><stop offset="0" stop-color="#9aaa96"/><stop offset="1" stop-color="#7a8774"/></linearGradient><clipPath id="c141"><circle cx="400" cy="400" r="150"/></clipPath><linearGradient id="g142" x1="0" x2="1"><stop offset="0" stop-color="#75816f"/><stop offset=".28" stop-color="#9cab98"/><stop offset=".55" stop-color="#8FA08A"/><stop offset="1" stop-color="#6c7665"/></linearGradient>
<linearGradient id="v142" x1="0" y1="0" x2="0" y2="1"><stop offset="0" stop-color="#9aaa96"/><stop offset="1" stop-color="#7a8774"/></linearGradient><clipPath id="c142"><circle cx="400" cy="400" r="150"/></clipPath><linearGradient id="g143" x1="0" x2="1"><stop offset="0" stop-color="#75816f"/><stop offset=".28" stop-color="#9cab98"/><stop offset=".55" stop-color="#8FA08A"/><stop offset="1" stop-color="#6c7665"/></linearGradient>
<linearGradient id="v143" x1="0" y1="0" x2="0" y2="1"><stop offset="0" stop-color="#9aaa96"/><stop offset="1" stop-color="#7a8774"/></linearGradient><clipPath id="c143"><circle cx="400" cy="400" r="150"/></clipPath><linearGradient id="g144" x1="0" x2="1"><stop offset="0" stop-color="#75816f"/><stop offset=".28" stop-color="#9cab98"/><stop offset=".55" stop-color="#8FA08A"/><stop offset="1" stop-color="#6c7665"/></linearGradient>
<linearGradient id="v144" x1="0" y1="0" x2="0" y2="1"><stop offset="0" stop-color="#9aaa96"/><stop offset="1" stop-color="#7a8774"/></linearGradient><clipPath id="c144"><circle cx="400" cy="400" r="150"/></clipPath></defs>
<rect width="800" height="800" fill="#EFE8DD"/>
<ellipse cx="260" cy="269" rx="125" ry="125" fill="#6b5a48" opacity=".16" filter="url(#blur)"/><ellipse cx="560" cy="269" rx="125" ry="125" fill="#6b5a48" opacity=".16" filter="url(#blur)"/><ellipse cx="260" cy="569" rx="125" ry="125" fill="#6b5a48" opacity=".16" filter="url(#blur)"/><ellipse cx="560" cy="569" rx="125" ry="125" fill="#6b5a48" opacity=".16" filter="url(#blur)"/><g transform="translate(250 250) scale(0.8) translate(-400 -400)"><circle cx="400" cy="400" r="150" fill="url(#g141)"/><g clip-path="url(#c141)"><circle cx="250.3" cy="288.1" r="2.8" fill="#5a6153" opacity="0.41"/><circle cx="330.5" cy="304.1" r="1.8" fill="#5a6153" opacity="0.17"/><circle cx="285.7" cy="396.9" r="1.1" fill="#5a6153" opacity="0.41"/><circle cx="418.3" cy="542.7" r="1.2" fill="#5a6153" opacity="0.47"/><circle cx="304.7" cy="515.6" r="1.1" fill="#5a6153" opacity="0.39"/><circle cx="253.3" cy="543.7" r="2.5" fill="#5a6153" opacity="0.15"/><circle cx="342.8" cy="429.0" r="2.1" fill="#5a6153" opacity="0.22"/><circle cx="502.0" cy="441.1" r="2.4" fill="#5a6153" opacity="0.38"/><circle cx="304.6" cy="387.5" r="2.3" fill="#5a6153" opacity="0.41"/><circle cx="476.0" cy="546.2" r="3.0" fill="#5a6153" opacity="0.15"/><circle cx="372.8" cy="548.0" r="1.1" fill="#5a6153" opacity="0.37"/><circle cx="527.4" cy="357.7" r="2.3" fill="#5a6153" opacity="0.41"/><circle cx="358.5" cy="306.2" r="1.2" fill="#5a6153" opacity="0.48"/><circle cx="353.2" cy="434.3" r="1.6" fill="#5a6153" opacity="0.20"/><circle cx="534.8" cy="319.1" r="2.1" fill="#5a6153" opacity="0.49"/><circle cx="260.5" cy="256.0" r="1.7" fill="#5a6153" opacity="0.39"/><circle cx="389.2" cy="492.2" r="2.2" fill="#5a6153" opacity="0.30"/><circle cx="547.9" cy="394.3" r="2.2" fill="#5a6153" opacity="0.21"/><circle cx="509.3" cy="276.7" r="2.9" fill="#5a6153" opacity="0.29"/><circle cx="313.8" cy="477.9" r="2.1" fill="#5a6153" opacity="0.35"/><circle cx="309.7" cy="375.1" r="2.7" fill="#5a6153" opacity="0.21"/><circle cx="504.5" cy="369.2" r="2.3" fill="#5a6153" opacity="0.30"/><circle cx="531.3" cy="305.7" r="2.7" fill="#5a6153" opacity="0.23"/><circle cx="360.0" cy="257.9" r="3.0" fill="#5a6153" opacity="0.25"/><circle cx="366.8" cy="482.1" r="3.0" fill="#5a6153" opacity="0.42"/><circle cx="487.0" cy="493.1" r="0.9" fill="#5a6153" opacity="0.33"/><circle cx="453.3" cy="472.1" r="1.5" fill="#5a6153" opacity="0.43"/><circle cx="388.5" cy="347.6" r="2.8" fill="#5a6153" opacity="0.17"/><circle cx="483.1" cy="380.4" r="2.8" fill="#5a6153" opacity="0.44"/><circle cx="362.0" cy="389.9" r="1.3" fill="#5a6153" opacity="0.50"/><circle cx="389.2" cy="423.3" r="1.6" fill="#5a6153" opacity="0.38"/><circle cx="277.2" cy="438.8" r="2.8" fill="#5a6153" opacity="0.36"/><circle cx="490.9" cy="405.1" r="0.9" fill="#5a6153" opacity="0.50"/><circle cx="336.6" cy="356.4" r="1.7" fill="#5a6153" opacity="0.36"/><circle cx="391.1" cy="539.9" r="2.0" fill="#5a6153" opacity="0.23"/><circle cx="508.7" cy="511.6" r="3.0" fill="#5a6153" opacity="0.16"/><circle cx="274.0" cy="252.5" r="1.6" fill="#5a6153" opacity="0.49"/><circle cx="548.4" cy="303.8" r="1.7" fill="#5a6153" opacity="0.33"/><circle cx="398.1" cy="541.6" r="2.5" fill="#5a6153" opacity="0.28"/><circle cx="421.6" cy="518.3" r="2.0" fill="#5a6153" opacity="0.27"/><circle cx="400.5" cy="486.9" r="2.6" fill="#5a6153" opacity="0.28"/><circle cx="328.9" cy="457.7" r="1.0" fill="#5a6153" opacity="0.27"/><circle cx="538.3" cy="305.8" r="1.1" fill="#5a6153" opacity="0.45"/><circle cx="430.0" cy="445.9" r="1.3" fill="#5a6153" opacity="0.15"/><circle cx="280.5" cy="411.3" r="1.0" fill="#5a6153" opacity="0.28"/><circle cx="308.6" cy="254.4" r="0.9" fill="#5a6153" opacity="0.20"/><circle cx="531.8" cy="476.1" r="1.2" fill="#5a6153" opacity="0.33"/><circle cx="479.3" cy="549.7" r="1.3" fill="#5a6153" opacity="0.21"/><circle cx="263.6" cy="255.9" r="2.9" fill="#5a6153" opacity="0.21"/><circle cx="372.2" cy="479.5" r="2.0" fill="#5a6153" opacity="0.44"/><circle cx="319.8" cy="476.1" r="2.0" fill="#5a6153" opacity="0.42"/><circle cx="518.8" cy="331.4" r="2.6" fill="#5a6153" opacity="0.21"/><circle cx="518.5" cy="434.0" r="1.6" fill="#5a6153" opacity="0.43"/><circle cx="431.3" cy="526.3" r="3.0" fill="#5a6153" opacity="0.25"/><circle cx="274.9" cy="325.5" r="1.5" fill="#5a6153" opacity="0.22"/><circle cx="518.1" cy="362.1" r="1.5" fill="#5a6153" opacity="0.32"/><circle cx="263.1" cy="318.5" r="2.6" fill="#5a6153" opacity="0.30"/><circle cx="534.6" cy="373.9" r="2.1" fill="#5a6153" opacity="0.27"/><circle cx="416.2" cy="252.2" r="2.6" fill="#5a6153" opacity="0.42"/><circle cx="485.9" cy="337.8" r="1.6" fill="#5a6153" opacity="0.22"/><circle cx="361.9" cy="420.5" r="2.6" fill="#5a6153" opacity="0.42"/><circle cx="548.0" cy="347.4" r="2.9" fill="#5a6153" opacity="0.38"/><circle cx="401.8" cy="514.1" r="1.0" fill="#5a6153" opacity="0.19"/><circle cx="530.6" cy="443.1" r="2.4" fill="#5a6153" opacity="0.16"/><circle cx="396.1" cy="329.4" r="2.2" fill="#5a6153" opacity="0.22"/><circle cx="407.8" cy="340.4" r="2.8" fill="#5a6153" opacity="0.29"/><circle cx="508.2" cy="370.2" r="2.2" fill="#5a6153" opacity="0.35"/><circle cx="346.6" cy="464.4" r="2.0" fill="#5a6153" opacity="0.49"/><circle cx="499.9" cy="537.9" r="2.2" fill="#5a6153" opacity="0.38"/><circle cx="351.9" cy="293.3" r="2.2" fill="#5a6153" opacity="0.31"/><circle cx="341.9" cy="340.4" r="1.0" fill="#5a6153" opacity="0.18"/><circle cx="269.9" cy="330.6" r="2.4" fill="#5a6153" opacity="0.43"/><circle cx="284.8" cy="352.4" r="1.5" fill="#5a6153" opacity="0.20"/><circle cx="433.8" cy="422.3" r="2.8" fill="#5a6153" opacity="0.39"/><circle cx="319.7" cy="547.8" r="1.0" fill="#5a6153" opacity="0.29"/><circle cx="270.4" cy="426.4" r="3.1" fill="#5a6153" opacity="0.45"/><circle cx="397.2" cy="488.5" r="1.1" fill="#5a6153" opacity="0.38"/><circle cx="394.3" cy="401.6" r="2.4" fill="#5a6153" opacity="0.33"/><circle cx="459.9" cy="435.6" r="2.9" fill="#5a6153" opacity="0.45"/><circle cx="385.1" cy="428.2" r="2.7" fill="#5a6153" opacity="0.47"/><circle cx="407.7" cy="260.8" r="3.0" fill="#5a6153" opacity="0.27"/><circle cx="419.0" cy="484.9" r="2.5" fill="#5a6153" opacity="0.37"/><circle cx="423.9" cy="414.2" r="2.6" fill="#5a6153" opacity="0.35"/><circle cx="309.1" cy="366.9" r="2.5" fill="#5a6153" opacity="0.36"/><circle cx="285.6" cy="250.1" r="2.0" fill="#5a6153" opacity="0.22"/><circle cx="326.6" cy="480.2" r="1.1" fill="#5a6153" opacity="0.43"/><circle cx="516.5" cy="444.0" r="3.0" fill="#5a6153" opacity="0.19"/><circle cx="543.8" cy="535.0" r="1.9" fill="#5a6153" opacity="0.17"/><circle cx="313.2" cy="444.6" r="1.9" fill="#5a6153" opacity="0.25"/><circle cx="268.4" cy="411.7" r="1.5" fill="#5a6153" opacity="0.19"/><circle cx="358.7" cy="465.8" r="2.1" fill="#5a6153" opacity="0.48"/><circle cx="491.7" cy="415.7" r="2.3" fill="#5a6153" opacity="0.35"/><circle cx="362.3" cy="267.2" r="2.7" fill="#5a6153" opacity="0.29"/><circle cx="540.0" cy="411.9" r="1.9" fill="#5a6153" opacity="0.25"/><circle cx="370.0" cy="314.0" r="3.0" fill="#5a6153" opacity="0.31"/><circle cx="257.9" cy="250.9" r="1.2" fill="#5a6153" opacity="0.39"/><circle cx="455.7" cy="396.8" r="0.9" fill="#5a6153" opacity="0.22"/><circle cx="476.3" cy="513.9" r="1.0" fill="#5a6153" opacity="0.45"/><circle cx="306.7" cy="468.8" r="1.4" fill="#5a6153" opacity="0.37"/><circle cx="456.3" cy="418.8" r="2.7" fill="#5a6153" opacity="0.44"/><circle cx="359.0" cy="276.7" r="2.6" fill="#5a6153" opacity="0.35"/><circle cx="533.8" cy="320.0" r="2.7" fill="#5a6153" opacity="0.42"/><circle cx="520.5" cy="450.8" r="1.0" fill="#5a6153" opacity="0.48"/><circle cx="523.1" cy="317.9" r="1.7" fill="#5a6153" opacity="0.27"/><circle cx="286.9" cy="379.5" r="1.4" fill="#5a6153" opacity="0.21"/><circle cx="495.8" cy="534.2" r="2.1" fill="#5a6153" opacity="0.43"/><circle cx="353.9" cy="335.7" r="2.8" fill="#5a6153" opacity="0.46"/><circle cx="549.5" cy="383.3" r="1.6" fill="#5a6153" opacity="0.18"/><circle cx="432.9" cy="397.5" r="1.7" fill="#5a6153" opacity="0.22"/><circle cx="388.6" cy="362.8" r="1.8" fill="#5a6153" opacity="0.26"/><circle cx="328.0" cy="544.1" r="1.2" fill="#5a6153" opacity="0.38"/><circle cx="277.8" cy="276.5" r="2.9" fill="#5a6153" opacity="0.38"/><circle cx="370.5" cy="437.3" r="2.8" fill="#5a6153" opacity="0.32"/><circle cx="423.7" cy="464.0" r="1.0" fill="#5a6153" opacity="0.28"/><circle cx="261.7" cy="486.0" r="2.9" fill="#5a6153" opacity="0.43"/><circle cx="400.2" cy="328.0" r="1.2" fill="#5a6153" opacity="0.31"/><circle cx="522.5" cy="538.9" r="1.6" fill="#5a6153" opacity="0.34"/><circle cx="371.7" cy="279.9" r="1.0" fill="#5a6153" opacity="0.47"/><circle cx="459.7" cy="321.1" r="2.9" fill="#5a6153" opacity="0.38"/><circle cx="396.5" cy="265.8" r="1.2" fill="#5a6153" opacity="0.21"/></g><circle cx="400" cy="400" r="108" fill="#83927e" opacity=".6"/><circle cx="400" cy="400" r="99" fill="#96a691"/></g><g transform="translate(550 250) scale(0.8) translate(-400 -400)"><circle cx="400" cy="400" r="150" fill="url(#g142)"/><g clip-path="url(#c142)"><circle cx="250.3" cy="501.1" r="2.5" fill="#5a6153" opacity="0.40"/><circle cx="308.3" cy="258.0" r="0.9" fill="#5a6153" opacity="0.46"/><circle cx="535.0" cy="442.2" r="1.1" fill="#5a6153" opacity="0.32"/><circle cx="359.1" cy="377.6" r="2.7" fill="#5a6153" opacity="0.43"/><circle cx="522.1" cy="545.6" r="1.0" fill="#5a6153" opacity="0.34"/><circle cx="381.5" cy="522.1" r="1.7" fill="#5a6153" opacity="0.18"/><circle cx="342.8" cy="384.1" r="2.6" fill="#5a6153" opacity="0.40"/><circle cx="324.4" cy="475.7" r="2.0" fill="#5a6153" opacity="0.35"/><circle cx="428.2" cy="272.6" r="1.4" fill="#5a6153" opacity="0.15"/><circle cx="543.3" cy="496.2" r="2.8" fill="#5a6153" opacity="0.42"/><circle cx="436.3" cy="479.9" r="2.0" fill="#5a6153" opacity="0.30"/><circle cx="368.3" cy="341.1" r="2.7" fill="#5a6153" opacity="0.23"/><circle cx="522.1" cy="508.2" r="1.1" fill="#5a6153" opacity="0.20"/><circle cx="380.5" cy="306.4" r="3.0" fill="#5a6153" opacity="0.26"/><circle cx="332.3" cy="520.0" r="1.7" fill="#5a6153" opacity="0.41"/><circle cx="488.7" cy="423.7" r="1.1" fill="#5a6153" opacity="0.44"/><circle cx="337.1" cy="318.7" r="1.0" fill="#5a6153" opacity="0.36"/><circle cx="344.1" cy="382.0" r="1.1" fill="#5a6153" opacity="0.21"/><circle cx="389.9" cy="540.6" r="2.7" fill="#5a6153" opacity="0.31"/><circle cx="383.6" cy="373.2" r="1.9" fill="#5a6153" opacity="0.36"/><circle cx="538.2" cy="264.0" r="0.9" fill="#5a6153" opacity="0.19"/><circle cx="290.7" cy="424.5" r="1.4" fill="#5a6153" opacity="0.45"/><circle cx="529.2" cy="471.2" r="2.7" fill="#5a6153" opacity="0.22"/><circle cx="529.0" cy="459.7" r="2.3" fill="#5a6153" opacity="0.25"/><circle cx="473.9" cy="464.0" r="1.9" fill="#5a6153" opacity="0.21"/><circle cx="482.5" cy="518.0" r="2.6" fill="#5a6153" opacity="0.44"/><circle cx="452.8" cy="301.5" r="2.4" fill="#5a6153" opacity="0.23"/><circle cx="372.9" cy="491.6" r="1.5" fill="#5a6153" opacity="0.42"/><circle cx="546.0" cy="254.3" r="3.0" fill="#5a6153" opacity="0.42"/><circle cx="385.1" cy="319.7" r="1.9" fill="#5a6153" opacity="0.39"/><circle cx="444.0" cy="294.2" r="1.7" fill="#5a6153" opacity="0.16"/><circle cx="382.0" cy="507.1" r="1.0" fill="#5a6153" opacity="0.40"/><circle cx="296.4" cy="443.5" r="2.1" fill="#5a6153" opacity="0.31"/><circle cx="322.9" cy="313.7" r="1.7" fill="#5a6153" opacity="0.37"/><circle cx="540.1" cy="515.3" r="1.2" fill="#5a6153" opacity="0.23"/><circle cx="410.2" cy="337.7" r="1.3" fill="#5a6153" opacity="0.49"/><circle cx="508.9" cy="346.6" r="1.2" fill="#5a6153" opacity="0.26"/><circle cx="331.7" cy="409.0" r="1.8" fill="#5a6153" opacity="0.16"/><circle cx="289.6" cy="420.7" r="2.8" fill="#5a6153" opacity="0.34"/><circle cx="315.7" cy="358.1" r="2.1" fill="#5a6153" opacity="0.43"/><circle cx="467.1" cy="545.0" r="2.7" fill="#5a6153" opacity="0.16"/><circle cx="439.6" cy="374.3" r="2.2" fill="#5a6153" opacity="0.21"/><circle cx="333.5" cy="406.0" r="2.6" fill="#5a6153" opacity="0.28"/><circle cx="489.5" cy="478.4" r="1.1" fill="#5a6153" opacity="0.42"/><circle cx="367.4" cy="338.2" r="1.4" fill="#5a6153" opacity="0.25"/><circle cx="471.7" cy="518.3" r="2.1" fill="#5a6153" opacity="0.24"/><circle cx="373.2" cy="415.5" r="3.1" fill="#5a6153" opacity="0.27"/><circle cx="254.8" cy="307.0" r="1.6" fill="#5a6153" opacity="0.42"/><circle cx="505.1" cy="444.4" r="2.5" fill="#5a6153" opacity="0.21"/><circle cx="482.5" cy="547.2" r="1.4" fill="#5a6153" opacity="0.35"/><circle cx="306.9" cy="514.7" r="1.7" fill="#5a6153" opacity="0.21"/><circle cx="538.8" cy="259.7" r="2.6" fill="#5a6153" opacity="0.45"/><circle cx="321.9" cy="548.7" r="2.7" fill="#5a6153" opacity="0.22"/><circle cx="347.5" cy="372.3" r="1.5" fill="#5a6153" opacity="0.36"/><circle cx="397.7" cy="381.0" r="2.9" fill="#5a6153" opacity="0.31"/><circle cx="373.6" cy="309.5" r="1.6" fill="#5a6153" opacity="0.27"/><circle cx="345.4" cy="425.4" r="1.9" fill="#5a6153" opacity="0.26"/><circle cx="412.9" cy="348.7" r="2.7" fill="#5a6153" opacity="0.47"/><circle cx="437.6" cy="495.1" r="2.3" fill="#5a6153" opacity="0.37"/><circle cx="426.4" cy="277.3" r="1.8" fill="#5a6153" opacity="0.46"/><circle cx="499.8" cy="335.5" r="2.7" fill="#5a6153" opacity="0.24"/><circle cx="472.1" cy="272.3" r="2.8" fill="#5a6153" opacity="0.38"/><circle cx="460.7" cy="517.9" r="1.0" fill="#5a6153" opacity="0.19"/><circle cx="546.7" cy="279.7" r="2.8" fill="#5a6153" opacity="0.31"/><circle cx="357.8" cy="283.6" r="1.5" fill="#5a6153" opacity="0.17"/><circle cx="472.6" cy="272.4" r="1.1" fill="#5a6153" opacity="0.31"/><circle cx="487.8" cy="425.6" r="1.7" fill="#5a6153" opacity="0.27"/><circle cx="362.7" cy="480.8" r="2.8" fill="#5a6153" opacity="0.25"/><circle cx="520.4" cy="387.8" r="2.2" fill="#5a6153" opacity="0.27"/><circle cx="381.6" cy="350.4" r="1.0" fill="#5a6153" opacity="0.19"/><circle cx="498.4" cy="384.5" r="2.1" fill="#5a6153" opacity="0.45"/><circle cx="321.7" cy="527.5" r="1.9" fill="#5a6153" opacity="0.49"/><circle cx="528.8" cy="442.2" r="0.9" fill="#5a6153" opacity="0.22"/><circle cx="386.8" cy="525.3" r="2.9" fill="#5a6153" opacity="0.15"/><circle cx="275.4" cy="323.1" r="1.1" fill="#5a6153" opacity="0.41"/><circle cx="285.7" cy="362.9" r="2.4" fill="#5a6153" opacity="0.18"/><circle cx="317.3" cy="421.5" r="1.0" fill="#5a6153" opacity="0.43"/><circle cx="423.6" cy="259.6" r="2.2" fill="#5a6153" opacity="0.27"/><circle cx="520.2" cy="328.8" r="1.3" fill="#5a6153" opacity="0.49"/><circle cx="342.9" cy="458.8" r="1.1" fill="#5a6153" opacity="0.19"/><circle cx="279.4" cy="332.5" r="2.2" fill="#5a6153" opacity="0.31"/><circle cx="346.8" cy="446.3" r="2.6" fill="#5a6153" opacity="0.25"/><circle cx="344.4" cy="294.6" r="1.2" fill="#5a6153" opacity="0.29"/><circle cx="341.9" cy="309.7" r="2.9" fill="#5a6153" opacity="0.37"/><circle cx="474.9" cy="255.3" r="1.6" fill="#5a6153" opacity="0.33"/><circle cx="546.5" cy="417.5" r="2.6" fill="#5a6153" opacity="0.24"/><circle cx="327.5" cy="528.5" r="3.0" fill="#5a6153" opacity="0.27"/><circle cx="297.9" cy="530.7" r="1.3" fill="#5a6153" opacity="0.38"/><circle cx="380.4" cy="406.6" r="1.5" fill="#5a6153" opacity="0.24"/><circle cx="481.8" cy="252.6" r="1.6" fill="#5a6153" opacity="0.47"/><circle cx="292.8" cy="524.1" r="1.1" fill="#5a6153" opacity="0.26"/><circle cx="521.6" cy="395.4" r="1.2" fill="#5a6153" opacity="0.21"/><circle cx="424.6" cy="258.7" r="2.7" fill="#5a6153" opacity="0.27"/><circle cx="426.7" cy="498.0" r="2.1" fill="#5a6153" opacity="0.32"/><circle cx="430.5" cy="516.9" r="2.1" fill="#5a6153" opacity="0.23"/><circle cx="524.9" cy="264.1" r="2.6" fill="#5a6153" opacity="0.32"/><circle cx="523.3" cy="413.4" r="1.9" fill="#5a6153" opacity="0.23"/><circle cx="512.3" cy="436.8" r="1.4" fill="#5a6153" opacity="0.35"/><circle cx="508.7" cy="493.5" r="2.8" fill="#5a6153" opacity="0.28"/><circle cx="417.0" cy="440.5" r="2.8" fill="#5a6153" opacity="0.37"/><circle cx="363.5" cy="321.5" r="1.7" fill="#5a6153" opacity="0.43"/><circle cx="534.6" cy="513.1" r="1.8" fill="#5a6153" opacity="0.36"/><circle cx="496.3" cy="460.5" r="1.3" fill="#5a6153" opacity="0.25"/><circle cx="454.9" cy="343.8" r="1.4" fill="#5a6153" opacity="0.18"/><circle cx="262.4" cy="404.5" r="2.3" fill="#5a6153" opacity="0.16"/><circle cx="393.1" cy="297.7" r="2.0" fill="#5a6153" opacity="0.35"/><circle cx="295.2" cy="322.0" r="2.2" fill="#5a6153" opacity="0.40"/><circle cx="262.5" cy="536.6" r="1.3" fill="#5a6153" opacity="0.29"/><circle cx="357.1" cy="346.3" r="1.8" fill="#5a6153" opacity="0.22"/><circle cx="427.8" cy="477.3" r="1.6" fill="#5a6153" opacity="0.39"/><circle cx="475.0" cy="426.0" r="3.0" fill="#5a6153" opacity="0.37"/><circle cx="416.6" cy="454.3" r="2.2" fill="#5a6153" opacity="0.18"/><circle cx="540.6" cy="432.4" r="2.6" fill="#5a6153" opacity="0.19"/><circle cx="479.9" cy="284.7" r="2.4" fill="#5a6153" opacity="0.25"/><circle cx="461.3" cy="296.1" r="1.3" fill="#5a6153" opacity="0.26"/><circle cx="271.0" cy="529.9" r="1.6" fill="#5a6153" opacity="0.28"/><circle cx="532.5" cy="501.1" r="2.5" fill="#5a6153" opacity="0.21"/><circle cx="526.3" cy="497.2" r="2.1" fill="#5a6153" opacity="0.15"/><circle cx="483.4" cy="407.4" r="2.5" fill="#5a6153" opacity="0.25"/><circle cx="418.3" cy="546.7" r="1.0" fill="#5a6153" opacity="0.16"/></g><circle cx="400" cy="400" r="108" fill="#83927e" opacity=".6"/><circle cx="400" cy="400" r="99" fill="#96a691"/></g><g transform="translate(250 550) scale(0.8) translate(-400 -400)"><circle cx="400" cy="400" r="150" fill="url(#g143)"/><g clip-path="url(#c143)"><circle cx="250.3" cy="414.0" r="2.1" fill="#5a6153" opacity="0.38"/><circle cx="286.1" cy="512.0" r="2.3" fill="#5a6153" opacity="0.40"/><circle cx="484.2" cy="487.5" r="1.0" fill="#5a6153" opacity="0.23"/><circle cx="299.8" cy="512.4" r="2.1" fill="#5a6153" opacity="0.39"/><circle cx="439.6" cy="275.6" r="1.0" fill="#5a6153" opacity="0.30"/><circle cx="509.7" cy="500.5" r="1.0" fill="#5a6153" opacity="0.22"/><circle cx="342.9" cy="339.1" r="3.0" fill="#5a6153" opacity="0.22"/><circle cx="446.8" cy="510.4" r="1.7" fill="#5a6153" opacity="0.31"/><circle cx="251.8" cy="457.7" r="2.6" fill="#5a6153" opacity="0.25"/><circle cx="310.6" cy="446.2" r="2.5" fill="#5a6153" opacity="0.33"/><circle cx="499.7" cy="411.9" r="2.8" fill="#5a6153" opacity="0.23"/><circle cx="509.2" cy="324.6" r="1.0" fill="#5a6153" opacity="0.41"/><circle cx="385.6" cy="410.2" r="1.0" fill="#5a6153" opacity="0.28"/><circle cx="407.9" cy="478.6" r="2.3" fill="#5a6153" opacity="0.32"/><circle cx="429.7" cy="420.9" r="1.3" fill="#5a6153" opacity="0.34"/><circle cx="416.8" cy="291.3" r="2.6" fill="#5a6153" opacity="0.49"/><circle cx="285.0" cy="445.2" r="2.0" fill="#5a6153" opacity="0.43"/><circle cx="440.4" cy="369.6" r="2.2" fill="#5a6153" opacity="0.21"/><circle cx="270.6" cy="504.5" r="2.4" fill="#5a6153" opacity="0.32"/><circle cx="453.5" cy="268.6" r="1.7" fill="#5a6153" opacity="0.36"/><circle cx="466.7" cy="453.0" r="1.4" fill="#5a6153" opacity="0.18"/><circle cx="376.9" cy="479.7" r="2.7" fill="#5a6153" opacity="0.25"/><circle cx="527.1" cy="336.6" r="2.8" fill="#5a6153" opacity="0.22"/><circle cx="397.9" cy="361.5" r="1.6" fill="#5a6153" opacity="0.25"/><circle cx="281.0" cy="445.9" r="3.0" fill="#5a6153" opacity="0.35"/><circle cx="478.0" cy="542.9" r="2.0" fill="#5a6153" opacity="0.20"/><circle cx="452.4" cy="431.0" r="1.2" fill="#5a6153" opacity="0.38"/><circle cx="357.2" cy="335.7" r="2.4" fill="#5a6153" opacity="0.33"/><circle cx="308.9" cy="428.2" r="1.1" fill="#5a6153" opacity="0.40"/><circle cx="408.2" cy="549.4" r="2.6" fill="#5a6153" opacity="0.29"/><circle cx="498.9" cy="465.1" r="1.8" fill="#5a6153" opacity="0.30"/><circle cx="486.9" cy="275.4" r="1.4" fill="#5a6153" opacity="0.44"/><circle cx="401.9" cy="481.9" r="1.0" fill="#5a6153" opacity="0.48"/><circle cx="309.2" cy="270.9" r="1.8" fill="#5a6153" opacity="0.38"/><circle cx="389.0" cy="490.6" r="2.6" fill="#5a6153" opacity="0.23"/><circle cx="311.6" cy="463.8" r="1.8" fill="#5a6153" opacity="0.46"/><circle cx="443.8" cy="440.8" r="3.1" fill="#5a6153" opacity="0.38"/><circle cx="414.9" cy="514.2" r="1.8" fill="#5a6153" opacity="0.33"/><circle cx="481.1" cy="299.7" r="0.9" fill="#5a6153" opacity="0.40"/><circle cx="509.9" cy="498.0" r="2.3" fill="#5a6153" opacity="0.23"/><circle cx="533.7" cy="303.1" r="2.8" fill="#5a6153" opacity="0.38"/><circle cx="250.3" cy="290.8" r="1.2" fill="#5a6153" opacity="0.16"/><circle cx="428.7" cy="506.2" r="2.0" fill="#5a6153" opacity="0.46"/><circle cx="548.9" cy="511.0" r="0.9" fill="#5a6153" opacity="0.33"/><circle cx="454.3" cy="265.1" r="1.8" fill="#5a6153" opacity="0.22"/><circle cx="334.9" cy="482.3" r="1.0" fill="#5a6153" opacity="0.28"/><circle cx="514.6" cy="355.0" r="2.7" fill="#5a6153" opacity="0.21"/><circle cx="330.3" cy="364.4" r="1.9" fill="#5a6153" opacity="0.27"/><circle cx="446.7" cy="332.9" r="2.1" fill="#5a6153" opacity="0.21"/><circle cx="292.8" cy="314.8" r="3.0" fill="#5a6153" opacity="0.25"/><circle cx="293.9" cy="253.3" r="1.3" fill="#5a6153" opacity="0.35"/><circle cx="258.7" cy="488.1" r="2.6" fill="#5a6153" opacity="0.34"/><circle cx="425.3" cy="363.4" r="1.6" fill="#5a6153" opacity="0.36"/><circle cx="263.6" cy="518.3" r="2.1" fill="#5a6153" opacity="0.47"/><circle cx="520.5" cy="436.5" r="2.2" fill="#5a6153" opacity="0.39"/><circle cx="529.1" cy="257.0" r="1.6" fill="#5a6153" opacity="0.22"/><circle cx="427.8" cy="532.3" r="1.2" fill="#5a6153" opacity="0.21"/><circle cx="291.2" cy="323.6" r="1.1" fill="#5a6153" opacity="0.32"/><circle cx="459.0" cy="437.9" r="2.0" fill="#5a6153" opacity="0.33"/><circle cx="367.0" cy="516.8" r="2.0" fill="#5a6153" opacity="0.35"/><circle cx="337.6" cy="250.4" r="2.9" fill="#5a6153" opacity="0.41"/><circle cx="396.2" cy="497.3" r="2.8" fill="#5a6153" opacity="0.38"/><circle cx="519.7" cy="521.6" r="1.1" fill="#5a6153" opacity="0.19"/><circle cx="262.8" cy="416.3" r="0.9" fill="#5a6153" opacity="0.46"/><circle cx="319.5" cy="537.8" r="3.0" fill="#5a6153" opacity="0.48"/><circle cx="537.3" cy="504.3" r="1.6" fill="#5a6153" opacity="0.33"/><circle cx="467.4" cy="480.9" r="1.2" fill="#5a6153" opacity="0.19"/><circle cx="378.9" cy="497.2" r="1.4" fill="#5a6153" opacity="0.36"/><circle cx="540.8" cy="537.8" r="2.2" fill="#5a6153" opacity="0.17"/><circle cx="411.4" cy="407.5" r="2.1" fill="#5a6153" opacity="0.42"/><circle cx="354.8" cy="428.7" r="1.0" fill="#5a6153" opacity="0.37"/><circle cx="373.5" cy="424.4" r="1.4" fill="#5a6153" opacity="0.20"/><circle cx="472.7" cy="532.0" r="2.6" fill="#5a6153" opacity="0.23"/><circle cx="339.7" cy="328.2" r="2.9" fill="#5a6153" opacity="0.27"/><circle cx="531.1" cy="398.5" r="1.2" fill="#5a6153" opacity="0.17"/><circle cx="301.1" cy="299.4" r="1.8" fill="#5a6153" opacity="0.26"/><circle cx="537.4" cy="354.6" r="0.9" fill="#5a6153" opacity="0.48"/><circle cx="453.0" cy="417.6" r="2.0" fill="#5a6153" opacity="0.21"/><circle cx="280.4" cy="521.9" r="1.9" fill="#5a6153" opacity="0.19"/><circle cx="300.8" cy="489.4" r="1.8" fill="#5a6153" opacity="0.25"/><circle cx="451.1" cy="404.2" r="1.3" fill="#5a6153" opacity="0.34"/><circle cx="274.6" cy="407.6" r="2.7" fill="#5a6153" opacity="0.47"/><circle cx="264.9" cy="474.9" r="2.0" fill="#5a6153" opacity="0.22"/><circle cx="374.6" cy="252.4" r="1.1" fill="#5a6153" opacity="0.39"/><circle cx="364.1" cy="260.5" r="1.2" fill="#5a6153" opacity="0.43"/><circle cx="466.5" cy="354.8" r="1.9" fill="#5a6153" opacity="0.41"/><circle cx="438.5" cy="313.0" r="3.0" fill="#5a6153" opacity="0.35"/><circle cx="352.0" cy="526.4" r="2.9" fill="#5a6153" opacity="0.24"/><circle cx="447.5" cy="368.6" r="1.1" fill="#5a6153" opacity="0.22"/><circle cx="395.2" cy="393.5" r="1.7" fill="#5a6153" opacity="0.40"/><circle cx="526.8" cy="282.4" r="2.3" fill="#5a6153" opacity="0.38"/><circle cx="251.6" cy="375.0" r="2.2" fill="#5a6153" opacity="0.42"/><circle cx="486.8" cy="250.2" r="2.8" fill="#5a6153" opacity="0.24"/><circle cx="313.4" cy="284.1" r="2.3" fill="#5a6153" opacity="0.39"/><circle cx="491.1" cy="419.8" r="1.1" fill="#5a6153" opacity="0.50"/><circle cx="491.8" cy="277.2" r="1.8" fill="#5a6153" opacity="0.25"/><circle cx="290.9" cy="429.9" r="2.8" fill="#5a6153" opacity="0.24"/><circle cx="548.3" cy="359.6" r="1.8" fill="#5a6153" opacity="0.25"/><circle cx="410.8" cy="518.3" r="1.9" fill="#5a6153" opacity="0.19"/><circle cx="377.7" cy="462.2" r="3.0" fill="#5a6153" opacity="0.30"/><circle cx="368.0" cy="366.2" r="2.9" fill="#5a6153" opacity="0.15"/><circle cx="535.4" cy="406.2" r="1.0" fill="#5a6153" opacity="0.30"/><circle cx="472.1" cy="470.1" r="1.6" fill="#5a6153" opacity="0.37"/><circle cx="386.6" cy="369.7" r="1.1" fill="#5a6153" opacity="0.43"/><circle cx="537.9" cy="429.6" r="1.0" fill="#5a6153" opacity="0.46"/><circle cx="290.5" cy="361.1" r="1.9" fill="#5a6153" opacity="0.26"/><circle cx="536.5" cy="308.2" r="1.6" fill="#5a6153" opacity="0.34"/><circle cx="275.5" cy="389.9" r="1.0" fill="#5a6153" opacity="0.39"/><circle cx="281.2" cy="295.2" r="1.9" fill="#5a6153" opacity="0.23"/><circle cx="466.9" cy="291.7" r="1.4" fill="#5a6153" opacity="0.16"/><circle cx="322.1" cy="308.0" r="2.6" fill="#5a6153" opacity="0.36"/><circle cx="255.4" cy="332.0" r="1.4" fill="#5a6153" opacity="0.34"/><circle cx="410.8" cy="427.5" r="2.4" fill="#5a6153" opacity="0.41"/><circle cx="536.1" cy="405.4" r="1.6" fill="#5a6153" opacity="0.21"/><circle cx="360.9" cy="406.3" r="1.9" fill="#5a6153" opacity="0.44"/><circle cx="441.9" cy="431.8" r="2.0" fill="#5a6153" opacity="0.24"/><circle cx="542.4" cy="463.3" r="1.3" fill="#5a6153" opacity="0.44"/><circle cx="381.0" cy="414.5" r="0.9" fill="#5a6153" opacity="0.19"/><circle cx="507.2" cy="493.7" r="2.0" fill="#5a6153" opacity="0.46"/><circle cx="440.0" cy="527.6" r="2.9" fill="#5a6153" opacity="0.47"/></g><circle cx="400" cy="400" r="108" fill="#83927e" opacity=".6"/><circle cx="400" cy="400" r="99" fill="#96a691"/></g><g transform="translate(550 550) scale(0.8) translate(-400 -400)"><circle cx="400" cy="400" r="150" fill="url(#g144)"/><g clip-path="url(#c144)"><circle cx="250.4" cy="327.0" r="1.7" fill="#5a6153" opacity="0.37"/><circle cx="263.8" cy="465.9" r="1.4" fill="#5a6153" opacity="0.34"/><circle cx="433.5" cy="532.8" r="1.0" fill="#5a6153" opacity="0.50"/><circle cx="540.6" cy="347.2" r="1.4" fill="#5a6153" opacity="0.35"/><circle cx="357.1" cy="305.7" r="1.0" fill="#5a6153" opacity="0.25"/><circle cx="337.9" cy="478.9" r="2.4" fill="#5a6153" opacity="0.25"/><circle cx="342.9" cy="294.1" r="1.2" fill="#5a6153" opacity="0.40"/><circle cx="269.2" cy="545.0" r="1.3" fill="#5a6153" opacity="0.28"/><circle cx="375.3" cy="342.9" r="1.7" fill="#5a6153" opacity="0.34"/><circle cx="377.9" cy="396.2" r="2.2" fill="#5a6153" opacity="0.24"/><circle cx="263.2" cy="343.8" r="1.5" fill="#5a6153" opacity="0.16"/><circle cx="350.2" cy="308.1" r="1.5" fill="#5a6153" opacity="0.24"/><circle cx="549.2" cy="312.2" r="1.0" fill="#5a6153" opacity="0.35"/><circle cx="435.2" cy="350.7" r="1.6" fill="#5a6153" opacity="0.37"/><circle cx="527.1" cy="321.7" r="0.9" fill="#5a6153" opacity="0.26"/><circle cx="345.0" cy="459.0" r="2.0" fill="#5a6153" opacity="0.20"/><circle cx="532.9" cy="271.7" r="3.0" fill="#5a6153" opacity="0.49"/><circle cx="536.7" cy="357.2" r="1.1" fill="#5a6153" opacity="0.21"/><circle cx="451.2" cy="468.4" r="2.2" fill="#5a6153" opacity="0.33"/><circle cx="523.3" cy="463.9" r="1.5" fill="#5a6153" opacity="0.36"/><circle cx="395.2" cy="341.9" r="1.9" fill="#5a6153" opacity="0.16"/><circle cx="463.0" cy="534.9" r="1.7" fill="#5a6153" opacity="0.40"/><circle cx="525.0" cy="502.0" r="2.9" fill="#5a6153" opacity="0.21"/><circle cx="266.9" cy="263.2" r="0.9" fill="#5a6153" opacity="0.25"/><circle cx="388.1" cy="427.8" r="1.9" fill="#5a6153" opacity="0.49"/><circle cx="473.4" cy="267.8" r="1.4" fill="#5a6153" opacity="0.31"/><circle cx="451.9" cy="260.5" r="2.1" fill="#5a6153" opacity="0.18"/><circle cx="341.6" cy="479.8" r="1.2" fill="#5a6153" opacity="0.23"/><circle cx="371.8" cy="302.1" r="1.4" fill="#5a6153" opacity="0.39"/><circle cx="431.3" cy="479.1" r="1.0" fill="#5a6153" opacity="0.18"/><circle cx="253.8" cy="336.0" r="1.9" fill="#5a6153" opacity="0.43"/><circle cx="291.7" cy="343.7" r="1.8" fill="#5a6153" opacity="0.48"/><circle cx="507.4" cy="520.3" r="2.2" fill="#5a6153" opacity="0.30"/><circle cx="295.5" cy="528.2" r="1.8" fill="#5a6153" opacity="0.40"/><circle cx="538.0" cy="466.0" r="1.8" fill="#5a6153" opacity="0.23"/><circle cx="513.0" cy="289.9" r="2.3" fill="#5a6153" opacity="0.44"/><circle cx="378.7" cy="535.0" r="2.7" fill="#5a6153" opacity="0.50"/><circle cx="498.2" cy="319.4" r="1.9" fill="#5a6153" opacity="0.15"/><circle cx="372.6" cy="478.8" r="1.2" fill="#5a6153" opacity="0.47"/><circle cx="404.1" cy="337.9" r="2.5" fill="#5a6153" opacity="0.39"/><circle cx="300.3" cy="361.1" r="3.0" fill="#5a6153" opacity="0.26"/><circle cx="360.9" cy="507.3" r="2.4" fill="#5a6153" opacity="0.45"/><circle cx="523.9" cy="306.5" r="1.3" fill="#5a6153" opacity="0.29"/><circle cx="308.4" cy="543.6" r="3.0" fill="#5a6153" opacity="0.24"/><circle cx="541.3" cy="492.1" r="2.2" fill="#5a6153" opacity="0.19"/><circle cx="498.0" cy="446.3" r="2.2" fill="#5a6153" opacity="0.32"/><circle cx="356.0" cy="294.5" r="2.3" fill="#5a6153" opacity="0.49"/><circle cx="405.8" cy="421.7" r="2.1" fill="#5a6153" opacity="0.47"/><circle cx="388.2" cy="521.3" r="1.8" fill="#5a6153" opacity="0.22"/><circle cx="403.2" cy="382.5" r="2.3" fill="#5a6153" opacity="0.15"/><circle cx="280.9" cy="291.9" r="0.9" fill="#5a6153" opacity="0.49"/><circle cx="278.7" cy="416.4" r="2.6" fill="#5a6153" opacity="0.23"/><circle cx="528.6" cy="478.1" r="2.7" fill="#5a6153" opacity="0.50"/><circle cx="479.8" cy="364.3" r="2.8" fill="#5a6153" opacity="0.22"/><circle cx="343.3" cy="491.9" r="1.4" fill="#5a6153" opacity="0.48"/><circle cx="384.6" cy="504.4" r="1.7" fill="#5a6153" opacity="0.16"/><circle cx="510.1" cy="339.2" r="2.7" fill="#5a6153" opacity="0.16"/><circle cx="469.4" cy="298.5" r="1.6" fill="#5a6153" opacity="0.17"/><circle cx="480.4" cy="380.8" r="1.7" fill="#5a6153" opacity="0.28"/><circle cx="307.6" cy="456.3" r="2.3" fill="#5a6153" opacity="0.24"/><circle cx="475.5" cy="465.3" r="3.1" fill="#5a6153" opacity="0.23"/><circle cx="320.3" cy="422.2" r="2.8" fill="#5a6153" opacity="0.38"/><circle cx="278.6" cy="525.4" r="1.1" fill="#5a6153" opacity="0.20"/><circle cx="278.9" cy="252.9" r="1.2" fill="#5a6153" opacity="0.27"/><circle cx="281.2" cy="492.0" r="2.2" fill="#5a6153" opacity="0.43"/><circle cx="302.1" cy="436.3" r="2.1" fill="#5a6153" opacity="0.36"/><circle cx="447.0" cy="536.2" r="2.9" fill="#5a6153" opacity="0.46"/><circle cx="395.0" cy="513.6" r="2.3" fill="#5a6153" opacity="0.47"/><circle cx="261.2" cy="387.7" r="2.2" fill="#5a6153" opacity="0.41"/><circle cx="441.2" cy="464.6" r="1.0" fill="#5a6153" opacity="0.31"/><circle cx="511.3" cy="472.8" r="2.1" fill="#5a6153" opacity="0.30"/><circle cx="425.3" cy="321.3" r="0.9" fill="#5a6153" opacity="0.26"/><circle cx="416.7" cy="321.9" r="2.1" fill="#5a6153" opacity="0.25"/><circle cx="292.7" cy="431.2" r="3.0" fill="#5a6153" opacity="0.38"/><circle cx="486.8" cy="473.9" r="1.3" fill="#5a6153" opacity="0.29"/><circle cx="316.4" cy="535.8" r="1.1" fill="#5a6153" opacity="0.34"/><circle cx="457.6" cy="287.6" r="3.0" fill="#5a6153" opacity="0.18"/><circle cx="482.4" cy="275.6" r="1.8" fill="#5a6153" opacity="0.16"/><circle cx="340.7" cy="415.1" r="2.6" fill="#5a6153" opacity="0.24"/><circle cx="258.7" cy="520.0" r="2.5" fill="#5a6153" opacity="0.32"/><circle cx="322.9" cy="475.8" r="2.7" fill="#5a6153" opacity="0.38"/><circle cx="502.3" cy="368.9" r="2.8" fill="#5a6153" opacity="0.35"/><circle cx="485.5" cy="355.2" r="2.8" fill="#5a6153" opacity="0.16"/><circle cx="407.4" cy="495.2" r="1.5" fill="#5a6153" opacity="0.40"/><circle cx="253.3" cy="265.8" r="2.9" fill="#5a6153" opacity="0.19"/><circle cx="386.4" cy="292.1" r="1.2" fill="#5a6153" opacity="0.22"/><circle cx="549.5" cy="397.6" r="3.0" fill="#5a6153" opacity="0.42"/><circle cx="406.1" cy="522.1" r="2.3" fill="#5a6153" opacity="0.45"/><circle cx="514.7" cy="330.6" r="2.9" fill="#5a6153" opacity="0.21"/><circle cx="308.5" cy="534.4" r="1.8" fill="#5a6153" opacity="0.33"/><circle cx="460.8" cy="340.7" r="1.4" fill="#5a6153" opacity="0.16"/><circle cx="281.5" cy="354.6" r="1.0" fill="#5a6153" opacity="0.29"/><circle cx="549.1" cy="541.7" r="2.8" fill="#5a6153" opacity="0.22"/><circle cx="500.1" cy="370.3" r="2.5" fill="#5a6153" opacity="0.45"/><circle cx="251.6" cy="322.7" r="2.4" fill="#5a6153" opacity="0.42"/><circle cx="458.8" cy="290.4" r="1.0" fill="#5a6153" opacity="0.18"/><circle cx="358.5" cy="446.5" r="1.6" fill="#5a6153" opacity="0.26"/><circle cx="284.3" cy="282.5" r="2.2" fill="#5a6153" opacity="0.50"/><circle cx="312.9" cy="543.0" r="1.0" fill="#5a6153" opacity="0.45"/><circle cx="338.5" cy="483.8" r="0.9" fill="#5a6153" opacity="0.23"/><circle cx="372.5" cy="411.0" r="2.0" fill="#5a6153" opacity="0.23"/><circle cx="536.2" cy="299.3" r="2.3" fill="#5a6153" opacity="0.25"/><circle cx="447.9" cy="479.8" r="1.8" fill="#5a6153" opacity="0.49"/><circle cx="318.4" cy="395.7" r="3.0" fill="#5a6153" opacity="0.33"/><circle cx="513.3" cy="454.7" r="1.9" fill="#5a6153" opacity="0.41"/><circle cx="487.8" cy="424.6" r="1.8" fill="#5a6153" opacity="0.18"/><circle cx="477.8" cy="294.4" r="1.0" fill="#5a6153" opacity="0.29"/><circle cx="288.4" cy="543.3" r="2.9" fill="#5a6153" opacity="0.15"/><circle cx="505.4" cy="544.0" r="2.0" fill="#5a6153" opacity="0.24"/><circle cx="506.1" cy="406.2" r="1.2" fill="#5a6153" opacity="0.29"/><circle cx="469.2" cy="489.9" r="2.2" fill="#5a6153" opacity="0.35"/><circle cx="394.2" cy="509.8" r="2.9" fill="#5a6153" opacity="0.50"/><circle cx="280.9" cy="422.6" r="2.1" fill="#5a6153" opacity="0.29"/><circle cx="292.2" cy="526.1" r="3.0" fill="#5a6153" opacity="0.17"/><circle cx="260.5" cy="516.5" r="2.5" fill="#5a6153" opacity="0.27"/><circle cx="312.8" cy="333.6" r="2.3" fill="#5a6153" opacity="0.20"/><circle cx="252.4" cy="425.5" r="2.2" fill="#5a6153" opacity="0.32"/><circle cx="535.6" cy="331.8" r="2.0" fill="#5a6153" opacity="0.23"/><circle cx="530.9" cy="280.0" r="1.5" fill="#5a6153" opacity="0.33"/><circle cx="461.8" cy="508.5" r="2.6" fill="#5a6153" opacity="0.42"/></g><circle cx="400" cy="400" r="108" fill="#83927e" opacity=".6"/><circle cx="400" cy="400" r="99" fill="#96a691"/></g>
</svg>