<svg xmlns="http://www.w3.org/2000/svg" viewBox="140 220 520 520" width="800" height="800" role="img" aria-hidden="true">
<defs><filter id="blur" x="-20%" y="-50%" width="140%" height="200%"><feGaussianBlur stdDeviation="9"/></filter><linearGradient id="g151" x1="0" x2="1"><stop offset="0" stop-color="#75816f"/><stop offset=".28" stop-color="#9cab98"/><stop offset=".55" stop-color="#8FA08A"/><stop offset="1" stop-color="#6c7665"/></linearGradient>
<linearGradient id="v151" x1="0" y1="0" x2="0" y2="1"><stop offset="0" stop-color="#9aaa96"/><stop offset="1" stop-color="#7a8774"/></linearGradient><clipPath id="c151"><ellipse cx="400" cy="600" rx="270" ry="72.9"/></clipPath><linearGradient id="g152" x1="0" x2="1"><stop offset="0" stop-color="#75816f"/><stop offset=".28" stop-color="#9cab98"/><stop offset=".55" stop-color="#8FA08A"/><stop offset="1" stop-color="#6c7665"/></linearGradient>
<linearGradient id="v152" x1="0" y1="0" x2="0" y2="1"><stop offset="0" stop-color="#9aaa96"/><stop offset="1" stop-color="#7a8774"/></linearGradient><clipPath id="c152"><path d="M300,410 L500,410 L482,610 Q478,650 438,650 L362,650 Q322,650 318,610 Z"/></clipPath><linearGradient id="g153" x1="0" x2="1"><stop offset="0" stop-color="#75816f"/><stop offset=".28" stop-color="#9cab98"/><stop offset=".55" stop-color="#8FA08A"/><stop offset="1" stop-color="#6c7665"/></linearGradient>
<linearGradient id="v153" x1="0" y1="0" x2="0" y2="1"><stop offset="0" stop-color="#9aaa96"/><stop offset="1" stop-color="#7a8774"/></linearGradient><clipPath id="c153"><path d="M250,430 C264,630 370,650 400,650 C430,650 536,630 550,430 Z"/></clipPath></defs>
<rect x="0" y="0" width="800" height="800" fill="#EFE8DD"/><rect y="610" width="800" height="190" fill="#E3D9CB"/>
<ellipse cx="400" cy="671" rx="248" ry="29" fill="#5b4a38" opacity=".22" filter="url(#blur)"/><ellipse cx="185" cy="651" rx="103" ry="12" fill="#5b4a38" opacity=".22" filter="url(#blur)"/><ellipse cx="635" cy="661" rx="95" ry="11" fill="#5b4a38" opacity=".22" filter="url(#blur)"/><g transform="translate(400 690) scale(0.9) translate(-400 -650)"><ellipse cx="400" cy="616" rx="270" ry="72.9" fill="#6a7363"/>
<ellipse cx="400" cy="600" rx="270" ry="72.9" fill="url(#g151)"/><g clip-path="url(#c151)"><circle cx="130.5" cy="534.0" r="1.3" fill="#5a6153" opacity="0.48"/><circle cx="668.7" cy="631.1" r="2.5" fill="#5a6153" opacity="0.44"/><circle cx="602.0" cy="531.8" r="2.6" fill="#5a6153" opacity="0.28"/><circle cx="334.0" cy="558.9" r="2.0" fill="#5a6153" opacity="0.37"/><circle cx="605.3" cy="664.0" r="2.6" fill="#5a6153" opacity="0.20"/><circle cx="634.0" cy="641.7" r="2.8" fill="#5a6153" opacity="0.33"/><circle cx="255.5" cy="568.7" r="1.4" fill="#5a6153" opacity="0.42"/><circle cx="536.0" cy="606.6" r="1.0" fill="#5a6153" opacity="0.50"/><circle cx="140.4" cy="642.4" r="2.6" fill="#5a6153" opacity="0.17"/><circle cx="228.2" cy="568.2" r="2.9" fill="#5a6153" opacity="0.35"/><circle cx="204.9" cy="654.1" r="1.2" fill="#5a6153" opacity="0.47"/><circle cx="392.0" cy="653.6" r="1.0" fill="#5a6153" opacity="0.48"/><circle cx="276.1" cy="562.4" r="2.0" fill="#5a6153" opacity="0.25"/><circle cx="134.6" cy="605.6" r="2.7" fill="#5a6153" opacity="0.26"/><circle cx="321.8" cy="602.1" r="2.9" fill="#5a6153" opacity="0.29"/><circle cx="328.5" cy="607.6" r="3.1" fill="#5a6153" opacity="0.47"/><circle cx="330.0" cy="565.8" r="1.9" fill="#5a6153" opacity="0.17"/><circle cx="468.7" cy="672.5" r="1.1" fill="#5a6153" opacity="0.45"/><circle cx="564.1" cy="597.9" r="2.3" fill="#5a6153" opacity="0.38"/><circle cx="561.8" cy="543.2" r="2.9" fill="#5a6153" opacity="0.49"/><circle cx="666.6" cy="570.0" r="2.9" fill="#5a6153" opacity="0.50"/><circle cx="630.1" cy="644.4" r="2.7" fill="#5a6153" opacity="0.33"/><circle cx="634.3" cy="586.3" r="1.9" fill="#5a6153" opacity="0.28"/><circle cx="574.9" cy="617.4" r="1.1" fill="#5a6153" opacity="0.22"/><circle cx="277.9" cy="624.0" r="2.8" fill="#5a6153" opacity="0.39"/><circle cx="427.6" cy="539.6" r="1.0" fill="#5a6153" opacity="0.41"/><circle cx="537.1" cy="635.3" r="2.8" fill="#5a6153" opacity="0.16"/><circle cx="239.6" cy="645.9" r="2.1" fill="#5a6153" opacity="0.25"/><circle cx="486.0" cy="624.8" r="1.4" fill="#5a6153" opacity="0.41"/><circle cx="395.5" cy="666.4" r="1.3" fill="#5a6153" opacity="0.47"/><circle cx="184.4" cy="600.0" r="1.7" fill="#5a6153" opacity="0.34"/><circle cx="280.6" cy="614.3" r="1.8" fill="#5a6153" opacity="0.24"/><circle cx="167.4" cy="635.0" r="1.3" fill="#5a6153" opacity="0.34"/><circle cx="314.1" cy="545.2" r="1.0" fill="#5a6153" opacity="0.26"/><circle cx="652.9" cy="672.8" r="2.3" fill="#5a6153" opacity="0.21"/><circle cx="666.4" cy="608.7" r="2.7" fill="#5a6153" opacity="0.18"/><circle cx="650.1" cy="653.9" r="1.5" fill="#5a6153" opacity="0.47"/><circle cx="540.1" cy="614.4" r="2.2" fill="#5a6153" opacity="0.24"/><circle cx="332.9" cy="581.1" r="3.0" fill="#5a6153" opacity="0.42"/><circle cx="377.8" cy="593.1" r="2.7" fill="#5a6153" opacity="0.49"/><circle cx="257.8" cy="545.3" r="2.0" fill="#5a6153" opacity="0.43"/><circle cx="379.4" cy="527.7" r="1.0" fill="#5a6153" opacity="0.26"/><circle cx="450.4" cy="535.6" r="0.9" fill="#5a6153" opacity="0.17"/><circle cx="262.4" cy="642.0" r="2.4" fill="#5a6153" opacity="0.35"/><circle cx="601.4" cy="597.6" r="2.1" fill="#5a6153" opacity="0.34"/><circle cx="476.7" cy="553.4" r="2.4" fill="#5a6153" opacity="0.38"/><circle cx="400.4" cy="565.1" r="2.9" fill="#5a6153" opacity="0.46"/><circle cx="408.3" cy="530.7" r="2.0" fill="#5a6153" opacity="0.40"/><circle cx="263.9" cy="635.4" r="1.3" fill="#5a6153" opacity="0.29"/><circle cx="166.1" cy="555.4" r="2.2" fill="#5a6153" opacity="0.36"/><circle cx="160.1" cy="624.7" r="1.8" fill="#5a6153" opacity="0.30"/><circle cx="591.6" cy="570.3" r="2.1" fill="#5a6153" opacity="0.42"/><circle cx="464.2" cy="601.7" r="1.7" fill="#5a6153" opacity="0.48"/><circle cx="499.7" cy="531.4" r="1.0" fill="#5a6153" opacity="0.26"/><circle cx="501.5" cy="555.9" r="2.0" fill="#5a6153" opacity="0.27"/><circle cx="181.7" cy="534.2" r="2.0" fill="#5a6153" opacity="0.48"/><circle cx="150.3" cy="622.0" r="1.9" fill="#5a6153" opacity="0.22"/><circle cx="316.7" cy="648.0" r="2.3" fill="#5a6153" opacity="0.35"/><circle cx="325.3" cy="670.2" r="3.0" fill="#5a6153" opacity="0.40"/><circle cx="289.2" cy="587.6" r="2.0" fill="#5a6153" opacity="0.43"/><circle cx="423.5" cy="621.4" r="1.0" fill="#5a6153" opacity="0.29"/><circle cx="426.6" cy="644.5" r="2.8" fill="#5a6153" opacity="0.41"/><circle cx="626.6" cy="555.5" r="1.0" fill="#5a6153" opacity="0.19"/><circle cx="318.4" cy="634.2" r="2.9" fill="#5a6153" opacity="0.49"/><circle cx="272.7" cy="531.3" r="1.0" fill="#5a6153" opacity="0.17"/><circle cx="393.7" cy="542.0" r="2.1" fill="#5a6153" opacity="0.49"/><circle cx="242.6" cy="644.9" r="1.1" fill="#5a6153" opacity="0.17"/><circle cx="610.3" cy="590.7" r="1.2" fill="#5a6153" opacity="0.36"/><circle cx="433.6" cy="650.2" r="1.9" fill="#5a6153" opacity="0.38"/><circle cx="549.9" cy="619.2" r="2.1" fill="#5a6153" opacity="0.30"/><circle cx="488.6" cy="582.6" r="1.8" fill="#5a6153" opacity="0.48"/><circle cx="548.3" cy="528.1" r="2.3" fill="#5a6153" opacity="0.35"/><circle cx="304.5" cy="611.6" r="1.0" fill="#5a6153" opacity="0.24"/><circle cx="415.3" cy="581.7" r="2.0" fill="#5a6153" opacity="0.29"/><circle cx="544.8" cy="590.6" r="2.9" fill="#5a6153" opacity="0.49"/><circle cx="638.5" cy="652.3" r="2.4" fill="#5a6153" opacity="0.25"/><circle cx="608.3" cy="670.3" r="2.4" fill="#5a6153" opacity="0.46"/><circle cx="335.1" cy="574.8" r="1.0" fill="#5a6153" opacity="0.22"/><circle cx="441.7" cy="634.2" r="1.4" fill="#5a6153" opacity="0.42"/><circle cx="373.8" cy="632.9" r="1.3" fill="#5a6153" opacity="0.48"/><circle cx="247.9" cy="663.3" r="1.2" fill="#5a6153" opacity="0.34"/><circle cx="405.7" cy="597.5" r="2.9" fill="#5a6153" opacity="0.41"/><circle cx="241.3" cy="609.2" r="2.2" fill="#5a6153" opacity="0.21"/><circle cx="642.0" cy="602.6" r="1.0" fill="#5a6153" opacity="0.26"/><circle cx="169.8" cy="607.0" r="1.1" fill="#5a6153" opacity="0.49"/><circle cx="647.1" cy="600.1" r="2.4" fill="#5a6153" opacity="0.46"/><circle cx="634.2" cy="565.0" r="1.3" fill="#5a6153" opacity="0.39"/><circle cx="254.4" cy="552.3" r="1.1" fill="#5a6153" opacity="0.39"/><circle cx="142.8" cy="656.6" r="1.7" fill="#5a6153" opacity="0.27"/><circle cx="536.1" cy="665.0" r="1.1" fill="#5a6153" opacity="0.42"/></g>
<ellipse cx="400" cy="604" rx="194.4" ry="51.03" fill="#818f7b" opacity=".55"/><ellipse cx="400" cy="608" rx="178.20000000000002" ry="45.198" fill="#98a893"/>
<path d="M154,592 Q400,525.1 630,586" fill="none" stroke="#fff" stroke-width="7" stroke-linecap="round" opacity=".28"/></g><g transform="translate(185 645) scale(0.72) translate(-400 -650)"><path d="M494,462.8 C610,458 610,592.4 478,582.8" fill="none" stroke="#818f7b" stroke-width="36" stroke-linecap="round"/><path d="M494,462.8 C610,458 610,592.4 478,582.8" fill="none" stroke="#8FA08A" stroke-width="24" stroke-linecap="round" opacity=".9"/>
<path d="M300,410 L500,410 L482,610 Q478,650 438,650 L362,650 Q322,650 318,610 Z" fill="url(#g152)"/><g clip-path="url(#c152)"><circle cx="300.2" cy="591.8" r="0.9" fill="#5a6153" opacity="0.47"/><circle cx="484.7" cy="544.3" r="1.7" fill="#5a6153" opacity="0.38"/><circle cx="441.0" cy="454.0" r="2.6" fill="#5a6153" opacity="0.19"/><circle cx="336.1" cy="570.1" r="1.4" fill="#5a6153" opacity="0.33"/><circle cx="421.0" cy="419.4" r="2.6" fill="#5a6153" opacity="0.16"/><circle cx="372.1" cy="581.4" r="2.0" fill="#5a6153" opacity="0.36"/><circle cx="346.5" cy="442.5" r="1.8" fill="#5a6153" opacity="0.25"/><circle cx="332.0" cy="568.6" r="2.8" fill="#5a6153" opacity="0.46"/><circle cx="386.2" cy="507.9" r="1.7" fill="#5a6153" opacity="0.26"/><circle cx="381.2" cy="437.7" r="2.6" fill="#5a6153" opacity="0.26"/><circle cx="370.0" cy="564.6" r="2.1" fill="#5a6153" opacity="0.40"/><circle cx="491.0" cy="605.0" r="1.5" fill="#5a6153" opacity="0.30"/><circle cx="463.2" cy="629.7" r="1.9" fill="#5a6153" opacity="0.32"/><circle cx="319.9" cy="437.0" r="2.0" fill="#5a6153" opacity="0.32"/><circle cx="436.0" cy="454.1" r="2.5" fill="#5a6153" opacity="0.21"/><circle cx="325.6" cy="436.5" r="2.4" fill="#5a6153" opacity="0.17"/><circle cx="339.3" cy="574.8" r="2.9" fill="#5a6153" opacity="0.24"/><circle cx="489.6" cy="639.5" r="2.2" fill="#5a6153" opacity="0.45"/><circle cx="381.2" cy="497.7" r="2.0" fill="#5a6153" opacity="0.40"/><circle cx="306.5" cy="592.7" r="2.6" fill="#5a6153" opacity="0.49"/><circle cx="451.1" cy="631.8" r="1.2" fill="#5a6153" opacity="0.48"/><circle cx="342.7" cy="647.2" r="1.7" fill="#5a6153" opacity="0.48"/><circle cx="485.4" cy="639.7" r="1.9" fill="#5a6153" opacity="0.27"/><circle cx="377.4" cy="480.1" r="2.6" fill="#5a6153" opacity="0.22"/><circle cx="426.2" cy="554.9" r="1.7" fill="#5a6153" opacity="0.18"/><circle cx="407.2" cy="450.5" r="2.6" fill="#5a6153" opacity="0.18"/><circle cx="450.4" cy="451.6" r="1.6" fill="#5a6153" opacity="0.31"/><circle cx="330.1" cy="480.8" r="3.0" fill="#5a6153" opacity="0.16"/><circle cx="473.8" cy="469.9" r="1.7" fill="#5a6153" opacity="0.39"/><circle cx="413.7" cy="583.1" r="1.9" fill="#5a6153" opacity="0.36"/><circle cx="356.7" cy="426.7" r="1.8" fill="#5a6153" opacity="0.48"/><circle cx="425.7" cy="608.2" r="2.2" fill="#5a6153" opacity="0.29"/><circle cx="384.2" cy="618.3" r="2.5" fill="#5a6153" opacity="0.16"/><circle cx="359.0" cy="645.6" r="1.1" fill="#5a6153" opacity="0.27"/><circle cx="393.0" cy="630.1" r="1.5" fill="#5a6153" opacity="0.20"/><circle cx="432.9" cy="645.2" r="1.1" fill="#5a6153" opacity="0.15"/><circle cx="449.2" cy="454.0" r="1.2" fill="#5a6153" opacity="0.24"/><circle cx="307.4" cy="637.9" r="2.3" fill="#5a6153" opacity="0.41"/><circle cx="302.8" cy="642.1" r="1.1" fill="#5a6153" opacity="0.48"/><circle cx="321.2" cy="630.6" r="2.9" fill="#5a6153" opacity="0.30"/><circle cx="391.7" cy="486.4" r="2.1" fill="#5a6153" opacity="0.30"/><circle cx="466.1" cy="584.2" r="2.1" fill="#5a6153" opacity="0.21"/><circle cx="482.1" cy="504.1" r="2.4" fill="#5a6153" opacity="0.35"/><circle cx="388.7" cy="625.2" r="2.2" fill="#5a6153" opacity="0.26"/><circle cx="332.5" cy="467.5" r="2.5" fill="#5a6153" opacity="0.31"/><circle cx="337.2" cy="424.5" r="1.3" fill="#5a6153" opacity="0.42"/><circle cx="494.4" cy="424.0" r="2.5" fill="#5a6153" opacity="0.40"/><circle cx="453.4" cy="461.9" r="2.2" fill="#5a6153" opacity="0.26"/><circle cx="310.6" cy="499.0" r="1.0" fill="#5a6153" opacity="0.29"/><circle cx="386.9" cy="510.7" r="1.6" fill="#5a6153" opacity="0.27"/><circle cx="302.5" cy="601.5" r="1.5" fill="#5a6153" opacity="0.45"/><circle cx="484.3" cy="423.8" r="2.1" fill="#5a6153" opacity="0.31"/><circle cx="492.7" cy="624.5" r="2.8" fill="#5a6153" opacity="0.27"/><circle cx="381.0" cy="533.8" r="1.7" fill="#5a6153" opacity="0.36"/><circle cx="319.4" cy="501.7" r="1.2" fill="#5a6153" opacity="0.35"/><circle cx="422.8" cy="619.6" r="2.1" fill="#5a6153" opacity="0.43"/><circle cx="362.4" cy="411.8" r="1.2" fill="#5a6153" opacity="0.18"/><circle cx="488.0" cy="588.9" r="2.8" fill="#5a6153" opacity="0.20"/><circle cx="386.6" cy="599.9" r="2.6" fill="#5a6153" opacity="0.35"/><circle cx="319.4" cy="461.2" r="2.3" fill="#5a6153" opacity="0.32"/><circle cx="300.6" cy="497.1" r="1.1" fill="#5a6153" opacity="0.46"/><circle cx="359.3" cy="543.2" r="2.8" fill="#5a6153" opacity="0.41"/><circle cx="323.2" cy="459.8" r="1.1" fill="#5a6153" opacity="0.19"/><circle cx="380.5" cy="455.7" r="1.1" fill="#5a6153" opacity="0.29"/><circle cx="327.3" cy="620.2" r="2.4" fill="#5a6153" opacity="0.47"/><circle cx="440.9" cy="620.1" r="2.6" fill="#5a6153" opacity="0.16"/><circle cx="328.1" cy="648.1" r="2.8" fill="#5a6153" opacity="0.44"/><circle cx="488.6" cy="527.9" r="2.1" fill="#5a6153" opacity="0.47"/><circle cx="426.0" cy="492.6" r="1.9" fill="#5a6153" opacity="0.27"/><circle cx="475.4" cy="607.2" r="1.0" fill="#5a6153" opacity="0.18"/></g>
<ellipse cx="400" cy="410" rx="100" ry="26" fill="#a3b19f"/><ellipse cx="400" cy="413" rx="86" ry="19" fill="#555a4d"/>
<path d="M326,470 Q320,530 336,602" fill="none" stroke="#fff" stroke-width="10" stroke-linecap="round" opacity=".16"/></g><g transform="translate(635 655) scale(0.62) translate(-400 -650)"><path d="M250,430 C264,630 370,650 400,650 C430,650 536,630 550,430 Z" fill="url(#g153)"/><g clip-path="url(#c153)"><circle cx="250.3" cy="532.9" r="2.7" fill="#5a6153" opacity="0.46"/><circle cx="504.9" cy="519.3" r="3.0" fill="#5a6153" opacity="0.32"/><circle cx="410.8" cy="503.6" r="2.5" fill="#5a6153" opacity="0.46"/><circle cx="544.9" cy="455.7" r="2.9" fill="#5a6153" opacity="0.29"/><circle cx="349.0" cy="460.7" r="2.5" fill="#5a6153" opacity="0.46"/><circle cx="486.4" cy="571.3" r="1.3" fill="#5a6153" opacity="0.40"/><circle cx="319.8" cy="646.8" r="2.2" fill="#5a6153" opacity="0.42"/><circle cx="420.4" cy="600.8" r="2.5" fill="#5a6153" opacity="0.43"/><circle cx="502.9" cy="435.4" r="2.9" fill="#5a6153" opacity="0.35"/><circle cx="439.2" cy="638.7" r="2.4" fill="#5a6153" opacity="0.17"/><circle cx="418.5" cy="521.8" r="3.0" fill="#5a6153" opacity="0.32"/><circle cx="377.4" cy="596.7" r="1.9" fill="#5a6153" opacity="0.48"/><circle cx="358.3" cy="559.6" r="1.9" fill="#5a6153" opacity="0.40"/><circle cx="307.2" cy="581.0" r="1.3" fill="#5a6153" opacity="0.38"/><circle cx="251.4" cy="617.7" r="2.1" fill="#5a6153" opacity="0.49"/><circle cx="516.6" cy="577.3" r="1.8" fill="#5a6153" opacity="0.23"/><circle cx="256.9" cy="453.9" r="1.7" fill="#5a6153" opacity="0.30"/><circle cx="330.7" cy="631.3" r="1.1" fill="#5a6153" opacity="0.45"/><circle cx="252.4" cy="483.9" r="1.8" fill="#5a6153" opacity="0.41"/><circle cx="329.5" cy="520.7" r="2.4" fill="#5a6153" opacity="0.50"/><circle cx="405.1" cy="551.9" r="1.6" fill="#5a6153" opacity="0.46"/><circle cx="400.2" cy="467.9" r="3.0" fill="#5a6153" opacity="0.28"/><circle cx="525.9" cy="541.9" r="2.0" fill="#5a6153" opacity="0.27"/><circle cx="535.1" cy="642.2" r="1.9" fill="#5a6153" opacity="0.22"/><circle cx="546.4" cy="549.6" r="2.8" fill="#5a6153" opacity="0.32"/><circle cx="406.3" cy="485.4" r="2.0" fill="#5a6153" opacity="0.29"/><circle cx="475.2" cy="563.1" r="2.5" fill="#5a6153" opacity="0.46"/><circle cx="279.6" cy="600.5" r="1.7" fill="#5a6153" opacity="0.41"/><circle cx="273.5" cy="612.4" r="1.9" fill="#5a6153" opacity="0.37"/><circle cx="443.7" cy="537.2" r="2.6" fill="#5a6153" opacity="0.26"/><circle cx="390.0" cy="570.6" r="1.9" fill="#5a6153" opacity="0.26"/><circle cx="543.3" cy="441.7" r="2.7" fill="#5a6153" opacity="0.33"/><circle cx="481.8" cy="649.1" r="1.5" fill="#5a6153" opacity="0.33"/><circle cx="324.9" cy="614.6" r="1.1" fill="#5a6153" opacity="0.28"/><circle cx="538.5" cy="613.7" r="2.9" fill="#5a6153" opacity="0.20"/><circle cx="350.8" cy="518.1" r="1.6" fill="#5a6153" opacity="0.47"/><circle cx="408.7" cy="539.4" r="3.1" fill="#5a6153" opacity="0.36"/><circle cx="344.4" cy="496.0" r="2.4" fill="#5a6153" opacity="0.23"/><circle cx="445.8" cy="554.1" r="1.4" fill="#5a6153" opacity="0.20"/><circle cx="476.0" cy="514.8" r="0.9" fill="#5a6153" opacity="0.45"/><circle cx="454.2" cy="542.6" r="2.2" fill="#5a6153" opacity="0.18"/><circle cx="309.9" cy="528.5" r="1.1" fill="#5a6153" opacity="0.16"/><circle cx="318.4" cy="589.8" r="1.8" fill="#5a6153" opacity="0.18"/><circle cx="442.5" cy="431.2" r="2.0" fill="#5a6153" opacity="0.17"/><circle cx="385.7" cy="649.2" r="2.9" fill="#5a6153" opacity="0.28"/><circle cx="468.9" cy="636.9" r="2.5" fill="#5a6153" opacity="0.46"/><circle cx="383.1" cy="618.5" r="2.2" fill="#5a6153" opacity="0.33"/><circle cx="255.6" cy="519.6" r="2.5" fill="#5a6153" opacity="0.46"/><circle cx="507.5" cy="649.8" r="2.8" fill="#5a6153" opacity="0.29"/><circle cx="490.7" cy="572.0" r="0.9" fill="#5a6153" opacity="0.17"/><circle cx="540.8" cy="633.8" r="1.1" fill="#5a6153" opacity="0.24"/><circle cx="546.4" cy="610.1" r="2.1" fill="#5a6153" opacity="0.20"/><circle cx="342.5" cy="490.8" r="1.7" fill="#5a6153" opacity="0.41"/><circle cx="287.7" cy="430.6" r="2.3" fill="#5a6153" opacity="0.47"/><circle cx="402.0" cy="554.8" r="2.6" fill="#5a6153" opacity="0.44"/><circle cx="289.8" cy="583.6" r="2.1" fill="#5a6153" opacity="0.38"/><circle cx="426.0" cy="510.0" r="2.7" fill="#5a6153" opacity="0.48"/><circle cx="410.2" cy="575.6" r="1.2" fill="#5a6153" opacity="0.40"/><circle cx="401.3" cy="562.2" r="2.3" fill="#5a6153" opacity="0.30"/><circle cx="519.6" cy="432.5" r="2.5" fill="#5a6153" opacity="0.21"/><circle cx="388.8" cy="447.5" r="1.3" fill="#5a6153" opacity="0.28"/><circle cx="263.0" cy="497.1" r="2.8" fill="#5a6153" opacity="0.41"/><circle cx="343.7" cy="478.4" r="1.1" fill="#5a6153" opacity="0.20"/><circle cx="386.8" cy="572.0" r="1.4" fill="#5a6153" opacity="0.44"/><circle cx="252.7" cy="589.1" r="1.7" fill="#5a6153" opacity="0.43"/><circle cx="526.1" cy="572.7" r="3.1" fill="#5a6153" opacity="0.18"/><circle cx="271.8" cy="468.9" r="2.3" fill="#5a6153" opacity="0.36"/><circle cx="549.1" cy="550.1" r="2.9" fill="#5a6153" opacity="0.23"/><circle cx="459.5" cy="615.6" r="1.9" fill="#5a6153" opacity="0.16"/><circle cx="542.8" cy="432.7" r="2.0" fill="#5a6153" opacity="0.42"/><circle cx="462.2" cy="578.5" r="1.7" fill="#5a6153" opacity="0.33"/><circle cx="286.0" cy="500.3" r="1.3" fill="#5a6153" opacity="0.47"/><circle cx="534.8" cy="469.2" r="2.2" fill="#5a6153" opacity="0.27"/><circle cx="314.4" cy="443.4" r="2.1" fill="#5a6153" opacity="0.16"/><circle cx="391.8" cy="636.4" r="0.9" fill="#5a6153" opacity="0.37"/><circle cx="263.2" cy="525.7" r="1.1" fill="#5a6153" opacity="0.41"/><circle cx="356.0" cy="547.9" r="2.2" fill="#5a6153" opacity="0.21"/><circle cx="422.6" cy="513.7" r="2.8" fill="#5a6153" opacity="0.45"/><circle cx="543.7" cy="434.9" r="2.6" fill="#5a6153" opacity="0.16"/><circle cx="301.2" cy="634.6" r="2.7" fill="#5a6153" opacity="0.26"/></g>
<ellipse cx="400" cy="430" rx="150" ry="40" fill="#a1af9d"/><ellipse cx="400" cy="434" rx="136" ry="31" fill="#606859"/>
<path d="M286,500 Q300,580 370,620" fill="none" stroke="#fff" stroke-width="9" stroke-linecap="round" opacity=".18"/></g>
</svg>