<svg xmlns="http://www.w3.org/2000/svg" viewBox="140 220 520 520" width="800" height="800" role="img" aria-hidden="true">
<defs><filter id="blur" x="-20%" y="-50%" width="140%" height="200%"><feGaussianBlur stdDeviation="9"/></filter><linearGradient id="g151" x1="0" x2="1"><stop offset="0" stop-color="#c6c1ba"/><stop offset=".28" stop-color="#f7f4ed"/><stop offset=".55" stop-color="#F6F2EA"/><stop offset="1" stop-color="#b4afa9"/></linearGradient>
<linearGradient id="v151" x1="0" y1="0" x2="0" y2="1"><stop offset="0" stop-color="#f7f3ec"/><stop offset="1" stop-color="#cecac3"/></linearGradient><clipPath id="c151"><ellipse cx="400" cy="600" rx="270" ry="72.9"/></clipPath><linearGradient id="g152" x1="0" x2="1"><stop offset="0" stop-color="#c6c1ba"/><stop offset=".28" stop-color="#f7f4ed"/><stop offset=".55" stop-color="#F6F2EA"/><stop offset="1" stop-color="#b4afa9"/></linearGradient>
<linearGradient id="v152" x1="0" y1="0" x2="0" y2="1"><stop offset="0" stop-color="#f7f3ec"/><stop offset="1" stop-color="#cecac3"/></linearGradient><clipPath id="c152"><path d="M300,410 L500,410 L482,610 Q478,650 438,650 L362,650 Q322,650 318,610 Z"/></clipPath><linearGradient id="g153" x1="0" x2="1"><stop offset="0" stop-color="#c6c1ba"/><stop offset=".28" stop-color="#f7f4ed"/><stop offset=".55" stop-color="#F6F2EA"/><stop offset="1" stop-color="#b4afa9"/></linearGradient>
<linearGradient id="v153" x1="0" y1="0" x2="0" y2="1"><stop offset="0" stop-color="#f7f3ec"/><stop offset="1" stop-color="#cecac3"/></linearGradient><clipPath id="c153"><path d="M250,430 C264,630 370,650 400,650 C430,650 536,630 550,430 Z"/></clipPath></defs>
<rect x="0" y="0" width="800" height="800" fill="#EFE8DD"/><rect y="610" width="800" height="190" fill="#E3D9CB"/>
<ellipse cx="400" cy="671" rx="248" ry="29" fill="#5b4a38" opacity=".22" filter="url(#blur)"/><ellipse cx="185" cy="651" rx="103" ry="12" fill="#5b4a38" opacity=".22" filter="url(#blur)"/><ellipse cx="635" cy="661" rx="95" ry="11" fill="#5b4a38" opacity=".22" filter="url(#blur)"/><g transform="translate(400 690) scale(0.9) translate(-400 -650)"><ellipse cx="400" cy="616" rx="270" ry="72.9" fill="#b0aba4"/>
<ellipse cx="400" cy="600" rx="270" ry="72.9" fill="url(#g151)"/><g clip-path="url(#c151)"><circle cx="130.5" cy="553.2" r="2.9" fill="#938e88" opacity="0.29"/><circle cx="416.4" cy="663.0" r="2.6" fill="#938e88" opacity="0.33"/><circle cx="428.9" cy="668.1" r="1.3" fill="#938e88" opacity="0.46"/><circle cx="242.7" cy="563.9" r="2.1" fill="#938e88" opacity="0.20"/><circle cx="427.7" cy="665.2" r="1.2" fill="#938e88" opacity="0.23"/><circle cx="319.4" cy="596.1" r="1.9" fill="#938e88" opacity="0.31"/><circle cx="172.4" cy="645.5" r="1.6" fill="#938e88" opacity="0.30"/><circle cx="220.7" cy="563.0" r="3.0" fill="#938e88" opacity="0.41"/><circle cx="282.1" cy="649.3" r="2.1" fill="#938e88" opacity="0.28"/><circle cx="569.9" cy="532.7" r="2.9" fill="#938e88" opacity="0.48"/><circle cx="338.3" cy="651.6" r="2.8" fill="#938e88" opacity="0.38"/><circle cx="203.9" cy="664.2" r="2.4" fill="#938e88" opacity="0.44"/><circle cx="423.4" cy="626.0" r="1.5" fill="#938e88" opacity="0.42"/><circle cx="263.0" cy="645.7" r="1.3" fill="#938e88" opacity="0.32"/><circle cx="584.5" cy="587.1" r="2.7" fill="#938e88" opacity="0.31"/><circle cx="277.1" cy="535.3" r="2.0" fill="#938e88" opacity="0.23"/><circle cx="322.8" cy="637.8" r="2.5" fill="#938e88" opacity="0.21"/><circle cx="440.5" cy="537.5" r="2.2" fill="#938e88" opacity="0.24"/><circle cx="173.8" cy="585.4" r="1.2" fill="#938e88" opacity="0.19"/><circle cx="529.9" cy="550.5" r="2.3" fill="#938e88" opacity="0.41"/><circle cx="573.6" cy="588.3" r="3.0" fill="#938e88" opacity="0.39"/><circle cx="559.0" cy="590.4" r="2.1" fill="#938e88" opacity="0.23"/><circle cx="634.0" cy="570.0" r="2.4" fill="#938e88" opacity="0.39"/><circle cx="224.4" cy="546.4" r="2.4" fill="#938e88" opacity="0.17"/><circle cx="500.4" cy="600.8" r="1.2" fill="#938e88" opacity="0.18"/><circle cx="177.7" cy="607.8" r="1.6" fill="#938e88" opacity="0.48"/><circle cx="620.1" cy="572.8" r="2.4" fill="#938e88" opacity="0.17"/><circle cx="528.2" cy="572.7" r="2.0" fill="#938e88" opacity="0.16"/><circle cx="245.5" cy="608.9" r="2.8" fill="#938e88" opacity="0.35"/><circle cx="481.8" cy="551.7" r="2.9" fill="#938e88" opacity="0.16"/><circle cx="233.6" cy="640.0" r="1.7" fill="#938e88" opacity="0.49"/><circle cx="295.1" cy="572.0" r="1.7" fill="#938e88" opacity="0.33"/><circle cx="265.1" cy="535.5" r="1.1" fill="#938e88" opacity="0.22"/><circle cx="395.3" cy="644.6" r="1.9" fill="#938e88" opacity="0.39"/><circle cx="382.8" cy="548.5" r="1.4" fill="#938e88" opacity="0.15"/><circle cx="445.0" cy="602.2" r="1.8" fill="#938e88" opacity="0.23"/><circle cx="641.1" cy="567.7" r="1.9" fill="#938e88" opacity="0.32"/><circle cx="136.2" cy="539.8" r="1.0" fill="#938e88" opacity="0.23"/><circle cx="401.0" cy="610.2" r="1.5" fill="#938e88" opacity="0.29"/><circle cx="446.2" cy="542.3" r="1.9" fill="#938e88" opacity="0.42"/><circle cx="391.6" cy="614.7" r="2.8" fill="#938e88" opacity="0.50"/><circle cx="394.7" cy="659.2" r="1.9" fill="#938e88" opacity="0.31"/><circle cx="422.1" cy="595.4" r="1.2" fill="#938e88" opacity="0.48"/><circle cx="312.2" cy="665.7" r="2.5" fill="#938e88" opacity="0.48"/><circle cx="198.1" cy="617.3" r="1.6" fill="#938e88" opacity="0.15"/><circle cx="665.4" cy="619.4" r="2.0" fill="#938e88" opacity="0.36"/><circle cx="212.3" cy="596.4" r="2.2" fill="#938e88" opacity="0.43"/><circle cx="543.3" cy="656.2" r="3.0" fill="#938e88" opacity="0.23"/><circle cx="588.2" cy="608.8" r="3.0" fill="#938e88" opacity="0.45"/><circle cx="139.8" cy="647.7" r="1.0" fill="#938e88" opacity="0.30"/><circle cx="532.1" cy="581.3" r="1.8" fill="#938e88" opacity="0.29"/><circle cx="511.3" cy="612.5" r="1.1" fill="#938e88" opacity="0.25"/><circle cx="520.1" cy="662.0" r="2.9" fill="#938e88" opacity="0.44"/><circle cx="197.4" cy="637.8" r="2.9" fill="#938e88" opacity="0.16"/><circle cx="393.8" cy="658.9" r="1.4" fill="#938e88" opacity="0.27"/><circle cx="660.2" cy="610.7" r="3.1" fill="#938e88" opacity="0.16"/><circle cx="535.5" cy="547.5" r="1.2" fill="#938e88" opacity="0.46"/><circle cx="424.4" cy="635.9" r="2.0" fill="#938e88" opacity="0.32"/><circle cx="619.0" cy="544.7" r="1.7" fill="#938e88" opacity="0.39"/><circle cx="405.6" cy="652.6" r="2.7" fill="#938e88" opacity="0.26"/><circle cx="359.5" cy="539.7" r="2.0" fill="#938e88" opacity="0.23"/><circle cx="623.8" cy="529.6" r="2.8" fill="#938e88" opacity="0.46"/><circle cx="427.0" cy="645.4" r="1.0" fill="#938e88" opacity="0.19"/><circle cx="196.0" cy="594.5" r="1.4" fill="#938e88" opacity="0.28"/><circle cx="641.3" cy="630.5" r="1.4" fill="#938e88" opacity="0.46"/><circle cx="236.5" cy="662.9" r="2.3" fill="#938e88" opacity="0.17"/><circle cx="655.2" cy="590.9" r="1.5" fill="#938e88" opacity="0.24"/><circle cx="654.1" cy="647.4" r="1.1" fill="#938e88" opacity="0.34"/><circle cx="644.1" cy="543.6" r="1.2" fill="#938e88" opacity="0.48"/><circle cx="429.4" cy="587.7" r="3.0" fill="#938e88" opacity="0.40"/><circle cx="593.3" cy="584.2" r="2.2" fill="#938e88" opacity="0.48"/><circle cx="140.1" cy="647.6" r="2.6" fill="#938e88" opacity="0.49"/><circle cx="629.1" cy="637.4" r="2.8" fill="#938e88" opacity="0.29"/><circle cx="408.8" cy="619.2" r="2.5" fill="#938e88" opacity="0.33"/><circle cx="663.3" cy="537.3" r="2.2" fill="#938e88" opacity="0.41"/><circle cx="474.4" cy="616.3" r="1.7" fill="#938e88" opacity="0.47"/><circle cx="638.8" cy="611.8" r="2.9" fill="#938e88" opacity="0.22"/><circle cx="173.0" cy="591.9" r="2.6" fill="#938e88" opacity="0.40"/><circle cx="200.8" cy="574.1" r="2.1" fill="#938e88" opacity="0.31"/><circle cx="451.1" cy="656.5" r="2.4" fill="#938e88" opacity="0.43"/><circle cx="147.1" cy="598.7" r="2.9" fill="#938e88" opacity="0.45"/><circle cx="478.8" cy="528.8" r="1.4" fill="#938e88" opacity="0.27"/><circle cx="521.1" cy="672.1" r="2.7" fill="#938e88" opacity="0.34"/><circle cx="314.2" cy="667.7" r="2.1" fill="#938e88" opacity="0.40"/><circle cx="320.6" cy="618.4" r="1.9" fill="#938e88" opacity="0.23"/><circle cx="469.9" cy="552.9" r="1.4" fill="#938e88" opacity="0.37"/><circle cx="483.4" cy="556.9" r="2.3" fill="#938e88" opacity="0.37"/><circle cx="428.0" cy="619.5" r="2.2" fill="#938e88" opacity="0.27"/><circle cx="359.7" cy="599.1" r="1.6" fill="#938e88" opacity="0.32"/><circle cx="357.9" cy="569.3" r="2.3" fill="#938e88" opacity="0.26"/></g>
<ellipse cx="400" cy="604" rx="194.4" ry="51.03" fill="#dcd7d0" opacity=".55"/><ellipse cx="400" cy="608" rx="178.20000000000002" ry="45.198" fill="#f7f3ec"/>
<path d="M154,592 Q400,525.1 630,586" fill="none" stroke="#fff" stroke-width="7" stroke-linecap="round" opacity=".28"/></g><g transform="translate(185 645) scale(0.72) translate(-400 -650)"><path d="M494,462.8 C610,458 610,592.4 478,582.8" fill="none" stroke="#dcd7d0" stroke-width="36" stroke-linecap="round"/><path d="M494,462.8 C610,458 610,592.4 478,582.8" fill="none" stroke="#F6F2EA" stroke-width="24" stroke-linecap="round" opacity=".9"/>
<path d="M300,410 L500,410 L482,610 Q478,650 438,650 L362,650 Q322,650 318,610 Z" fill="url(#g152)"/><g clip-path="url(#c152)"><circle cx="300.2" cy="623.4" r="2.6" fill="#938e88" opacity="0.28"/><circle cx="391.3" cy="596.8" r="1.8" fill="#938e88" opacity="0.26"/><circle cx="376.9" cy="438.4" r="1.2" fill="#938e88" opacity="0.37"/><circle cx="302.3" cy="578.4" r="1.5" fill="#938e88" opacity="0.16"/><circle cx="355.3" cy="421.3" r="1.2" fill="#938e88" opacity="0.18"/><circle cx="455.6" cy="506.3" r="1.1" fill="#938e88" opacity="0.34"/><circle cx="315.7" cy="569.0" r="2.0" fill="#938e88" opacity="0.48"/><circle cx="415.2" cy="496.9" r="2.6" fill="#938e88" opacity="0.38"/><circle cx="438.7" cy="519.2" r="1.1" fill="#938e88" opacity="0.37"/><circle cx="307.8" cy="619.2" r="2.6" fill="#938e88" opacity="0.39"/><circle cx="419.5" cy="560.4" r="1.5" fill="#938e88" opacity="0.31"/><circle cx="421.3" cy="622.5" r="2.9" fill="#938e88" opacity="0.26"/><circle cx="317.7" cy="494.5" r="1.4" fill="#938e88" opacity="0.49"/><circle cx="367.5" cy="503.0" r="2.8" fill="#938e88" opacity="0.38"/><circle cx="333.3" cy="429.5" r="2.3" fill="#938e88" opacity="0.23"/><circle cx="306.6" cy="557.6" r="1.4" fill="#938e88" opacity="0.29"/><circle cx="336.7" cy="453.4" r="1.3" fill="#938e88" opacity="0.27"/><circle cx="479.2" cy="417.2" r="1.1" fill="#938e88" opacity="0.24"/><circle cx="436.6" cy="477.0" r="1.0" fill="#938e88" opacity="0.21"/><circle cx="494.7" cy="604.7" r="2.1" fill="#938e88" opacity="0.41"/><circle cx="416.6" cy="421.9" r="1.2" fill="#938e88" opacity="0.37"/><circle cx="316.3" cy="558.3" r="1.2" fill="#938e88" opacity="0.38"/><circle cx="485.3" cy="613.0" r="2.5" fill="#938e88" opacity="0.38"/><circle cx="447.6" cy="603.3" r="1.7" fill="#938e88" opacity="0.17"/><circle cx="308.6" cy="516.9" r="2.3" fill="#938e88" opacity="0.32"/><circle cx="314.7" cy="562.8" r="1.0" fill="#938e88" opacity="0.24"/><circle cx="481.2" cy="588.8" r="1.2" fill="#938e88" opacity="0.32"/><circle cx="437.0" cy="600.4" r="2.9" fill="#938e88" opacity="0.42"/><circle cx="384.7" cy="443.7" r="3.0" fill="#938e88" opacity="0.33"/><circle cx="445.7" cy="634.2" r="1.3" fill="#938e88" opacity="0.41"/><circle cx="374.9" cy="492.6" r="1.8" fill="#938e88" opacity="0.27"/><circle cx="431.0" cy="538.5" r="2.1" fill="#938e88" opacity="0.37"/><circle cx="420.4" cy="454.5" r="2.3" fill="#938e88" opacity="0.39"/><circle cx="389.1" cy="569.1" r="1.9" fill="#938e88" opacity="0.41"/><circle cx="493.0" cy="425.5" r="2.8" fill="#938e88" opacity="0.50"/><circle cx="351.0" cy="634.5" r="2.3" fill="#938e88" opacity="0.20"/><circle cx="445.9" cy="552.1" r="1.5" fill="#938e88" opacity="0.44"/><circle cx="357.8" cy="515.1" r="1.1" fill="#938e88" opacity="0.40"/><circle cx="328.0" cy="450.1" r="1.8" fill="#938e88" opacity="0.35"/><circle cx="346.6" cy="546.9" r="2.1" fill="#938e88" opacity="0.23"/><circle cx="441.3" cy="600.7" r="3.0" fill="#938e88" opacity="0.37"/><circle cx="471.8" cy="560.6" r="0.9" fill="#938e88" opacity="0.26"/><circle cx="471.6" cy="602.6" r="2.7" fill="#938e88" opacity="0.31"/><circle cx="407.1" cy="424.2" r="2.3" fill="#938e88" opacity="0.39"/><circle cx="383.2" cy="500.0" r="2.0" fill="#938e88" opacity="0.47"/><circle cx="407.1" cy="533.1" r="0.9" fill="#938e88" opacity="0.40"/><circle cx="424.8" cy="475.7" r="1.8" fill="#938e88" opacity="0.36"/><circle cx="303.4" cy="428.5" r="1.1" fill="#938e88" opacity="0.43"/><circle cx="430.7" cy="455.2" r="2.6" fill="#938e88" opacity="0.45"/><circle cx="377.2" cy="422.6" r="2.5" fill="#938e88" opacity="0.21"/><circle cx="440.3" cy="530.0" r="1.4" fill="#938e88" opacity="0.43"/><circle cx="454.5" cy="493.3" r="1.1" fill="#938e88" opacity="0.49"/><circle cx="313.4" cy="483.9" r="1.8" fill="#938e88" opacity="0.22"/><circle cx="469.1" cy="469.0" r="1.4" fill="#938e88" opacity="0.26"/><circle cx="479.6" cy="431.3" r="2.8" fill="#938e88" opacity="0.36"/><circle cx="400.0" cy="505.6" r="0.9" fill="#938e88" opacity="0.45"/><circle cx="305.1" cy="529.1" r="2.6" fill="#938e88" opacity="0.42"/><circle cx="327.9" cy="568.9" r="2.6" fill="#938e88" opacity="0.16"/><circle cx="495.4" cy="633.3" r="1.4" fill="#938e88" opacity="0.34"/><circle cx="362.5" cy="568.2" r="2.9" fill="#938e88" opacity="0.50"/><circle cx="476.9" cy="602.6" r="2.2" fill="#938e88" opacity="0.40"/><circle cx="432.3" cy="594.0" r="2.8" fill="#938e88" opacity="0.46"/><circle cx="449.3" cy="607.7" r="1.1" fill="#938e88" opacity="0.19"/><circle cx="335.2" cy="630.2" r="1.8" fill="#938e88" opacity="0.43"/><circle cx="463.8" cy="543.5" r="2.9" fill="#938e88" opacity="0.41"/><circle cx="382.6" cy="579.0" r="2.8" fill="#938e88" opacity="0.19"/><circle cx="480.9" cy="559.2" r="1.1" fill="#938e88" opacity="0.16"/><circle cx="304.9" cy="621.2" r="2.0" fill="#938e88" opacity="0.45"/><circle cx="304.0" cy="557.2" r="1.2" fill="#938e88" opacity="0.37"/><circle cx="430.8" cy="555.4" r="1.9" fill="#938e88" opacity="0.28"/></g>
<ellipse cx="400" cy="410" rx="100" ry="26" fill="#f8f4ee"/><ellipse cx="400" cy="413" rx="86" ry="19" fill="#88837d"/>
<path d="M326,470 Q320,530 336,602" fill="none" stroke="#fff" stroke-width="10" stroke-linecap="round" opacity=".16"/></g><g transform="translate(635 655) scale(0.62) translate(-400 -650)"><path d="M250,430 C264,630 370,650 400,650 C430,650 536,630 550,430 Z" fill="url(#g153)"/><g clip-path="url(#c153)"><circle cx="250.3" cy="561.8" r="2.2" fill="#938e88" opacity="0.27"/><circle cx="364.7" cy="567.5" r="0.9" fill="#938e88" opacity="0.20"/><circle cx="314.5" cy="489.2" r="1.2" fill="#938e88" opacity="0.29"/><circle cx="494.2" cy="463.3" r="3.0" fill="#938e88" opacity="0.47"/><circle cx="250.4" cy="462.3" r="1.2" fill="#938e88" opacity="0.49"/><circle cx="311.6" cy="502.4" r="2.5" fill="#938e88" opacity="0.37"/><circle cx="273.7" cy="542.7" r="2.4" fill="#938e88" opacity="0.30"/><circle cx="545.2" cy="535.0" r="2.3" fill="#938e88" opacity="0.35"/><circle cx="281.6" cy="445.9" r="2.4" fill="#938e88" opacity="0.47"/><circle cx="328.9" cy="585.1" r="2.3" fill="#938e88" opacity="0.30"/><circle cx="492.6" cy="518.0" r="2.4" fill="#938e88" opacity="0.24"/><circle cx="272.9" cy="612.6" r="1.1" fill="#938e88" opacity="0.44"/><circle cx="440.1" cy="435.6" r="1.3" fill="#938e88" opacity="0.21"/><circle cx="378.5" cy="641.4" r="2.0" fill="#938e88" opacity="0.43"/><circle cx="397.3" cy="595.2" r="1.9" fill="#938e88" opacity="0.16"/><circle cx="488.0" cy="468.3" r="2.9" fill="#938e88" opacity="0.34"/><circle cx="252.9" cy="562.6" r="2.3" fill="#938e88" opacity="0.33"/><circle cx="315.1" cy="647.5" r="2.2" fill="#938e88" opacity="0.23"/><circle cx="335.6" cy="464.9" r="2.9" fill="#938e88" opacity="0.22"/><circle cx="311.8" cy="531.8" r="1.9" fill="#938e88" opacity="0.42"/><circle cx="353.4" cy="579.5" r="1.7" fill="#938e88" opacity="0.35"/><circle cx="360.6" cy="606.4" r="2.4" fill="#938e88" opacity="0.18"/><circle cx="525.8" cy="517.4" r="2.5" fill="#938e88" opacity="0.37"/><circle cx="340.4" cy="535.1" r="1.0" fill="#938e88" opacity="0.17"/><circle cx="370.0" cy="514.7" r="1.2" fill="#938e88" opacity="0.46"/><circle cx="267.5" cy="588.3" r="2.6" fill="#938e88" opacity="0.35"/><circle cx="521.3" cy="468.8" r="2.1" fill="#938e88" opacity="0.47"/><circle cx="439.9" cy="490.2" r="1.6" fill="#938e88" opacity="0.32"/><circle cx="439.9" cy="588.4" r="1.1" fill="#938e88" opacity="0.31"/><circle cx="491.6" cy="584.0" r="2.0" fill="#938e88" opacity="0.30"/><circle cx="417.3" cy="631.0" r="1.9" fill="#938e88" opacity="0.41"/><circle cx="251.4" cy="597.9" r="2.5" fill="#938e88" opacity="0.41"/><circle cx="536.0" cy="498.9" r="1.2" fill="#938e88" opacity="0.20"/><circle cx="370.0" cy="544.5" r="2.0" fill="#938e88" opacity="0.42"/><circle cx="388.4" cy="646.1" r="2.0" fill="#938e88" opacity="0.50"/><circle cx="527.9" cy="508.3" r="2.8" fill="#938e88" opacity="0.18"/><circle cx="403.7" cy="629.4" r="1.2" fill="#938e88" opacity="0.21"/><circle cx="420.1" cy="603.5" r="1.2" fill="#938e88" opacity="0.22"/><circle cx="483.6" cy="598.0" r="2.1" fill="#938e88" opacity="0.42"/><circle cx="514.0" cy="438.1" r="2.3" fill="#938e88" opacity="0.38"/><circle cx="528.5" cy="647.4" r="0.9" fill="#938e88" opacity="0.25"/><circle cx="318.4" cy="506.9" r="2.1" fill="#938e88" opacity="0.21"/><circle cx="302.7" cy="460.1" r="2.1" fill="#938e88" opacity="0.49"/><circle cx="470.2" cy="466.9" r="2.2" fill="#938e88" opacity="0.30"/><circle cx="461.7" cy="458.9" r="2.4" fill="#938e88" opacity="0.44"/><circle cx="273.7" cy="516.4" r="2.1" fill="#938e88" opacity="0.44"/><circle cx="278.6" cy="445.8" r="1.5" fill="#938e88" opacity="0.30"/><circle cx="330.6" cy="489.0" r="1.4" fill="#938e88" opacity="0.29"/><circle cx="387.6" cy="609.7" r="2.2" fill="#938e88" opacity="0.46"/><circle cx="476.1" cy="491.2" r="1.9" fill="#938e88" opacity="0.46"/><circle cx="447.4" cy="568.3" r="1.1" fill="#938e88" opacity="0.22"/><circle cx="501.8" cy="453.8" r="1.0" fill="#938e88" opacity="0.38"/><circle cx="373.5" cy="581.9" r="2.9" fill="#938e88" opacity="0.36"/><circle cx="419.7" cy="591.1" r="2.0" fill="#938e88" opacity="0.37"/><circle cx="342.2" cy="490.2" r="2.0" fill="#938e88" opacity="0.45"/><circle cx="255.6" cy="479.1" r="1.0" fill="#938e88" opacity="0.40"/><circle cx="340.0" cy="617.6" r="1.9" fill="#938e88" opacity="0.37"/><circle cx="470.1" cy="557.3" r="0.9" fill="#938e88" opacity="0.36"/><circle cx="264.5" cy="592.8" r="1.1" fill="#938e88" opacity="0.30"/><circle cx="284.3" cy="530.6" r="1.0" fill="#938e88" opacity="0.39"/><circle cx="353.2" cy="544.2" r="2.3" fill="#938e88" opacity="0.22"/><circle cx="372.6" cy="543.6" r="2.8" fill="#938e88" opacity="0.46"/><circle cx="532.8" cy="614.0" r="1.1" fill="#938e88" opacity="0.20"/><circle cx="318.8" cy="512.0" r="2.1" fill="#938e88" opacity="0.23"/><circle cx="457.5" cy="518.8" r="2.2" fill="#938e88" opacity="0.37"/><circle cx="438.8" cy="535.0" r="1.1" fill="#938e88" opacity="0.21"/><circle cx="501.0" cy="607.4" r="2.8" fill="#938e88" opacity="0.44"/><circle cx="273.4" cy="635.6" r="2.8" fill="#938e88" opacity="0.21"/><circle cx="276.5" cy="454.9" r="1.2" fill="#938e88" opacity="0.26"/><circle cx="475.9" cy="605.1" r="3.0" fill="#938e88" opacity="0.16"/><circle cx="520.3" cy="580.9" r="2.2" fill="#938e88" opacity="0.33"/><circle cx="359.2" cy="460.6" r="1.6" fill="#938e88" opacity="0.26"/><circle cx="415.2" cy="508.1" r="1.8" fill="#938e88" opacity="0.33"/><circle cx="310.8" cy="500.0" r="2.7" fill="#938e88" opacity="0.20"/><circle cx="457.7" cy="556.0" r="2.4" fill="#938e88" opacity="0.30"/><circle cx="472.1" cy="471.4" r="2.5" fill="#938e88" opacity="0.28"/><circle cx="372.9" cy="459.5" r="2.7" fill="#938e88" opacity="0.32"/><circle cx="332.6" cy="539.6" r="2.3" fill="#938e88" opacity="0.29"/><circle cx="409.8" cy="564.3" r="1.1" fill="#938e88" opacity="0.41"/><circle cx="344.1" cy="450.1" r="1.6" fill="#938e88" opacity="0.21"/></g>
<ellipse cx="400" cy="430" rx="150" ry="40" fill="#f7f4ed"/><ellipse cx="400" cy="434" rx="136" ry="31" fill="#9e9993"/>
<path d="M286,500 Q300,580 370,620" fill="none" stroke="#fff" stroke-width="9" stroke-linecap="round" opacity=".18"/></g>
</svg>