<svg xmlns="http://www.w3.org/2000/svg" viewBox="0 0 800 800" width="800" height="800" role="img" aria-hidden="true">
<defs><filter id="blur" x="-20%" y="-50%" width="140%" height="200%"><feGaussianBlur stdDeviation="9"/></filter><linearGradient id="g21" x1="0" x2="1"><stop offset="0" stop-color="#363536"/><stop offset=".28" stop-color="#555558"/><stop offset=".55" stop-color="#3E3E41"/><stop offset="1" stop-color="#333132"/></linearGradient>
<linearGradient id="v21" x1="0" y1="0" x2="0" y2="1"><stop offset="0" stop-color="#515154"/><stop offset="1" stop-color="#383638"/></linearGradient><clipPath id="c21"><ellipse cx="400" cy="600" rx="270" ry="72.9"/></clipPath><linearGradient id="g22" x1="0" x2="1"><stop offset="0" stop-color="#363536"/><stop offset=".28" stop-color="#555558"/><stop offset=".55" stop-color="#3E3E41"/><stop offset="1" stop-color="#333132"/></linearGradient>
<linearGradient id="v22" x1="0" y1="0" x2="0" y2="1"><stop offset="0" stop-color="#515154"/><stop offset="1" stop-color="#383638"/></linearGradient><clipPath id="c22"><path d="M300,460 L500,460 L482,610 Q478,650 438,650 L362,650 Q322,650 318,610 Z"/></clipPath></defs>
<rect width="800" height="800" fill="#EFE8DD"/><rect y="610" width="800" height="190" fill="#E3D9CB"/><rect y="609" width="800" height="2" fill="#d6cab8"/>
<ellipse cx="400" cy="651" rx="248" ry="29" fill="#5b4a38" opacity=".22" filter="url(#blur)"/><ellipse cx="380" cy="631" rx="136" ry="16" fill="#5b4a38" opacity=".22" filter="url(#blur)"/><g transform="translate(400 670) scale(0.9) translate(-400 -650)"><ellipse cx="400" cy="616" rx="270" ry="72.9" fill="#323131"/>
<ellipse cx="400" cy="600" rx="270" ry="72.9" fill="url(#g21)"/><g clip-path="url(#c21)"><circle cx="130.1" cy="615.1" r="1.9" fill="#86868A" opacity="0.17"/><circle cx="479.3" cy="623.8" r="2.3" fill="#86868A" opacity="0.42"/><circle cx="548.7" cy="631.2" r="1.8" fill="#86868A" opacity="0.21"/><circle cx="175.2" cy="557.7" r="2.8" fill="#86868A" opacity="0.34"/><circle cx="394.7" cy="566.4" r="1.8" fill="#86868A" opacity="0.27"/><circle cx="460.5" cy="532.5" r="2.2" fill="#86868A" opacity="0.35"/><circle cx="462.6" cy="591.6" r="1.4" fill="#86868A" opacity="0.46"/><circle cx="432.4" cy="606.1" r="2.8" fill="#86868A" opacity="0.39"/><circle cx="230.4" cy="623.5" r="2.6" fill="#86868A" opacity="0.32"/><circle cx="206.9" cy="596.3" r="2.4" fill="#86868A" opacity="0.43"/><circle cx="479.0" cy="583.9" r="1.5" fill="#86868A" opacity="0.28"/><circle cx="563.7" cy="606.4" r="1.1" fill="#86868A" opacity="0.49"/><circle cx="424.2" cy="567.1" r="2.7" fill="#86868A" opacity="0.40"/><circle cx="303.9" cy="617.7" r="2.1" fill="#86868A" opacity="0.44"/><circle cx="145.2" cy="588.0" r="2.7" fill="#86868A" opacity="0.19"/><circle cx="487.9" cy="623.1" r="1.0" fill="#86868A" opacity="0.21"/><circle cx="417.5" cy="569.3" r="1.6" fill="#86868A" opacity="0.21"/><circle cx="222.7" cy="611.8" r="2.0" fill="#86868A" opacity="0.31"/><circle cx="506.8" cy="670.5" r="2.1" fill="#86868A" opacity="0.24"/><circle cx="634.5" cy="636.9" r="2.3" fill="#86868A" opacity="0.49"/><circle cx="655.7" cy="583.6" r="2.1" fill="#86868A" opacity="0.18"/><circle cx="339.9" cy="532.1" r="2.6" fill="#86868A" opacity="0.29"/><circle cx="659.8" cy="541.7" r="1.2" fill="#86868A" opacity="0.40"/><circle cx="284.2" cy="667.7" r="2.4" fill="#86868A" opacity="0.36"/><circle cx="358.3" cy="593.1" r="1.8" fill="#86868A" opacity="0.34"/><circle cx="565.0" cy="582.1" r="1.0" fill="#86868A" opacity="0.23"/><circle cx="335.3" cy="528.3" r="1.1" fill="#86868A" opacity="0.20"/><circle cx="511.1" cy="592.2" r="1.8" fill="#86868A" opacity="0.22"/><circle cx="351.6" cy="552.7" r="2.8" fill="#86868A" opacity="0.31"/><circle cx="449.6" cy="592.2" r="0.9" fill="#86868A" opacity="0.35"/><circle cx="229.7" cy="616.1" r="1.1" fill="#86868A" opacity="0.33"/><circle cx="638.0" cy="650.1" r="2.7" fill="#86868A" opacity="0.29"/><circle cx="308.9" cy="543.7" r="1.0" fill="#86868A" opacity="0.44"/><circle cx="271.3" cy="650.6" r="2.0" fill="#86868A" opacity="0.35"/><circle cx="395.1" cy="551.0" r="2.1" fill="#86868A" opacity="0.36"/><circle cx="483.1" cy="591.2" r="1.9" fill="#86868A" opacity="0.21"/><circle cx="354.5" cy="571.8" r="3.0" fill="#86868A" opacity="0.42"/><circle cx="575.2" cy="541.4" r="1.4" fill="#86868A" opacity="0.37"/><circle cx="352.0" cy="671.7" r="1.3" fill="#86868A" opacity="0.16"/><circle cx="364.9" cy="642.8" r="2.5" fill="#86868A" opacity="0.19"/><circle cx="494.2" cy="625.5" r="2.3" fill="#86868A" opacity="0.19"/><circle cx="666.3" cy="608.5" r="2.9" fill="#86868A" opacity="0.49"/><circle cx="217.5" cy="579.7" r="2.2" fill="#86868A" opacity="0.50"/><circle cx="252.1" cy="625.8" r="2.0" fill="#86868A" opacity="0.43"/><circle cx="592.8" cy="633.4" r="1.8" fill="#86868A" opacity="0.48"/><circle cx="256.0" cy="648.2" r="1.6" fill="#86868A" opacity="0.36"/><circle cx="566.1" cy="604.9" r="2.6" fill="#86868A" opacity="0.43"/><circle cx="537.4" cy="546.1" r="2.0" fill="#86868A" opacity="0.40"/><circle cx="137.4" cy="616.7" r="1.9" fill="#86868A" opacity="0.21"/><circle cx="290.8" cy="548.4" r="1.7" fill="#86868A" opacity="0.45"/><circle cx="191.7" cy="611.3" r="2.1" fill="#86868A" opacity="0.29"/><circle cx="559.0" cy="545.5" r="2.7" fill="#86868A" opacity="0.15"/><circle cx="464.9" cy="598.7" r="1.3" fill="#86868A" opacity="0.39"/><circle cx="346.7" cy="606.0" r="1.8" fill="#86868A" opacity="0.17"/><circle cx="143.6" cy="633.4" r="3.0" fill="#86868A" opacity="0.38"/><circle cx="136.0" cy="581.7" r="1.4" fill="#86868A" opacity="0.25"/><circle cx="653.7" cy="543.6" r="1.7" fill="#86868A" opacity="0.46"/><circle cx="661.6" cy="539.1" r="1.6" fill="#86868A" opacity="0.20"/><circle cx="150.6" cy="654.2" r="2.6" fill="#86868A" opacity="0.37"/><circle cx="423.6" cy="616.2" r="1.0" fill="#86868A" opacity="0.15"/><circle cx="590.4" cy="584.0" r="1.7" fill="#86868A" opacity="0.23"/><circle cx="551.5" cy="585.9" r="3.0" fill="#86868A" opacity="0.28"/><circle cx="166.2" cy="610.5" r="0.9" fill="#86868A" opacity="0.16"/><circle cx="166.4" cy="593.7" r="1.3" fill="#86868A" opacity="0.37"/><circle cx="609.1" cy="646.6" r="1.3" fill="#86868A" opacity="0.25"/><circle cx="568.6" cy="527.8" r="1.6" fill="#86868A" opacity="0.45"/><circle cx="529.7" cy="532.2" r="1.9" fill="#86868A" opacity="0.32"/><circle cx="582.0" cy="615.9" r="1.6" fill="#86868A" opacity="0.21"/><circle cx="478.2" cy="588.7" r="1.4" fill="#86868A" opacity="0.48"/><circle cx="232.8" cy="590.6" r="2.6" fill="#86868A" opacity="0.46"/><circle cx="556.0" cy="584.8" r="2.5" fill="#86868A" opacity="0.29"/><circle cx="422.6" cy="627.8" r="2.6" fill="#86868A" opacity="0.48"/><circle cx="149.1" cy="554.9" r="3.1" fill="#86868A" opacity="0.33"/><circle cx="442.0" cy="527.2" r="1.3" fill="#86868A" opacity="0.35"/><circle cx="496.9" cy="558.5" r="1.7" fill="#86868A" opacity="0.44"/><circle cx="329.0" cy="578.6" r="1.8" fill="#86868A" opacity="0.21"/><circle cx="656.7" cy="663.8" r="3.0" fill="#86868A" opacity="0.21"/><circle cx="396.9" cy="543.2" r="2.4" fill="#86868A" opacity="0.30"/><circle cx="338.9" cy="611.6" r="2.1" fill="#86868A" opacity="0.36"/><circle cx="133.6" cy="623.2" r="3.1" fill="#86868A" opacity="0.19"/><circle cx="380.7" cy="598.4" r="2.8" fill="#86868A" opacity="0.17"/><circle cx="527.8" cy="599.9" r="2.8" fill="#86868A" opacity="0.35"/><circle cx="201.8" cy="538.7" r="1.0" fill="#86868A" opacity="0.49"/><circle cx="538.0" cy="620.5" r="2.3" fill="#86868A" opacity="0.35"/><circle cx="548.6" cy="634.9" r="3.0" fill="#86868A" opacity="0.46"/><circle cx="406.7" cy="624.5" r="3.1" fill="#86868A" opacity="0.33"/><circle cx="252.5" cy="536.8" r="1.2" fill="#86868A" opacity="0.47"/><circle cx="267.5" cy="543.9" r="1.1" fill="#86868A" opacity="0.20"/><circle cx="164.6" cy="555.9" r="2.0" fill="#86868A" opacity="0.24"/><circle cx="374.9" cy="532.0" r="3.0" fill="#86868A" opacity="0.25"/></g>
<ellipse cx="400" cy="604" rx="194.4" ry="51.03" fill="#3a393b" opacity=".55"/><ellipse cx="400" cy="608" rx="178.20000000000002" ry="45.198" fill="#4d4d50"/>
<path d="M154,592 Q400,525.1 630,586" fill="none" stroke="#fff" stroke-width="7" stroke-linecap="round" opacity=".28"/></g><g transform="translate(380 625) scale(0.95) translate(-400 -650)"><path d="M494,501.8 C610,498 610,604.4 478,596.8" fill="none" stroke="#3a393b" stroke-width="36" stroke-linecap="round"/><path d="M494,501.8 C610,498 610,604.4 478,596.8" fill="none" stroke="#3E3E41" stroke-width="24" stroke-linecap="round" opacity=".9"/>
<path d="M300,460 L500,460 L482,610 Q478,650 438,650 L362,650 Q322,650 318,610 Z" fill="url(#g22)"/><g clip-path="url(#c22)"><circle cx="300.1" cy="519.6" r="1.5" fill="#86868A" opacity="0.16"/><circle cx="414.6" cy="556.9" r="1.4" fill="#86868A" opacity="0.35"/><circle cx="421.2" cy="624.4" r="1.8" fill="#86868A" opacity="0.48"/><circle cx="477.3" cy="585.3" r="2.1" fill="#86868A" opacity="0.30"/><circle cx="343.0" cy="530.2" r="1.8" fill="#86868A" opacity="0.22"/><circle cx="307.9" cy="643.4" r="1.5" fill="#86868A" opacity="0.38"/><circle cx="423.2" cy="515.6" r="1.8" fill="#86868A" opacity="0.29"/><circle cx="493.6" cy="584.9" r="2.4" fill="#86868A" opacity="0.35"/><circle cx="419.5" cy="512.9" r="1.6" fill="#86868A" opacity="0.41"/><circle cx="373.3" cy="518.5" r="2.1" fill="#86868A" opacity="0.34"/><circle cx="471.6" cy="490.9" r="2.4" fill="#86868A" opacity="0.21"/><circle cx="354.6" cy="552.9" r="1.6" fill="#86868A" opacity="0.31"/><circle cx="318.0" cy="640.1" r="2.6" fill="#86868A" opacity="0.48"/><circle cx="382.6" cy="497.2" r="1.4" fill="#86868A" opacity="0.50"/><circle cx="370.6" cy="476.6" r="2.3" fill="#86868A" opacity="0.47"/><circle cx="384.7" cy="501.2" r="2.6" fill="#86868A" opacity="0.26"/><circle cx="371.8" cy="595.1" r="2.6" fill="#86868A" opacity="0.27"/><circle cx="398.5" cy="562.6" r="1.0" fill="#86868A" opacity="0.30"/><circle cx="360.0" cy="624.0" r="1.8" fill="#86868A" opacity="0.25"/><circle cx="333.4" cy="536.8" r="2.1" fill="#86868A" opacity="0.49"/><circle cx="447.0" cy="463.3" r="2.6" fill="#86868A" opacity="0.17"/><circle cx="435.2" cy="501.4" r="1.6" fill="#86868A" opacity="0.44"/><circle cx="494.8" cy="583.8" r="1.3" fill="#86868A" opacity="0.40"/><circle cx="469.7" cy="581.1" r="1.7" fill="#86868A" opacity="0.36"/><circle cx="456.0" cy="534.6" r="2.9" fill="#86868A" opacity="0.48"/><circle cx="458.1" cy="547.4" r="2.6" fill="#86868A" opacity="0.35"/><circle cx="375.7" cy="543.5" r="2.0" fill="#86868A" opacity="0.36"/><circle cx="430.7" cy="636.1" r="2.8" fill="#86868A" opacity="0.47"/><circle cx="424.0" cy="603.5" r="3.1" fill="#86868A" opacity="0.30"/><circle cx="433.8" cy="500.3" r="1.6" fill="#86868A" opacity="0.24"/><circle cx="373.5" cy="494.2" r="1.2" fill="#86868A" opacity="0.46"/><circle cx="358.0" cy="473.6" r="0.9" fill="#86868A" opacity="0.33"/><circle cx="436.6" cy="506.0" r="2.1" fill="#86868A" opacity="0.25"/><circle cx="343.2" cy="593.9" r="2.0" fill="#86868A" opacity="0.36"/><circle cx="497.5" cy="475.5" r="1.3" fill="#86868A" opacity="0.36"/><circle cx="365.0" cy="623.3" r="2.4" fill="#86868A" opacity="0.19"/><circle cx="339.7" cy="578.0" r="2.7" fill="#86868A" opacity="0.19"/><circle cx="320.4" cy="545.3" r="1.5" fill="#86868A" opacity="0.20"/><circle cx="309.9" cy="571.8" r="1.6" fill="#86868A" opacity="0.22"/><circle cx="316.4" cy="509.4" r="2.7" fill="#86868A" opacity="0.34"/><circle cx="479.3" cy="625.1" r="2.4" fill="#86868A" opacity="0.41"/><circle cx="372.4" cy="513.3" r="1.9" fill="#86868A" opacity="0.44"/><circle cx="395.9" cy="592.1" r="1.5" fill="#86868A" opacity="0.33"/><circle cx="384.9" cy="609.3" r="1.8" fill="#86868A" opacity="0.34"/><circle cx="329.4" cy="552.2" r="2.2" fill="#86868A" opacity="0.45"/><circle cx="455.4" cy="595.0" r="2.7" fill="#86868A" opacity="0.40"/><circle cx="355.8" cy="523.1" r="2.2" fill="#86868A" opacity="0.37"/><circle cx="301.2" cy="521.0" r="2.2" fill="#86868A" opacity="0.25"/><circle cx="463.8" cy="506.2" r="1.5" fill="#86868A" opacity="0.22"/><circle cx="433.1" cy="530.6" r="1.1" fill="#86868A" opacity="0.35"/><circle cx="314.2" cy="594.1" r="1.7" fill="#86868A" opacity="0.43"/><circle cx="472.2" cy="628.6" r="2.6" fill="#86868A" opacity="0.39"/><circle cx="493.0" cy="625.9" r="2.4" fill="#86868A" opacity="0.18"/><circle cx="324.4" cy="465.3" r="2.5" fill="#86868A" opacity="0.27"/><circle cx="386.9" cy="633.6" r="2.2" fill="#86868A" opacity="0.47"/><circle cx="405.9" cy="497.9" r="1.4" fill="#86868A" opacity="0.20"/><circle cx="348.9" cy="549.2" r="1.0" fill="#86868A" opacity="0.41"/><circle cx="415.7" cy="649.7" r="2.1" fill="#86868A" opacity="0.40"/><circle cx="321.9" cy="589.5" r="2.2" fill="#86868A" opacity="0.32"/><circle cx="369.1" cy="537.7" r="1.2" fill="#86868A" opacity="0.40"/><circle cx="362.4" cy="480.3" r="1.9" fill="#86868A" opacity="0.40"/><circle cx="405.5" cy="489.1" r="3.0" fill="#86868A" opacity="0.28"/><circle cx="352.7" cy="571.1" r="0.9" fill="#86868A" opacity="0.16"/><circle cx="324.2" cy="633.3" r="1.6" fill="#86868A" opacity="0.17"/><circle cx="451.9" cy="586.7" r="2.8" fill="#86868A" opacity="0.20"/><circle cx="305.6" cy="607.8" r="2.1" fill="#86868A" opacity="0.47"/><circle cx="434.4" cy="501.7" r="1.5" fill="#86868A" opacity="0.24"/><circle cx="478.2" cy="586.1" r="2.4" fill="#86868A" opacity="0.32"/><circle cx="442.6" cy="635.2" r="1.4" fill="#86868A" opacity="0.37"/><circle cx="357.9" cy="578.9" r="1.5" fill="#86868A" opacity="0.34"/></g>
<ellipse cx="400" cy="460" rx="100" ry="26" fill="#616163"/><ellipse cx="400" cy="463" rx="86" ry="19" fill="#2c2929"/>
<path d="M326,520 Q320,555 336,612" fill="none" stroke="#fff" stroke-width="10" stroke-linecap="round" opacity=".16"/></g>
</svg>