<svg xmlns="http://www.w3.org/2000/svg" viewBox="0 0 800 800" width="800" height="800" role="img" aria-hidden="true">
<defs><filter id="blur" x="-20%" y="-50%" width="140%" height="200%"><feGaussianBlur stdDeviation="9"/></filter><linearGradient id="g51" x1="0" x2="1"><stop offset="0" stop-color="#c6c1ba"/><stop offset=".28" stop-color="#f7f4ed"/><stop offset=".55" stop-color="#F6F2EA"/><stop offset="1" stop-color="#b4afa9"/></linearGradient>
<linearGradient id="v51" x1="0" y1="0" x2="0" y2="1"><stop offset="0" stop-color="#f7f3ec"/><stop offset="1" stop-color="#cecac3"/></linearGradient><clipPath id="c51"><circle cx="400" cy="400" r="250"/></clipPath></defs>
<rect width="800" height="800" fill="#EFE8DD"/>
<ellipse cx="414" cy="429" rx="307" ry="307" fill="#6b5a48" opacity=".16" filter="url(#blur)"/><g transform="translate(400 400) scale(1.2) translate(-400 -400)"><circle cx="400" cy="400" r="250" fill="url(#g51)"/><g clip-path="url(#c51)"><circle cx="150.2" cy="635.8" r="1.0" fill="#938e88" opacity="0.26"/><circle cx="268.3" cy="452.4" r="2.0" fill="#938e88" opacity="0.49"/><circle cx="151.4" cy="419.4" r="1.6" fill="#938e88" opacity="0.34"/><circle cx="170.6" cy="566.2" r="2.7" fill="#938e88" opacity="0.18"/><circle cx="435.5" cy="354.0" r="1.6" fill="#938e88" opacity="0.34"/><circle cx="213.4" cy="349.5" r="1.4" fill="#938e88" opacity="0.26"/><circle cx="573.4" cy="613.6" r="2.8" fill="#938e88" opacity="0.38"/><circle cx="174.0" cy="231.6" r="1.4" fill="#938e88" opacity="0.29"/><circle cx="605.0" cy="407.8" r="0.9" fill="#938e88" opacity="0.29"/><circle cx="414.9" cy="194.9" r="2.0" fill="#938e88" opacity="0.28"/><circle cx="196.5" cy="187.6" r="1.5" fill="#938e88" opacity="0.47"/><circle cx="415.2" cy="576.2" r="1.9" fill="#938e88" opacity="0.46"/><circle cx="376.8" cy="214.9" r="2.3" fill="#938e88" opacity="0.26"/><circle cx="451.0" cy="435.0" r="1.0" fill="#938e88" opacity="0.44"/><circle cx="542.7" cy="437.9" r="1.3" fill="#938e88" opacity="0.22"/><circle cx="623.3" cy="519.9" r="1.7" fill="#938e88" opacity="0.47"/><circle cx="296.0" cy="240.4" r="1.1" fill="#938e88" opacity="0.43"/><circle cx="265.8" cy="604.4" r="2.1" fill="#938e88" opacity="0.28"/><circle cx="492.7" cy="366.2" r="1.0" fill="#938e88" opacity="0.37"/><circle cx="586.0" cy="477.2" r="1.7" fill="#938e88" opacity="0.44"/><circle cx="587.2" cy="472.2" r="2.7" fill="#938e88" opacity="0.32"/><circle cx="158.5" cy="332.9" r="0.9" fill="#938e88" opacity="0.31"/><circle cx="635.6" cy="197.2" r="1.7" fill="#938e88" opacity="0.23"/><circle cx="451.9" cy="251.8" r="1.6" fill="#938e88" opacity="0.44"/><circle cx="570.1" cy="450.0" r="1.5" fill="#938e88" opacity="0.16"/><circle cx="388.6" cy="549.8" r="1.4" fill="#938e88" opacity="0.31"/><circle cx="223.6" cy="298.9" r="2.0" fill="#938e88" opacity="0.41"/><circle cx="312.9" cy="359.7" r="2.3" fill="#938e88" opacity="0.38"/><circle cx="346.5" cy="254.5" r="1.1" fill="#938e88" opacity="0.37"/><circle cx="383.8" cy="287.9" r="2.8" fill="#938e88" opacity="0.47"/><circle cx="561.2" cy="426.6" r="1.2" fill="#938e88" opacity="0.49"/><circle cx="362.2" cy="460.2" r="2.4" fill="#938e88" opacity="0.40"/><circle cx="443.7" cy="564.8" r="0.9" fill="#938e88" opacity="0.35"/><circle cx="633.9" cy="205.7" r="1.9" fill="#938e88" opacity="0.34"/><circle cx="393.1" cy="559.6" r="1.1" fill="#938e88" opacity="0.44"/><circle cx="287.9" cy="468.3" r="1.9" fill="#938e88" opacity="0.45"/><circle cx="207.6" cy="482.3" r="2.0" fill="#938e88" opacity="0.48"/><circle cx="331.3" cy="595.6" r="2.2" fill="#938e88" opacity="0.48"/><circle cx="489.8" cy="443.6" r="2.9" fill="#938e88" opacity="0.27"/><circle cx="507.9" cy="408.2" r="3.0" fill="#938e88" opacity="0.35"/><circle cx="217.8" cy="275.4" r="2.3" fill="#938e88" opacity="0.42"/><circle cx="401.9" cy="544.3" r="2.2" fill="#938e88" opacity="0.33"/><circle cx="258.4" cy="523.3" r="3.0" fill="#938e88" opacity="0.48"/><circle cx="592.6" cy="448.3" r="2.6" fill="#938e88" opacity="0.28"/><circle cx="356.0" cy="230.4" r="2.0" fill="#938e88" opacity="0.20"/><circle cx="412.4" cy="636.0" r="2.8" fill="#938e88" opacity="0.28"/><circle cx="418.6" cy="354.1" r="0.9" fill="#938e88" opacity="0.21"/><circle cx="278.3" cy="462.8" r="3.0" fill="#938e88" opacity="0.44"/><circle cx="560.4" cy="315.4" r="1.0" fill="#938e88" opacity="0.32"/><circle cx="361.2" cy="417.6" r="1.5" fill="#938e88" opacity="0.40"/><circle cx="408.0" cy="258.5" r="1.6" fill="#938e88" opacity="0.35"/><circle cx="208.6" cy="316.9" r="1.9" fill="#938e88" opacity="0.24"/><circle cx="391.0" cy="621.8" r="2.1" fill="#938e88" opacity="0.31"/><circle cx="311.0" cy="488.3" r="1.0" fill="#938e88" opacity="0.48"/><circle cx="369.1" cy="373.2" r="1.6" fill="#938e88" opacity="0.15"/><circle cx="629.8" cy="562.2" r="2.1" fill="#938e88" opacity="0.31"/><circle cx="555.7" cy="607.0" r="1.7" fill="#938e88" opacity="0.20"/><circle cx="438.2" cy="440.8" r="2.8" fill="#938e88" opacity="0.21"/><circle cx="564.6" cy="338.7" r="2.8" fill="#938e88" opacity="0.30"/><circle cx="361.6" cy="469.6" r="2.5" fill="#938e88" opacity="0.25"/><circle cx="509.9" cy="302.7" r="2.6" fill="#938e88" opacity="0.41"/><circle cx="326.7" cy="255.3" r="3.0" fill="#938e88" opacity="0.20"/><circle cx="357.9" cy="483.3" r="0.9" fill="#938e88" opacity="0.17"/><circle cx="643.8" cy="424.4" r="2.9" fill="#938e88" opacity="0.20"/><circle cx="236.1" cy="184.9" r="2.8" fill="#938e88" opacity="0.27"/><circle cx="436.4" cy="610.8" r="0.9" fill="#938e88" opacity="0.27"/><circle cx="396.1" cy="333.7" r="1.6" fill="#938e88" opacity="0.26"/><circle cx="298.1" cy="453.8" r="1.9" fill="#938e88" opacity="0.23"/><circle cx="481.1" cy="284.2" r="2.4" fill="#938e88" opacity="0.17"/><circle cx="236.9" cy="422.4" r="1.7" fill="#938e88" opacity="0.48"/><circle cx="290.1" cy="449.9" r="1.2" fill="#938e88" opacity="0.19"/><circle cx="617.4" cy="372.7" r="1.4" fill="#938e88" opacity="0.19"/><circle cx="576.8" cy="337.3" r="2.9" fill="#938e88" opacity="0.28"/><circle cx="330.3" cy="465.0" r="1.7" fill="#938e88" opacity="0.29"/><circle cx="464.4" cy="470.0" r="2.8" fill="#938e88" opacity="0.19"/><circle cx="600.4" cy="602.9" r="1.9" fill="#938e88" opacity="0.35"/><circle cx="645.7" cy="502.7" r="0.9" fill="#938e88" opacity="0.46"/><circle cx="195.6" cy="262.1" r="1.8" fill="#938e88" opacity="0.46"/><circle cx="328.7" cy="231.7" r="1.9" fill="#938e88" opacity="0.24"/><circle cx="440.7" cy="434.7" r="2.5" fill="#938e88" opacity="0.36"/><circle cx="201.5" cy="406.1" r="1.2" fill="#938e88" opacity="0.41"/><circle cx="236.3" cy="156.5" r="1.9" fill="#938e88" opacity="0.21"/><circle cx="379.2" cy="567.5" r="2.5" fill="#938e88" opacity="0.37"/><circle cx="565.0" cy="491.9" r="1.4" fill="#938e88" opacity="0.34"/><circle cx="551.3" cy="224.0" r="2.2" fill="#938e88" opacity="0.31"/><circle cx="452.3" cy="570.3" r="1.4" fill="#938e88" opacity="0.37"/><circle cx="250.3" cy="185.9" r="1.8" fill="#938e88" opacity="0.44"/><circle cx="171.3" cy="351.5" r="1.8" fill="#938e88" opacity="0.17"/><circle cx="298.6" cy="199.5" r="1.5" fill="#938e88" opacity="0.49"/><circle cx="407.6" cy="261.2" r="2.4" fill="#938e88" opacity="0.40"/><circle cx="624.8" cy="546.2" r="2.1" fill="#938e88" opacity="0.18"/><circle cx="622.6" cy="473.0" r="1.2" fill="#938e88" opacity="0.30"/><circle cx="188.4" cy="515.3" r="2.6" fill="#938e88" opacity="0.20"/><circle cx="303.2" cy="235.2" r="2.0" fill="#938e88" opacity="0.31"/><circle cx="407.4" cy="220.9" r="2.8" fill="#938e88" opacity="0.44"/><circle cx="425.6" cy="585.5" r="2.7" fill="#938e88" opacity="0.48"/><circle cx="186.2" cy="262.7" r="1.5" fill="#938e88" opacity="0.23"/><circle cx="471.6" cy="587.5" r="2.0" fill="#938e88" opacity="0.35"/><circle cx="215.3" cy="318.1" r="3.1" fill="#938e88" opacity="0.32"/><circle cx="421.5" cy="566.6" r="2.3" fill="#938e88" opacity="0.30"/><circle cx="372.9" cy="261.8" r="2.9" fill="#938e88" opacity="0.36"/><circle cx="424.5" cy="577.7" r="1.4" fill="#938e88" opacity="0.40"/><circle cx="331.7" cy="369.5" r="2.0" fill="#938e88" opacity="0.33"/><circle cx="455.4" cy="210.8" r="2.4" fill="#938e88" opacity="0.48"/><circle cx="521.8" cy="397.3" r="1.7" fill="#938e88" opacity="0.41"/><circle cx="491.0" cy="311.8" r="1.4" fill="#938e88" opacity="0.35"/><circle cx="482.0" cy="633.3" r="1.2" fill="#938e88" opacity="0.21"/><circle cx="584.4" cy="461.1" r="1.1" fill="#938e88" opacity="0.34"/><circle cx="173.1" cy="302.4" r="2.5" fill="#938e88" opacity="0.18"/><circle cx="339.1" cy="427.9" r="0.9" fill="#938e88" opacity="0.48"/><circle cx="418.6" cy="232.4" r="0.9" fill="#938e88" opacity="0.30"/><circle cx="593.1" cy="396.4" r="2.2" fill="#938e88" opacity="0.49"/><circle cx="459.9" cy="424.3" r="1.3" fill="#938e88" opacity="0.39"/><circle cx="300.8" cy="431.8" r="2.9" fill="#938e88" opacity="0.30"/><circle cx="467.7" cy="513.9" r="1.6" fill="#938e88" opacity="0.32"/><circle cx="195.8" cy="444.7" r="3.0" fill="#938e88" opacity="0.26"/><circle cx="563.7" cy="624.1" r="3.0" fill="#938e88" opacity="0.25"/><circle cx="239.1" cy="203.4" r="0.9" fill="#938e88" opacity="0.50"/><circle cx="311.1" cy="313.3" r="2.6" fill="#938e88" opacity="0.46"/><circle cx="336.4" cy="366.5" r="2.8" fill="#938e88" opacity="0.26"/></g><circle cx="400" cy="400" r="180" fill="#e0dcd4" opacity=".6"/><circle cx="400" cy="400" r="165" fill="#f7f3eb"/></g>
</svg>