<svg xmlns="http://www.w3.org/2000/svg" viewBox="0 0 800 800" width="800" height="800" role="img" aria-hidden="true">
<defs><filter id="blur" x="-20%" y="-50%" width="140%" height="200%"><feGaussianBlur stdDeviation="9"/></filter><linearGradient id="g71" x1="0" x2="1"><stop offset="0" stop-color="#ad997a"/><stop offset=".28" stop-color="#dbc6a4"/><stop offset=".55" stop-color="#D6BE98"/><stop offset="1" stop-color="#9e8b6f"/></linearGradient>
<linearGradient id="v71" x1="0" y1="0" x2="0" y2="1"><stop offset="0" stop-color="#dac5a2"/><stop offset="1" stop-color="#b49f80"/></linearGradient><clipPath id="c71"><path d="M170,430 C184,630 290,650 400,650 C510,650 616,630 630,430 Z"/></clipPath></defs>
<rect width="800" height="800" fill="#EFE8DD"/><rect y="610" width="800" height="190" fill="#E3D9CB"/><rect y="609" width="800" height="2" fill="#d6cab8"/>
<ellipse cx="400" cy="656" rx="258" ry="30" fill="#5b4a38" opacity=".22" filter="url(#blur)"/><g transform="translate(400 650) scale(1.1) translate(-400 -650)"><path d="M170,430 C184,630 290,650 400,650 C510,650 616,630 630,430 Z" fill="url(#g71)"/><g clip-path="url(#c71)"><circle cx="170.2" cy="579.9" r="2.8" fill="#81725b" opacity="0.24"/><circle cx="244.8" cy="529.3" r="1.1" fill="#81725b" opacity="0.43"/><circle cx="553.4" cy="581.7" r="1.6" fill="#81725b" opacity="0.25"/><circle cx="558.1" cy="492.0" r="2.0" fill="#81725b" opacity="0.49"/><circle cx="306.1" cy="541.8" r="1.6" fill="#81725b" opacity="0.29"/><circle cx="424.9" cy="501.9" r="2.8" fill="#81725b" opacity="0.29"/><circle cx="559.6" cy="601.0" r="1.0" fill="#81725b" opacity="0.21"/><circle cx="379.7" cy="491.3" r="1.1" fill="#81725b" opacity="0.26"/><circle cx="318.1" cy="459.2" r="2.2" fill="#81725b" opacity="0.38"/><circle cx="516.9" cy="633.1" r="1.8" fill="#81725b" opacity="0.19"/><circle cx="310.1" cy="616.6" r="2.4" fill="#81725b" opacity="0.40"/><circle cx="170.1" cy="605.4" r="2.4" fill="#81725b" opacity="0.29"/><circle cx="629.5" cy="606.7" r="2.2" fill="#81725b" opacity="0.34"/><circle cx="488.8" cy="461.6" r="2.4" fill="#81725b" opacity="0.50"/><circle cx="220.7" cy="484.0" r="0.9" fill="#81725b" opacity="0.50"/><circle cx="495.3" cy="495.7" r="1.0" fill="#81725b" opacity="0.17"/><circle cx="224.5" cy="562.5" r="2.1" fill="#81725b" opacity="0.50"/><circle cx="424.1" cy="620.8" r="1.0" fill="#81725b" opacity="0.27"/><circle cx="302.2" cy="498.6" r="3.0" fill="#81725b" opacity="0.38"/><circle cx="218.2" cy="497.2" r="1.5" fill="#81725b" opacity="0.44"/><circle cx="462.5" cy="490.3" r="1.0" fill="#81725b" opacity="0.30"/><circle cx="310.0" cy="551.0" r="2.2" fill="#81725b" opacity="0.46"/><circle cx="613.5" cy="572.1" r="1.7" fill="#81725b" opacity="0.23"/><circle cx="246.8" cy="622.7" r="0.9" fill="#81725b" opacity="0.44"/><circle cx="260.8" cy="548.7" r="2.6" fill="#81725b" opacity="0.30"/><circle cx="382.5" cy="624.2" r="3.0" fill="#81725b" opacity="0.42"/><circle cx="236.9" cy="590.4" r="3.0" fill="#81725b" opacity="0.21"/><circle cx="295.9" cy="627.9" r="1.0" fill="#81725b" opacity="0.29"/><circle cx="447.2" cy="603.5" r="1.4" fill="#81725b" opacity="0.35"/><circle cx="420.5" cy="439.2" r="1.3" fill="#81725b" opacity="0.36"/><circle cx="172.5" cy="457.0" r="1.3" fill="#81725b" opacity="0.27"/><circle cx="526.0" cy="616.6" r="2.9" fill="#81725b" opacity="0.44"/><circle cx="602.0" cy="640.7" r="2.1" fill="#81725b" opacity="0.16"/><circle cx="594.2" cy="643.1" r="1.9" fill="#81725b" opacity="0.36"/><circle cx="622.1" cy="592.2" r="2.5" fill="#81725b" opacity="0.43"/><circle cx="605.7" cy="442.5" r="2.4" fill="#81725b" opacity="0.42"/><circle cx="583.1" cy="645.3" r="1.7" fill="#81725b" opacity="0.25"/><circle cx="464.6" cy="483.2" r="2.3" fill="#81725b" opacity="0.30"/><circle cx="316.3" cy="470.5" r="1.0" fill="#81725b" opacity="0.34"/><circle cx="337.0" cy="646.2" r="0.9" fill="#81725b" opacity="0.15"/><circle cx="334.5" cy="527.8" r="2.4" fill="#81725b" opacity="0.30"/><circle cx="571.5" cy="542.3" r="1.2" fill="#81725b" opacity="0.28"/><circle cx="415.7" cy="447.7" r="2.3" fill="#81725b" opacity="0.31"/><circle cx="208.4" cy="585.1" r="2.4" fill="#81725b" opacity="0.19"/><circle cx="492.8" cy="631.8" r="2.4" fill="#81725b" opacity="0.17"/><circle cx="201.6" cy="617.4" r="1.7" fill="#81725b" opacity="0.32"/><circle cx="174.0" cy="475.4" r="2.8" fill="#81725b" opacity="0.50"/><circle cx="403.8" cy="609.7" r="1.1" fill="#81725b" opacity="0.29"/><circle cx="458.0" cy="641.0" r="2.8" fill="#81725b" opacity="0.33"/><circle cx="533.5" cy="597.4" r="3.1" fill="#81725b" opacity="0.30"/><circle cx="387.5" cy="506.0" r="1.2" fill="#81725b" opacity="0.50"/><circle cx="254.5" cy="450.9" r="1.9" fill="#81725b" opacity="0.48"/><circle cx="550.3" cy="501.7" r="1.0" fill="#81725b" opacity="0.45"/><circle cx="189.6" cy="465.9" r="1.7" fill="#81725b" opacity="0.23"/><circle cx="559.9" cy="568.9" r="3.0" fill="#81725b" opacity="0.24"/><circle cx="389.9" cy="572.8" r="2.2" fill="#81725b" opacity="0.26"/><circle cx="209.5" cy="489.5" r="1.0" fill="#81725b" opacity="0.16"/><circle cx="248.5" cy="539.5" r="1.2" fill="#81725b" opacity="0.41"/><circle cx="584.3" cy="471.1" r="2.5" fill="#81725b" opacity="0.25"/><circle cx="273.6" cy="526.3" r="2.7" fill="#81725b" opacity="0.49"/><circle cx="252.5" cy="434.8" r="2.8" fill="#81725b" opacity="0.23"/><circle cx="216.2" cy="641.3" r="3.0" fill="#81725b" opacity="0.20"/><circle cx="451.6" cy="579.4" r="1.0" fill="#81725b" opacity="0.17"/><circle cx="189.0" cy="430.9" r="1.0" fill="#81725b" opacity="0.35"/><circle cx="190.5" cy="631.8" r="2.1" fill="#81725b" opacity="0.22"/><circle cx="532.8" cy="582.8" r="1.4" fill="#81725b" opacity="0.29"/><circle cx="365.2" cy="551.4" r="1.1" fill="#81725b" opacity="0.18"/><circle cx="331.0" cy="575.7" r="2.7" fill="#81725b" opacity="0.34"/><circle cx="506.0" cy="599.0" r="2.4" fill="#81725b" opacity="0.41"/><circle cx="295.6" cy="591.7" r="2.8" fill="#81725b" opacity="0.37"/><circle cx="538.9" cy="594.3" r="2.3" fill="#81725b" opacity="0.46"/><circle cx="219.5" cy="452.4" r="0.9" fill="#81725b" opacity="0.25"/><circle cx="476.7" cy="578.3" r="2.4" fill="#81725b" opacity="0.29"/><circle cx="263.8" cy="644.1" r="1.8" fill="#81725b" opacity="0.40"/><circle cx="391.3" cy="626.1" r="2.9" fill="#81725b" opacity="0.31"/><circle cx="607.9" cy="582.7" r="1.3" fill="#81725b" opacity="0.43"/><circle cx="503.5" cy="536.1" r="3.0" fill="#81725b" opacity="0.16"/><circle cx="257.0" cy="595.2" r="1.6" fill="#81725b" opacity="0.40"/><circle cx="426.7" cy="607.6" r="2.5" fill="#81725b" opacity="0.29"/><circle cx="372.9" cy="577.7" r="0.9" fill="#81725b" opacity="0.42"/></g>
<ellipse cx="400" cy="430" rx="230" ry="40" fill="#ddc8a8"/><ellipse cx="400" cy="434" rx="216" ry="31" fill="#8b7a62"/>
<path d="M206,500 Q220,580 290,620" fill="none" stroke="#fff" stroke-width="9" stroke-linecap="round" opacity=".18"/></g>
</svg>