<svg xmlns="http://www.w3.org/2000/svg" viewBox="0 0 800 800" width="800" height="800" role="img" aria-hidden="true">
<defs><filter id="blur" x="-20%" y="-50%" width="140%" height="200%"><feGaussianBlur stdDeviation="9"/></filter><linearGradient id="g81" x1="0" x2="1"><stop offset="0" stop-color="#c6c1ba"/><stop offset=".28" stop-color="#f7f4ed"/><stop offset=".55" stop-color="#F6F2EA"/><stop offset="1" stop-color="#b4afa9"/></linearGradient>
<linearGradient id="v81" x1="0" y1="0" x2="0" y2="1"><stop offset="0" stop-color="#f7f3ec"/><stop offset="1" stop-color="#cecac3"/></linearGradient><clipPath id="c81"><path d="M362,190 L438,190 C438,300 570,330 570,480 C570,590 490,650 400,650 C310,650 230,590 230,480 C230,330 362,300 362,190 Z"/></clipPath></defs>
<rect width="800" height="800" fill="#EFE8DD"/><rect y="610" width="800" height="190" fill="#E3D9CB"/><rect y="609" width="800" height="2" fill="#d6cab8"/>
<ellipse cx="400" cy="656" rx="203" ry="24" fill="#5b4a38" opacity=".22" filter="url(#blur)"/><g transform="translate(400 650) scale(1.05) translate(-400 -650)"><path d="M362,190 L438,190 C438,300 570,330 570,480 C570,590 490,650 400,650 C310,650 230,590 230,480 C230,330 362,300 362,190 Z" fill="url(#g81)"/><g clip-path="url(#c81)"><circle cx="230.2" cy="527.5" r="3.4" fill="#938e88" opacity="0.48"/><circle cx="374.4" cy="283.4" r="2.3" fill="#938e88" opacity="0.23"/><circle cx="321.1" cy="266.9" r="2.0" fill="#938e88" opacity="0.30"/><circle cx="397.1" cy="446.8" r="3.5" fill="#938e88" opacity="0.22"/><circle cx="456.1" cy="452.0" r="2.0" fill="#938e88" opacity="0.48"/><circle cx="533.9" cy="567.7" r="2.6" fill="#938e88" opacity="0.45"/><circle cx="439.6" cy="646.7" r="3.1" fill="#938e88" opacity="0.29"/><circle cx="496.5" cy="598.5" r="2.0" fill="#938e88" opacity="0.29"/><circle cx="373.3" cy="425.7" r="2.3" fill="#938e88" opacity="0.25"/><circle cx="507.2" cy="638.2" r="1.9" fill="#938e88" opacity="0.16"/><circle cx="325.5" cy="516.0" r="2.3" fill="#938e88" opacity="0.41"/><circle cx="302.2" cy="364.2" r="3.0" fill="#938e88" opacity="0.31"/><circle cx="291.4" cy="325.4" r="2.9" fill="#938e88" opacity="0.27"/><circle cx="432.4" cy="347.8" r="2.6" fill="#938e88" opacity="0.26"/><circle cx="230.8" cy="386.2" r="1.8" fill="#938e88" opacity="0.32"/><circle cx="551.1" cy="344.0" r="1.6" fill="#938e88" opacity="0.36"/><circle cx="233.9" cy="445.0" r="2.8" fill="#938e88" opacity="0.40"/><circle cx="275.7" cy="400.4" r="1.2" fill="#938e88" opacity="0.30"/><circle cx="401.4" cy="476.3" r="1.6" fill="#938e88" opacity="0.28"/><circle cx="445.1" cy="514.9" r="2.0" fill="#938e88" opacity="0.50"/><circle cx="317.9" cy="317.4" r="1.5" fill="#938e88" opacity="0.48"/><circle cx="315.1" cy="459.7" r="2.3" fill="#938e88" opacity="0.39"/><circle cx="556.4" cy="537.0" r="1.7" fill="#938e88" opacity="0.38"/><circle cx="561.5" cy="641.8" r="3.0" fill="#938e88" opacity="0.36"/><circle cx="398.0" cy="315.0" r="3.5" fill="#938e88" opacity="0.41"/><circle cx="488.6" cy="477.9" r="1.7" fill="#938e88" opacity="0.22"/><circle cx="357.6" cy="329.1" r="2.0" fill="#938e88" opacity="0.31"/><circle cx="416.8" cy="598.3" r="2.9" fill="#938e88" opacity="0.28"/><circle cx="243.3" cy="610.7" r="1.7" fill="#938e88" opacity="0.26"/><circle cx="509.8" cy="532.1" r="3.4" fill="#938e88" opacity="0.38"/><circle cx="479.3" cy="337.0" r="1.6" fill="#938e88" opacity="0.38"/><circle cx="566.2" cy="432.3" r="2.1" fill="#938e88" opacity="0.41"/><circle cx="361.3" cy="419.0" r="2.7" fill="#938e88" opacity="0.24"/><circle cx="272.4" cy="383.0" r="2.5" fill="#938e88" opacity="0.39"/><circle cx="563.5" cy="612.0" r="2.2" fill="#938e88" opacity="0.35"/><circle cx="457.1" cy="512.1" r="1.4" fill="#938e88" opacity="0.49"/><circle cx="490.0" cy="304.4" r="2.3" fill="#938e88" opacity="0.43"/><circle cx="453.5" cy="259.0" r="1.9" fill="#938e88" opacity="0.19"/><circle cx="340.9" cy="549.7" r="2.7" fill="#938e88" opacity="0.35"/><circle cx="358.1" cy="278.7" r="1.0" fill="#938e88" opacity="0.30"/><circle cx="345.7" cy="307.7" r="3.1" fill="#938e88" opacity="0.16"/><circle cx="263.9" cy="523.0" r="2.5" fill="#938e88" opacity="0.33"/><circle cx="268.8" cy="357.1" r="2.9" fill="#938e88" opacity="0.34"/><circle cx="509.1" cy="191.2" r="1.7" fill="#938e88" opacity="0.16"/><circle cx="476.9" cy="649.1" r="3.5" fill="#938e88" opacity="0.39"/><circle cx="524.0" cy="406.3" r="3.3" fill="#938e88" opacity="0.48"/><circle cx="305.4" cy="617.1" r="1.8" fill="#938e88" opacity="0.24"/><circle cx="403.2" cy="513.7" r="3.3" fill="#938e88" opacity="0.30"/><circle cx="375.9" cy="419.8" r="3.5" fill="#938e88" opacity="0.22"/><circle cx="366.4" cy="568.4" r="2.4" fill="#938e88" opacity="0.16"/><circle cx="564.8" cy="633.1" r="1.2" fill="#938e88" opacity="0.37"/><circle cx="567.9" cy="378.3" r="3.0" fill="#938e88" opacity="0.17"/><circle cx="452.4" cy="483.5" r="2.8" fill="#938e88" opacity="0.45"/><circle cx="421.4" cy="190.6" r="1.9" fill="#938e88" opacity="0.49"/><circle cx="316.1" cy="320.5" r="3.3" fill="#938e88" opacity="0.29"/><circle cx="422.5" cy="580.6" r="1.8" fill="#938e88" opacity="0.44"/><circle cx="499.7" cy="273.6" r="2.1" fill="#938e88" opacity="0.32"/><circle cx="490.8" cy="572.2" r="1.2" fill="#938e88" opacity="0.45"/><circle cx="315.7" cy="328.2" r="1.9" fill="#938e88" opacity="0.22"/><circle cx="552.8" cy="192.6" r="2.0" fill="#938e88" opacity="0.18"/><circle cx="308.6" cy="438.3" r="2.6" fill="#938e88" opacity="0.39"/><circle cx="237.4" cy="490.1" r="3.5" fill="#938e88" opacity="0.28"/><circle cx="453.1" cy="470.6" r="1.2" fill="#938e88" opacity="0.17"/><circle cx="307.5" cy="568.5" r="2.6" fill="#938e88" opacity="0.47"/><circle cx="401.6" cy="356.3" r="1.5" fill="#938e88" opacity="0.46"/><circle cx="386.4" cy="339.2" r="3.6" fill="#938e88" opacity="0.17"/><circle cx="412.4" cy="460.6" r="3.2" fill="#938e88" opacity="0.43"/><circle cx="569.5" cy="545.5" r="2.2" fill="#938e88" opacity="0.19"/><circle cx="518.7" cy="614.1" r="1.6" fill="#938e88" opacity="0.16"/><circle cx="395.9" cy="192.8" r="1.7" fill="#938e88" opacity="0.46"/><circle cx="350.2" cy="575.2" r="1.5" fill="#938e88" opacity="0.42"/><circle cx="250.4" cy="493.5" r="1.3" fill="#938e88" opacity="0.31"/><circle cx="391.4" cy="231.0" r="1.8" fill="#938e88" opacity="0.39"/><circle cx="266.5" cy="204.0" r="1.8" fill="#938e88" opacity="0.33"/><circle cx="310.4" cy="635.8" r="2.4" fill="#938e88" opacity="0.43"/><circle cx="407.5" cy="520.1" r="2.5" fill="#938e88" opacity="0.46"/><circle cx="290.0" cy="313.3" r="3.1" fill="#938e88" opacity="0.36"/><circle cx="497.8" cy="507.6" r="2.2" fill="#938e88" opacity="0.48"/><circle cx="566.4" cy="425.1" r="2.1" fill="#938e88" opacity="0.16"/><circle cx="429.0" cy="633.8" r="3.4" fill="#938e88" opacity="0.38"/><circle cx="291.8" cy="284.7" r="2.8" fill="#938e88" opacity="0.28"/><circle cx="235.0" cy="241.8" r="3.6" fill="#938e88" opacity="0.33"/><circle cx="345.0" cy="596.1" r="1.4" fill="#938e88" opacity="0.29"/><circle cx="258.3" cy="221.3" r="1.6" fill="#938e88" opacity="0.39"/><circle cx="457.0" cy="554.1" r="2.0" fill="#938e88" opacity="0.43"/><circle cx="472.1" cy="209.1" r="1.1" fill="#938e88" opacity="0.47"/><circle cx="344.5" cy="609.4" r="1.3" fill="#938e88" opacity="0.35"/><circle cx="500.5" cy="223.2" r="1.7" fill="#938e88" opacity="0.48"/><circle cx="480.1" cy="566.0" r="1.0" fill="#938e88" opacity="0.20"/><circle cx="429.7" cy="393.5" r="1.3" fill="#938e88" opacity="0.39"/><circle cx="353.6" cy="238.9" r="1.8" fill="#938e88" opacity="0.35"/><circle cx="370.8" cy="613.5" r="2.9" fill="#938e88" opacity="0.43"/><circle cx="317.8" cy="398.9" r="2.0" fill="#938e88" opacity="0.40"/><circle cx="388.3" cy="481.7" r="3.4" fill="#938e88" opacity="0.26"/><circle cx="358.9" cy="333.2" r="1.3" fill="#938e88" opacity="0.37"/><circle cx="357.0" cy="410.9" r="2.8" fill="#938e88" opacity="0.43"/><circle cx="456.9" cy="334.8" r="2.8" fill="#938e88" opacity="0.47"/><circle cx="253.1" cy="578.4" r="3.5" fill="#938e88" opacity="0.24"/><circle cx="330.5" cy="405.9" r="1.8" fill="#938e88" opacity="0.28"/><circle cx="551.9" cy="308.5" r="3.2" fill="#938e88" opacity="0.49"/><circle cx="416.0" cy="368.4" r="3.0" fill="#938e88" opacity="0.32"/><circle cx="522.7" cy="531.0" r="2.0" fill="#938e88" opacity="0.33"/><circle cx="492.3" cy="628.2" r="2.8" fill="#938e88" opacity="0.39"/><circle cx="417.4" cy="381.0" r="1.9" fill="#938e88" opacity="0.18"/><circle cx="307.2" cy="585.7" r="2.5" fill="#938e88" opacity="0.49"/><circle cx="483.2" cy="354.5" r="3.2" fill="#938e88" opacity="0.32"/><circle cx="243.7" cy="246.6" r="1.5" fill="#938e88" opacity="0.39"/><circle cx="392.2" cy="537.5" r="2.1" fill="#938e88" opacity="0.33"/><circle cx="316.1" cy="203.5" r="1.4" fill="#938e88" opacity="0.19"/><circle cx="351.8" cy="269.3" r="3.5" fill="#938e88" opacity="0.23"/><circle cx="446.5" cy="504.2" r="1.7" fill="#938e88" opacity="0.39"/><circle cx="445.4" cy="220.1" r="1.1" fill="#938e88" opacity="0.48"/><circle cx="569.2" cy="394.8" r="3.5" fill="#938e88" opacity="0.26"/><circle cx="540.0" cy="465.1" r="2.1" fill="#938e88" opacity="0.16"/><circle cx="262.2" cy="266.8" r="2.6" fill="#938e88" opacity="0.29"/><circle cx="286.3" cy="395.0" r="1.3" fill="#938e88" opacity="0.25"/><circle cx="372.6" cy="391.0" r="2.4" fill="#938e88" opacity="0.24"/><circle cx="442.9" cy="423.5" r="2.1" fill="#938e88" opacity="0.32"/><circle cx="383.0" cy="200.2" r="2.0" fill="#938e88" opacity="0.49"/><circle cx="265.9" cy="589.6" r="3.0" fill="#938e88" opacity="0.46"/></g>
<ellipse cx="400" cy="190" rx="38" ry="9.88" fill="#f8f5ee"/><ellipse cx="400" cy="192" rx="31" ry="7.22" fill="#7d7872"/>
<path d="M280,443 Q272,548.8 312,604" fill="none" stroke="#fff" stroke-width="12" stroke-linecap="round" opacity=".17"/></g>
</svg>